<svg width="440" height="158" viewBox="0 0 440 158" fill="none" xmlns="http://www.w3.org/2000/svg">
<path d="M164 132.098L218.5 158L272 132.098V66.3624V0H164V66.3624V132.098Z" fill="#F0DAA9" stroke="black"/>
<path d="M218.5 153L168 129.419V82.3737V38H269V129.419L218.5 153Z" fill="black" stroke="#1E1E1E"/>
<g filter="url(#filter0_n_229_2200)">
<path d="M216.904 87.8941H171V42H216.904V87.8941Z" fill="#102E4A"/>
<path d="M216.904 87.8941H171V42H216.904V87.8941Z" stroke="black"/>
</g>
<path d="M265.755 87.8941H219.85V42H265.755V87.8941Z" fill="#102E4A" stroke="black"/>
<path d="M171 91.4146H217.15V148L171 127.66V91.4146Z" fill="#102E4A" stroke="black"/>
<g filter="url(#filter1_n_229_2200)">
<path d="M266 91.2842H219.85V147.87L266 127.53V91.2842Z" fill="#102E4A"/>
<path d="M266 91.2842H219.85V147.87L266 127.53V91.2842Z" stroke="black"/>
</g>
<g opacity="0.8">
<path fill-rule="evenodd" clip-rule="evenodd" d="M246.895 114.606C247.263 115.245 247.923 115.822 248.264 116.481C248.307 116.558 247.778 116.75 247.782 116.833C247.785 116.875 248.983 117.599 249.12 118.148C247.986 119.862 245.724 115.181 246.904 114.6L246.895 114.606Z" fill="black"/>
<path fill-rule="evenodd" clip-rule="evenodd" d="M240.668 128.884C241.753 130.578 238.979 129.513 240.668 128.884Z" fill="black"/>
<path fill-rule="evenodd" clip-rule="evenodd" d="M247.08 143.12C247.31 143.665 247.327 144.107 246.898 144.399L246.074 143.271C246.409 143.329 246.754 143.38 247.08 143.12Z" fill="black"/>
<path fill-rule="evenodd" clip-rule="evenodd" d="M229.971 126.387C230.072 126.831 230.164 127.262 230.516 127.134C231.375 128.863 228.528 126.532 229.971 126.387Z" fill="black"/>
<path fill-rule="evenodd" clip-rule="evenodd" d="M237.483 147.621C236.803 145.717 236 146.737 234.967 147.729C234.456 147.087 234.682 146.727 234.121 146.056C234.742 145.148 235.438 145.72 236.113 145.746C236.449 145.155 238.036 145.055 237.527 144.129C239.375 144.941 238.907 147.164 237.473 147.607L237.483 147.621Z" fill="black"/>
<path fill-rule="evenodd" clip-rule="evenodd" d="M232.769 137.584C235.014 139.797 235.404 138.017 236.125 136.158C237.268 136.761 237.209 137.359 238.438 137.976C238.22 139.512 236.874 139.098 235.935 139.407C235.887 140.372 233.791 141.315 235.126 142.3C232.043 142.15 231.142 138.923 232.792 137.598L232.769 137.584Z" fill="black"/>
<path fill-rule="evenodd" clip-rule="evenodd" d="M229.215 144.949C226.177 145.788 227.524 147.015 228.775 148.569C227.681 149.258 227.193 148.907 226.044 149.665C224.822 148.709 225.853 147.749 226.055 146.782C225.243 146.258 224.02 143.336 222.5 144C224.17 141.403 224.723 140.772 225.048 142.864L229.215 144.949Z" fill="black"/>
<path fill-rule="evenodd" clip-rule="evenodd" d="M241.819 140.322L242.301 139.97L242.847 140.717L242.365 141.069L241.819 140.322Z" fill="black"/>
<path fill-rule="evenodd" clip-rule="evenodd" d="M226 144.926C226 144.926 233.5 152 230.005 142C226.51 132 236.5 151.574 236 150C235.5 148.426 230.422 152.62 228 150C226.555 148.436 226 144.926 226 144.926Z" fill="black"/>
<path fill-rule="evenodd" clip-rule="evenodd" d="M232.773 135.798C232.98 136.577 232.756 137.13 232.087 136.883C231.523 135.977 232.105 135.551 232.773 135.798Z" fill="black"/>
<path fill-rule="evenodd" clip-rule="evenodd" d="M230.887 137.762C230.267 136.053 229.497 134.54 227.858 133.1C228.24 132.496 228.729 133.566 229.131 133.315C229.209 133.669 230.233 134.499 230.223 134.809C230.215 134.837 229.976 134.968 229.977 134.989C230.121 135.186 230.568 135.357 230.491 135.176C230.687 135.616 230.443 135.989 230.554 136.275C230.634 136.498 232.441 137.577 230.897 137.755L230.887 137.762Z" fill="black"/>
<path fill-rule="evenodd" clip-rule="evenodd" d="M235.126 149.706C234.18 148.154 233.125 146.824 231.234 145.736C231.489 145.068 232.18 146.021 232.525 145.695C232.671 146.027 233.839 146.637 233.89 146.944C233.888 146.972 233.68 147.148 233.685 147.168C233.866 147.333 234.337 147.412 234.225 147.25C234.505 147.643 234.34 148.056 234.505 148.315C234.627 148.518 236.612 149.218 235.134 149.698L235.126 149.706Z" fill="black"/>
<path fill-rule="evenodd" clip-rule="evenodd" d="M260.275 124.308C260.921 123.989 260.734 125.509 261.121 125.982C260.798 126.132 260.427 125.452 260.062 125.048C260.385 124.898 260.428 124.651 260.266 124.315L260.275 124.308Z" fill="black"/>
<path fill-rule="evenodd" clip-rule="evenodd" d="M255.725 128.219C256.318 129.471 254.722 127.611 254.482 128.543C254.381 128.098 254.289 127.668 253.936 127.796C253.459 126.112 255.27 128.227 255.725 128.219Z" fill="black"/>
<path fill-rule="evenodd" clip-rule="evenodd" d="M250.193 136.84C249.143 137.542 247.985 136.378 246.895 136.374C246.718 135.293 248.313 136.138 249.165 136.445C249.523 136.573 249.802 135.98 250.193 136.84Z" fill="black"/>
<path fill-rule="evenodd" clip-rule="evenodd" d="M242.905 128.394C243.189 128.878 243.431 129.285 243.483 129.701C243.613 130.795 242.972 129.555 242.519 130.406C242.255 130.923 242.715 131.992 241.855 132.036C241.628 131.554 241.593 130.78 242.069 131.318C241.909 130.181 241.612 128.992 242.906 128.415L242.905 128.394Z" fill="black"/>
<path fill-rule="evenodd" clip-rule="evenodd" d="M242.866 145.048C243.344 144.958 243.125 145.594 243.679 146.161C243.014 146.129 242.144 146.007 242.106 145.02C242.342 144.847 242.636 145.345 242.897 145.587C243.158 145.505 243.022 145.28 242.865 145.027L242.866 145.048Z" fill="black"/>
<path fill-rule="evenodd" clip-rule="evenodd" d="M258.63 134.098C259.271 133.715 259.629 135.313 259.721 135.592C259.08 135.974 258.722 134.376 258.63 134.098Z" fill="black"/>
</g>
<g opacity="0.8">
<path fill-rule="evenodd" clip-rule="evenodd" d="M223.606 120.973C224.245 121.342 224.822 122.001 225.481 122.343C225.558 122.385 225.75 121.856 225.833 121.861C225.874 121.863 226.599 123.062 227.148 123.198C228.862 122.065 224.18 119.802 223.599 120.982L223.606 120.973Z" fill="black"/>
<path fill-rule="evenodd" clip-rule="evenodd" d="M237.884 114.747C239.578 115.831 238.513 113.058 237.884 114.747Z" fill="black"/>
<path fill-rule="evenodd" clip-rule="evenodd" d="M252.12 121.158C252.665 121.389 253.107 121.405 253.398 120.976L252.271 120.152C252.329 120.488 252.38 120.832 252.12 121.158Z" fill="black"/>
<path fill-rule="evenodd" clip-rule="evenodd" d="M235.387 104.049C235.831 104.151 236.262 104.242 236.134 104.595C237.863 105.454 235.532 102.607 235.387 104.049Z" fill="black"/>
<path fill-rule="evenodd" clip-rule="evenodd" d="M256.621 111.561C254.717 110.882 255.737 110.078 256.729 109.045C256.087 108.534 255.727 108.76 255.056 108.199C254.148 108.82 254.72 109.517 254.746 110.191C254.155 110.527 254.055 112.114 253.129 111.605C253.941 113.454 256.164 112.985 256.607 111.551L256.621 111.561Z" fill="black"/>
<path fill-rule="evenodd" clip-rule="evenodd" d="M249.322 115.898L248.97 116.38L249.717 116.926L250.069 116.444L249.322 115.898Z" fill="black"/>
<path fill-rule="evenodd" clip-rule="evenodd" d="M244.798 106.852C245.577 107.058 246.13 106.834 245.883 106.166C244.977 105.601 244.551 106.183 244.798 106.852Z" fill="black"/>
<path fill-rule="evenodd" clip-rule="evenodd" d="M246.761 104.966C245.053 104.345 243.54 103.575 242.099 101.936C241.496 102.318 242.566 102.807 242.315 103.209C242.669 103.287 243.499 104.312 243.809 104.301C243.837 104.293 243.968 104.054 243.989 104.056C244.186 104.2 244.357 104.646 244.176 104.569C244.616 104.765 244.989 104.521 245.275 104.633C245.498 104.712 246.577 106.519 246.755 104.975L246.761 104.966Z" fill="black"/>
<path fill-rule="evenodd" clip-rule="evenodd" d="M233.308 134.354C232.988 134.999 234.508 134.812 234.982 135.2C235.132 134.877 234.451 134.505 234.048 134.141C233.898 134.464 233.651 134.506 233.315 134.345L233.308 134.354Z" fill="black"/>
<path fill-rule="evenodd" clip-rule="evenodd" d="M237.219 129.803C238.471 130.397 236.611 128.801 237.543 128.561C237.098 128.459 236.667 128.368 236.795 128.015C235.112 127.538 237.227 129.348 237.219 129.803Z" fill="black"/>
<path fill-rule="evenodd" clip-rule="evenodd" d="M245.84 124.271C246.542 123.222 245.378 122.064 245.374 120.973C244.293 120.796 245.138 122.391 245.445 123.243C245.573 123.601 244.98 123.88 245.84 124.271Z" fill="black"/>
<path fill-rule="evenodd" clip-rule="evenodd" d="M237.394 116.983C237.878 117.267 238.285 117.509 238.701 117.562C239.795 117.691 238.555 117.051 239.406 116.597C239.923 116.334 240.992 116.794 241.036 115.934C240.554 115.706 239.78 115.671 240.318 116.148C239.181 115.987 237.992 115.69 237.415 116.984L237.394 116.983Z" fill="black"/>
<path fill-rule="evenodd" clip-rule="evenodd" d="M254.048 116.944C253.958 117.423 254.594 117.203 255.161 117.758C255.129 117.092 255.007 116.222 254.02 116.184C253.847 116.421 254.345 116.715 254.587 116.975C254.505 117.236 254.28 117.1 254.027 116.943L254.048 116.944Z" fill="black"/>
<path fill-rule="evenodd" clip-rule="evenodd" d="M243.098 132.708C242.715 133.349 244.313 133.708 244.592 133.8C244.974 133.158 243.376 132.8 243.098 132.708Z" fill="black"/>
</g>
<g opacity="0.8">
<path fill-rule="evenodd" clip-rule="evenodd" d="M203.268 93H204.025C204.125 93.4844 203.668 93.5182 203.639 93.9012H202.883C202.783 93.4168 203.24 93.383 203.268 93Z" fill="black"/>
<path fill-rule="evenodd" clip-rule="evenodd" d="M167.695 94.4985C168.694 94.7126 168.495 95.8616 169.594 95.9968C169.537 96.346 168.909 96.2446 168.452 96.3009C167.681 96.3798 167.695 97.1008 167.31 97.4951C166.596 97.3148 166.468 97.1458 166.939 96.5938C167.139 96.346 167.31 95.2082 167.695 94.4985Z" fill="black"/>
<path fill-rule="evenodd" clip-rule="evenodd" d="M175.259 94.8027C177.001 95.0055 174.959 96.6164 175.259 94.8027Z" fill="black"/>
<path fill-rule="evenodd" clip-rule="evenodd" d="M177.915 98.0811C178.457 98.1486 178.043 98.971 178.671 98.9823C178.4 99.5117 177.986 99.0273 177.529 98.9823C177.43 98.4979 177.886 98.4641 177.915 98.0811Z" fill="black"/>
<path fill-rule="evenodd" clip-rule="evenodd" d="M167.31 98.9824C167.781 99.1176 168.081 99.3655 168.067 99.8836C167.596 99.7485 167.296 99.5006 167.31 98.9824Z" fill="black"/>
<path fill-rule="evenodd" clip-rule="evenodd" d="M179.045 99.2749C180.172 100.086 179.887 101.99 180.558 103.161C179.958 103.184 179.116 103.015 179.045 103.465C177.988 103.308 177.917 102.328 177.531 101.674C177.446 101.528 177.046 101.427 177.16 101.077C177.203 100.942 177.96 101.167 177.917 100.773C177.845 100.187 177.489 100.075 176.775 99.8719C177.489 98.8581 178.103 100.379 179.045 100.176C178.588 99.7818 178.902 99.703 179.045 99.2749Z" fill="black"/>
<path fill-rule="evenodd" clip-rule="evenodd" d="M189.265 101.066C190.036 101.483 188.894 102.092 189.636 102.858C188.851 102.734 188.637 103.06 188.123 103.162C188.095 104.131 187.638 104.773 186.61 104.953C186.282 103.995 187.21 104.029 187.367 103.455C187.41 102.914 186.91 102.824 186.996 102.26C187.824 102.553 188.066 102.046 188.509 101.663C188.751 101.449 189.137 101.371 189.265 101.066Z" fill="black"/>
<path fill-rule="evenodd" clip-rule="evenodd" d="M196.074 102.564C195.246 103.184 196.402 103.533 195.703 104.062C195.403 103.904 195.089 103.747 194.561 103.758C194.39 102.823 194.889 102.429 196.074 102.564Z" fill="black"/>
<path fill-rule="evenodd" clip-rule="evenodd" d="M193.432 103.161H194.189V103.758H193.432V103.161Z" fill="black"/>
<path fill-rule="evenodd" clip-rule="evenodd" d="M179.044 107.048C179.372 106.992 179.401 107.161 179.43 107.352C179.915 108.366 181.785 108.287 181.699 109.74C181.014 109.774 180.9 109.38 180.186 109.436C179.415 109.932 178.673 110.439 178.673 111.532C177.417 111.532 177.231 110.687 177.16 109.74C177.303 109.898 179.244 108.997 178.302 108.242C177.46 107.578 179.058 108.186 179.058 107.048H179.044Z" fill="black"/>
<path fill-rule="evenodd" clip-rule="evenodd" d="M165.797 107.341C166.283 107.758 167.439 107.634 168.452 107.645C168.624 108.287 167.91 108.208 167.31 108.242C167.082 109.2 168.024 109.166 167.31 109.74C166.725 109.312 165.84 109.109 165.041 108.839C164.755 107.915 166.083 108.265 165.797 107.341Z" fill="black"/>
<path fill-rule="evenodd" clip-rule="evenodd" d="M194.561 107.645C195.375 107.51 195.275 108.073 195.318 108.546C195.018 108.49 194.946 108.242 194.561 108.242V107.645Z" fill="black"/>
<path fill-rule="evenodd" clip-rule="evenodd" d="M196.844 112.128C196.986 112.635 196.544 112.692 196.087 112.725C196.001 113.255 196.473 114.224 195.331 113.919C194.874 112.556 195.259 111.452 196.844 112.128Z" fill="black"/>
<path fill-rule="evenodd" clip-rule="evenodd" d="M168.065 112.421C168.736 112.489 168.921 112.94 168.821 113.615C167.423 113.582 167.865 113.176 168.065 112.421Z" fill="black"/>
<path fill-rule="evenodd" clip-rule="evenodd" d="M201.754 116.003C203.396 116.127 201.355 117.738 201.754 116.003Z" fill="black"/>
<path fill-rule="evenodd" clip-rule="evenodd" d="M186.995 119.586C188.636 119.71 186.595 121.321 186.995 119.586Z" fill="black"/>
<path fill-rule="evenodd" clip-rule="evenodd" d="M197.972 120.194C199.257 120.273 200.142 120.668 201.755 120.498C201.898 121.816 200.028 121.535 199.1 121.997C198.743 122.211 198.529 122.537 198.343 122.898C197.815 122.875 198.129 122.312 197.958 121.997C197.544 121.242 196.773 120.96 197.958 120.206L197.972 120.194Z" fill="black"/>
<path fill-rule="evenodd" clip-rule="evenodd" d="M202.898 120.194H203.654V120.791H202.898V120.194Z" fill="black"/>
<path fill-rule="evenodd" clip-rule="evenodd" d="M186.625 121.084C187.581 121.118 188.096 121.523 188.138 122.278C186.982 122.064 186.754 122.582 185.868 122.582C186.025 122.008 186.953 122.042 186.625 121.084Z" fill="black"/>
<path fill-rule="evenodd" clip-rule="evenodd" d="M172.235 121.985C173.291 122.244 173.491 123.191 173.748 124.081H171.478C171.792 123.439 172.463 123.067 172.235 121.985Z" fill="black"/>
<path fill-rule="evenodd" clip-rule="evenodd" d="M171.478 124.971C172.32 125.095 171.777 126.559 171.478 126.762C170.636 126.638 171.178 125.174 171.478 124.971Z" fill="black"/>
<path fill-rule="evenodd" clip-rule="evenodd" d="M181.698 104.952C181.256 104.907 181.027 105.02 180.942 105.257C179.9 105.696 181.97 103.803 181.327 103.758C181.841 103.781 181.641 104.558 181.698 104.952Z" fill="black"/>
<path fill-rule="evenodd" clip-rule="evenodd" d="M170.721 105.549C172.034 103.905 172.577 108.016 172.991 106.146C173.833 106.27 173.148 107.622 173.362 108.242C172.477 108.343 171.592 108.433 171.849 109.436C171.52 109.492 171.492 109.323 171.478 109.132H170.721C171.349 108.636 172.249 108.354 172.234 107.341C172.092 106.451 171.578 105.865 170.721 105.549Z" fill="black"/>
<path fill-rule="evenodd" clip-rule="evenodd" d="M183.211 105.257C183.639 106.192 182.611 105.978 182.454 106.451C182.169 106.27 181.755 105.2 183.211 105.257Z" fill="black"/>
<path fill-rule="evenodd" clip-rule="evenodd" d="M194.945 114.81C194.831 114.28 196.415 114.787 196.073 115.407C195.231 115.576 195.53 114.832 194.945 114.81Z" fill="black"/>
<path fill-rule="evenodd" clip-rule="evenodd" d="M197.215 115.711C198.228 115.508 197.943 116.33 198.357 116.612C198.428 117.265 198.043 117.558 197.215 117.513V119.608C195.245 119.777 193.846 119.473 194.189 117.817C195.445 117.502 195.488 117.907 196.844 117.513C197.486 116.995 196.787 116.736 197.215 115.722V115.711Z" fill="black"/>
<path fill-rule="evenodd" clip-rule="evenodd" d="M185.095 118.099C185.252 119.226 184.296 119.462 183.582 119.89C183.582 120.251 183.111 120.025 183.211 119.89C183.282 119.766 183.925 119.687 183.967 119.586C184.082 119.349 183.81 118.91 183.967 118.685C183.996 118.651 184.324 118.73 184.353 118.685C184.567 118.291 184.382 118.031 185.11 118.088L185.095 118.099Z" fill="black"/>
</g>
<path fill-rule="evenodd" clip-rule="evenodd" d="M179.469 115.328C180.069 115.406 180.768 115.215 181.368 115.328C181.439 115.339 181.311 115.879 181.368 115.925C181.397 115.947 182.453 115.406 182.881 115.62C183.466 117.547 179.284 116.612 179.469 115.316V115.328Z" fill="black"/>
<path fill-rule="evenodd" clip-rule="evenodd" d="M185.893 128.778C187.534 128.902 185.493 130.513 185.893 128.778Z" fill="black"/>
<path fill-rule="evenodd" clip-rule="evenodd" d="M198.385 132C198.856 132.135 199.156 132.383 199.142 132.901H198C198.2 132.665 198.4 132.417 198.385 132Z" fill="black"/>
<path fill-rule="evenodd" clip-rule="evenodd" d="M179.083 135.942C179.425 136.123 179.754 136.303 179.839 135.942C181.395 136.269 178.483 137.193 179.083 135.942Z" fill="black"/>
<path fill-rule="evenodd" clip-rule="evenodd" d="M196.727 142.404C195.142 141.83 195.428 143.08 195.585 144.499C194.914 144.533 194.786 144.139 194.072 144.195C193.772 143.159 194.486 142.934 194.828 142.404C194.6 141.785 195.299 140.444 194.443 140.309C195.87 139.295 197.112 140.985 196.713 142.404H196.727Z" fill="black"/>
<path fill-rule="evenodd" clip-rule="evenodd" d="M194 134.597V134H194.757V134.597H194Z" fill="black"/>
<path fill-rule="evenodd" clip-rule="evenodd" d="M186.649 139.231C187.263 139.524 187.52 140.031 187.034 140.426C186.163 140.347 186.163 139.626 186.649 139.231Z" fill="black"/>
<path fill-rule="evenodd" clip-rule="evenodd" d="M187.035 141.913C185.608 141.406 184.238 141.136 182.496 141.609C182.282 140.944 183.224 141.181 183.252 140.708C183.523 140.854 184.566 140.516 184.766 140.708C184.78 140.73 184.751 141.001 184.766 141.012C184.965 141.012 185.294 140.753 185.137 140.708C185.522 140.809 185.651 141.226 185.893 141.305C186.079 141.372 187.663 140.55 187.035 141.902V141.913Z" fill="black"/>
<path fill-rule="evenodd" clip-rule="evenodd" d="M192.331 110.247C192.431 109.537 193.344 110.585 193.844 110.551C193.787 110.901 193.159 110.799 192.716 110.856C192.773 110.506 192.63 110.326 192.331 110.258V110.247Z" fill="black"/>
<path fill-rule="evenodd" clip-rule="evenodd" d="M192.717 116.229C193.83 116.488 191.832 116.679 192.332 117.423C191.989 117.242 191.661 117.062 191.575 117.423C190.233 116.814 192.503 116.6 192.717 116.229Z" fill="black"/>
<path fill-rule="evenodd" clip-rule="evenodd" d="M195.741 125.782C195.698 127.043 194.37 127.291 193.842 128.17C193.043 127.674 194.37 126.886 194.984 126.379C195.241 126.165 194.984 125.59 195.741 125.782Z" fill="black"/>
<path fill-rule="evenodd" clip-rule="evenodd" d="M186.648 126.683C187.105 126.739 187.49 126.784 187.79 126.987C188.575 127.528 187.447 127.314 187.79 128.181C188.004 128.7 188.932 128.959 188.547 129.68C188.118 129.578 187.59 129.15 188.175 129.083C187.347 128.542 186.419 128.08 186.662 126.694L186.648 126.683Z" fill="black"/>
<path fill-rule="evenodd" clip-rule="evenodd" d="M197.625 136.54C197.796 136.1 198.11 136.653 198.753 136.54C198.41 137.058 197.91 137.689 197.24 137.137C197.24 136.844 197.71 136.9 197.996 136.833C198.067 136.574 197.853 136.551 197.611 136.528L197.625 136.54Z" fill="black"/>
<path fill-rule="evenodd" clip-rule="evenodd" d="M198 117.351C198.057 116.608 199.285 117.261 199.513 117.351C199.456 118.095 198.228 117.442 198 117.351Z" fill="black"/>
<g filter="url(#filter2_d_229_2200)">
<rect x="188.35" y="61.35" width="12.3" height="6.3" rx="0.65" fill="#F0DAA9" stroke="black" stroke-width="0.7"/>
<rect x="187.36" y="62.36" width="14.28" height="6.28" rx="0.64" fill="#F0DAA9" stroke="black" stroke-width="0.72"/>
<rect x="184.625" y="71.375" width="6.25" height="4.25" rx="0.625" transform="rotate(90 184.625 71.375)" fill="#F0DAA9" stroke="black" stroke-width="0.75"/>
<rect x="254.625" y="71.375" width="6.25" height="4.25" rx="0.625" transform="rotate(90 254.625 71.375)" fill="#F0DAA9" stroke="black" stroke-width="0.75"/>
<rect x="183.425" y="67.425" width="68.15" height="47.15" rx="2.575" fill="#F0DAA9" stroke="black" stroke-width="0.85"/>
<path d="M216.5 74.4502C225.929 74.4502 233.55 81.8719 233.55 91C233.55 100.128 225.929 107.55 216.5 107.55C207.071 107.55 199.45 100.128 199.45 91C199.45 81.8719 207.071 74.4502 216.5 74.4502Z" fill="#F0DAA9" stroke="black" stroke-width="0.9"/>
<path d="M216.5 78.4346C223.731 78.4346 229.565 84.0759 229.565 91C229.565 97.9241 223.731 103.565 216.5 103.565C209.269 103.565 203.435 97.9241 203.435 91C203.435 84.0759 209.269 78.4346 216.5 78.4346Z" fill="#F0DAA9" stroke="black" stroke-width="0.87"/>
<circle cx="245" cy="74" r="1.65" fill="#F0DAA9" stroke="black" stroke-width="0.7"/>
<path d="M236 100.999C234.455 101.304 233 102.499 232.5 102.999C232 103.499 231.224 104.17 231.5 104.999C231.776 105.827 232.5 106.499 233.5 105.999L233.508 105.995C234.505 105.496 235.502 104.998 236.5 104.999C237.5 105 240.139 106.013 243.5 107.999C246.949 110.037 239.931 100.223 236 100.999Z" fill="#F0DAA9" stroke="black" stroke-width="0.7"/>
</g>
<path d="M233.527 56.7891L233.646 56.9639H240.151L235.095 60.2871L234.821 60.4678L234.944 60.7715L236.74 65.1924L231.673 62.7676L231.513 62.6914L231.35 62.7578L223.058 66.126L227.977 60.8955L228.303 60.5488L227.906 60.2871L222.85 56.9639H229.612L229.537 56.501L228.365 49.209L233.527 56.7891Z" fill="#FD883B" stroke="black" stroke-width="0.8"/>
<path d="M254.788 92.1533L255.051 92.249L260.094 94.0938L256.788 96.1611L256.578 96.292L256.602 96.5391L257.311 103.705L253.737 97.5459L253.509 97.1514L253.147 97.4297L249.439 100.292L250.868 95.6201L250.958 95.3252L250.696 95.1631L244.256 91.1816L251.537 92.2686L251.799 92.3076L251.936 92.082L254.788 87.4199V92.1533Z" fill="#FD883B" stroke="black" stroke-width="0.8"/>
<path d="M179.69 22.32H179.67C179.096 21.9067 178.476 21.6 177.81 21.4H177.79V21.38C177.23 21.22 176.663 21.14 176.09 21.14H175.95C175.976 21.14 176.043 21.0867 176.15 20.98L177.61 19.96C177.61 19.9467 177.623 19.9333 177.65 19.92C177.69 19.9067 177.736 19.8733 177.79 19.82V5.68C177.79 5.64 177.803 5.60667 177.83 5.58L176.17 4.62L177.81 3.64C177.89 3.6 177.963 3.58 178.03 3.58C178.11 3.58 178.183 3.6 178.25 3.64L179.49 4.42C179.57 4.38 179.663 4.32 179.77 4.24C179.876 4.16 179.943 4.11333 179.97 4.1C179.996 4.08667 180.036 4.06 180.09 4.02C180.183 3.94 180.296 3.85333 180.43 3.76C180.736 3.53333 180.916 3.42 180.97 3.42C181.73 4.06 182.463 4.57333 183.17 4.96C183.676 5.24 184.223 5.38 184.81 5.38L185.11 5.36C185.083 5.36 185.043 5.38667 184.99 5.44C184.95 5.48 184.663 5.69333 184.13 6.08L183.43 6.56L183.31 6.66C183.216 6.72667 183.056 6.76 182.83 6.76C182.296 6.76 181.776 6.63333 181.27 6.38C180.763 6.11333 180.256 5.78 179.75 5.38V11H183.43L183.27 11.24C183.03 11.5867 182.87 11.8067 182.79 11.9C182.723 11.9933 182.663 12.0867 182.61 12.18C182.45 12.42 182.343 12.54 182.29 12.54H179.75V20.02C180.03 20.1 180.303 20.2067 180.57 20.34C180.73 20.3933 180.903 20.42 181.09 20.42C181.29 20.42 181.476 20.4133 181.65 20.4C181.836 20.3867 181.99 20.3667 182.11 20.34L182.29 20.32C181.21 21.2 180.663 21.6467 180.65 21.66C180.636 21.6733 180.496 21.78 180.23 21.98C179.91 22.2067 179.73 22.32 179.69 22.32ZM177.37 18.92L176.87 18.08V6.72L177.37 5.84V18.92ZM191.423 22.26C191.383 22.26 191.203 22.1533 190.883 21.94C190.136 21.4467 189.343 21.0067 188.503 20.62C187.849 20.3267 187.189 20.18 186.523 20.18C186.323 20.18 186.116 20.1933 185.903 20.22C185.863 20.22 185.843 20.2133 185.843 20.2C185.843 20.1733 185.869 20.1333 185.923 20.08C185.923 20.0667 185.929 20.06 185.943 20.06C186.116 19.8467 186.296 19.6933 186.483 19.6C186.629 19.4533 186.829 19.3 187.083 19.14V5.62C187.083 5.55333 187.149 5.46 187.283 5.34C187.429 5.22 187.663 5.04667 187.983 4.82L188.223 4.68C188.623 4.46667 188.876 4.32667 188.983 4.26C189.089 4.19333 189.149 4.15333 189.163 4.14C189.189 4.11333 189.223 4.08667 189.263 4.06C189.356 3.98 189.469 3.89333 189.603 3.8C189.856 3.62667 190.043 3.54 190.163 3.54C190.216 3.54 190.496 3.71333 191.003 4.06C191.616 4.5 192.249 4.87333 192.903 5.18C193.383 5.40667 193.896 5.52 194.443 5.52C194.656 5.52 194.869 5.50667 195.083 5.48C195.123 5.48 195.143 5.48667 195.143 5.5L195.063 5.64H195.043C194.923 5.78667 194.776 5.92 194.603 6.04C194.483 6.12 194.376 6.2 194.283 6.28C194.203 6.34667 194.109 6.41333 194.003 6.48V19.84L194.923 19.7L192.883 21.28C192.629 21.4933 192.469 21.62 192.403 21.66C192.389 21.6867 192.249 21.7933 191.983 21.98C191.716 22.1667 191.529 22.26 191.423 22.26ZM192.043 19.84V6.88C191.496 6.78667 190.976 6.60667 190.483 6.34C190.003 6.07333 189.529 5.78 189.063 5.46C189.063 14.3533 189.056 18.8067 189.043 18.82C189.803 18.9667 190.536 19.2267 191.243 19.6C191.469 19.72 191.736 19.8 192.043 19.84ZM186.683 18.92L186.183 18.08V6.72L186.683 5.84V18.92ZM199.495 20.12L198.995 19.28V8.2L199.495 7.32V20.12ZM202.655 22.32H202.635C201.569 21.5333 200.375 21.14 199.055 21.14H198.915C198.929 21.14 198.955 21.12 198.995 21.08L199.195 20.92C199.662 20.5867 199.895 20.4133 199.895 20.4C199.909 20.4 199.922 20.4 199.935 20.4V6.78H198.155C197.409 6.9 196.742 7.23333 196.155 7.78L195.835 8.08H195.755L196.535 6.44C196.722 6.05333 196.889 5.76 197.035 5.56C197.302 5.02667 197.529 4.76 197.715 4.76H204.555C204.889 4.73333 205.202 4.65333 205.495 4.52C206.029 4.26667 206.462 3.97333 206.795 3.64L206.975 3.46H207.055L206.255 5.14L206.215 5.22C206.042 5.56667 205.895 5.82 205.775 5.98C205.509 6.51333 205.282 6.78 205.095 6.78H201.895V19.82C202.469 19.9 203.015 20.0733 203.535 20.34C203.695 20.3933 203.875 20.42 204.075 20.42C204.262 20.42 204.449 20.4133 204.635 20.4C204.822 20.3867 204.975 20.3667 205.095 20.34L205.275 20.32C204.182 21.2 203.622 21.6467 203.595 21.66C203.569 21.6867 203.315 21.88 202.835 22.24C202.742 22.2933 202.682 22.32 202.655 22.32ZM212.505 22.26C212.465 22.26 212.285 22.1533 211.965 21.94C211.218 21.4467 210.425 21.0067 209.585 20.62C208.931 20.3267 208.271 20.18 207.605 20.18C207.405 20.18 207.198 20.1933 206.985 20.22C206.945 20.22 206.925 20.2133 206.925 20.2C206.925 20.1733 206.951 20.1333 207.005 20.08C207.005 20.0667 207.011 20.06 207.025 20.06C207.198 19.8467 207.378 19.6933 207.565 19.6C207.711 19.4533 207.911 19.3 208.165 19.14V5.62C208.165 5.55333 208.231 5.46 208.365 5.34C208.511 5.22 208.745 5.04667 209.065 4.82L209.305 4.68C209.705 4.46667 209.958 4.32667 210.065 4.26C210.171 4.19333 210.231 4.15333 210.245 4.14C210.271 4.11333 210.305 4.08667 210.345 4.06C210.438 3.98 210.551 3.89333 210.685 3.8C210.938 3.62667 211.125 3.54 211.245 3.54C211.298 3.54 211.578 3.71333 212.085 4.06C212.698 4.5 213.331 4.87333 213.985 5.18C214.465 5.40667 214.978 5.52 215.525 5.52C215.738 5.52 215.951 5.50667 216.165 5.48C216.205 5.48 216.225 5.48667 216.225 5.5L216.145 5.64H216.125C216.005 5.78667 215.858 5.92 215.685 6.04C215.565 6.12 215.458 6.2 215.365 6.28C215.285 6.34667 215.191 6.41333 215.085 6.48V19.84L216.005 19.7L213.965 21.28C213.711 21.4933 213.551 21.62 213.485 21.66C213.471 21.6867 213.331 21.7933 213.065 21.98C212.798 22.1667 212.611 22.26 212.505 22.26ZM213.125 19.84V6.88C212.578 6.78667 212.058 6.60667 211.565 6.34C211.085 6.07333 210.611 5.78 210.145 5.46C210.145 14.3533 210.138 18.8067 210.125 18.82C210.885 18.9667 211.618 19.2267 212.325 19.6C212.551 19.72 212.818 19.8 213.125 19.84ZM207.765 18.92L207.265 18.08V6.72L207.765 5.84V18.92ZM218.237 18.92L217.737 18.08V6.72L218.237 5.84V18.92ZM222.277 22.26C222.237 22.26 221.977 22.0867 221.497 21.74C220.124 20.7 218.957 20.18 217.997 20.18C217.824 20.18 217.644 20.1933 217.457 20.22C217.417 20.22 217.397 20.2133 217.397 20.2C217.397 20.1733 217.424 20.1333 217.477 20.08C217.477 20.0667 217.484 20.06 217.497 20.06C217.671 19.8467 217.851 19.6933 218.037 19.6L218.217 19.44L218.637 19.14V5.62C218.637 5.55333 218.704 5.46 218.837 5.34C218.984 5.22 219.217 5.04667 219.537 4.82L220.157 4.48C220.291 4.4 220.404 4.34 220.497 4.3L221.077 3.86C221.384 3.63333 221.564 3.52 221.617 3.52C222.484 4.24 223.197 4.76667 223.757 5.1C224.264 5.39333 224.804 5.54 225.377 5.54L225.657 5.52C225.631 5.52 225.597 5.54 225.557 5.58C225.531 5.60667 225.497 5.64 225.457 5.68C225.431 5.70667 225.404 5.72667 225.377 5.74L223.997 6.7C223.931 6.76667 223.831 6.83333 223.697 6.9L223.397 6.92C222.544 6.92 221.617 6.50667 220.617 5.68V18.86C221.284 19.0333 221.924 19.3267 222.537 19.74L222.577 19.76C222.831 19.88 223.104 19.9667 223.397 20.02V12.54H221.617C221.631 12.54 221.644 12.5333 221.657 12.52C221.671 12.4933 221.684 12.4667 221.697 12.44C221.724 12.4133 221.744 12.3867 221.757 12.36C221.771 12.3333 221.784 12.32 221.797 12.32L222.197 11.78L222.457 11.36C222.631 11.12 222.737 11 222.777 11H226.417L226.397 11.02C226.371 11.0467 226.351 11.08 226.337 11.12C226.324 11.1467 226.304 11.1733 226.277 11.2C226.264 11.2133 226.257 11.2267 226.257 11.24C226.124 11.4267 225.984 11.6067 225.837 11.78L225.357 12.48C225.357 17.4267 225.351 19.9133 225.337 19.94C225.324 19.98 225.291 20.02 225.237 20.06C225.197 20.1 225.157 20.1333 225.117 20.16C224.731 20.4933 224.484 20.68 224.377 20.72L224.117 20.94C224.011 21.0733 223.797 21.26 223.477 21.5C223.157 21.7533 222.951 21.9133 222.857 21.98C222.604 22.1667 222.411 22.26 222.277 22.26ZM228.644 19.98L228.144 19.14V7.18L228.644 6.28V19.98ZM230.944 22.32H230.924C229.857 21.5333 228.664 21.14 227.344 21.14H227.204C227.244 21.14 227.317 21.0867 227.424 20.98L228.184 20.44C228.411 20.2667 228.644 20.1067 228.884 19.96C228.884 19.9467 228.891 19.9333 228.904 19.92C228.917 19.92 228.937 19.9067 228.964 19.88C229.004 19.8667 229.037 19.8467 229.064 19.82V5.58L227.064 5.04C227.064 5.02667 227.084 4.99333 227.124 4.94C227.177 4.88667 227.217 4.84667 227.244 4.82C227.271 4.78 227.291 4.76 227.304 4.76C227.517 4.57333 227.737 4.4 227.964 4.24L228.104 4.12C228.531 3.81333 228.831 3.66 229.004 3.66C229.057 3.66 230.171 3.96 232.344 4.56L235.664 5.46L235.644 5.48V7.86C235.644 7.92667 235.571 8.02 235.424 8.14L234.644 8.74C234.004 9.22 233.371 9.71333 232.744 10.22L232.084 10.74C233.471 10.8067 234.751 11.2333 235.924 12.02V17.88L236.904 18.38C236.904 18.3933 236.864 18.4333 236.784 18.5C236.544 18.7267 236.344 18.9067 236.184 19.04C236.077 19.12 236.011 19.1667 235.984 19.18C235.971 19.2067 235.831 19.3133 235.564 19.5C235.297 19.6867 235.111 19.78 235.004 19.78C234.977 19.78 234.797 19.6933 234.464 19.52C234.131 19.3467 233.804 19.1733 233.484 19L233.004 18.76C233.004 18.72 233.137 18.5867 233.404 18.36C233.524 18.2667 233.631 18.18 233.724 18.1C233.831 18.0067 233.911 17.9467 233.964 17.92V13.4C233.057 12.7867 232.077 12.3933 231.024 12.22V20.02C231.624 20.2067 232.197 20.5 232.744 20.9C232.717 20.9 232.617 20.9867 232.444 21.16C232.364 21.24 232.284 21.3133 232.204 21.38C232.137 21.4467 232.077 21.5067 232.024 21.56C231.984 21.6267 231.804 21.7667 231.484 21.98C231.351 22.0733 231.231 22.1533 231.124 22.22C231.031 22.2867 230.971 22.32 230.944 22.32ZM231.024 10.82L231.844 10.16C232.457 9.66667 233.071 9.18667 233.684 8.72V6.84L231.024 6.12V10.82ZM239.857 22.48L237.417 21.2H237.977C238.364 21.2 238.724 21.16 239.057 21.08C239.644 20.92 239.937 20.64 239.937 20.24V5.84C239.71 5.73333 239.477 5.63333 239.237 5.54C238.984 5.47333 238.73 5.44 238.477 5.44C238.117 5.44 237.75 5.50667 237.377 5.64C237.35 5.64 237.337 5.64 237.337 5.64C237.337 5.62667 237.337 5.61333 237.337 5.6V5.58C237.337 5.56667 237.35 5.55333 237.377 5.54C237.39 5.51333 237.397 5.49333 237.397 5.48H237.417C237.59 5.26667 237.77 5.11333 237.957 5.02L238.097 4.9C238.35 4.7 238.617 4.52667 238.897 4.38L239.177 4.16C239.324 4.05333 239.477 3.95333 239.637 3.86C239.797 3.75333 239.957 3.7 240.117 3.7L241.197 4.16C241.304 4.18667 241.404 4.22667 241.497 4.28C243.164 5.02667 244.81 5.82 246.437 6.66H246.457L246.437 6.68V17.88L247.417 18.38C247.417 18.3933 247.377 18.44 247.297 18.52C247.217 18.5867 247.117 18.6733 246.997 18.78C246.89 18.8733 246.784 18.96 246.677 19.04C246.584 19.12 246.524 19.1667 246.497 19.18C246.484 19.2067 246.444 19.24 246.377 19.28C246.31 19.3333 246.21 19.4 246.077 19.48C245.957 19.5733 245.844 19.6467 245.737 19.7C245.644 19.7533 245.57 19.78 245.517 19.78C245.49 19.78 245.31 19.6933 244.977 19.52C244.644 19.3467 244.317 19.1733 243.997 19L243.517 18.76C243.517 18.7467 243.55 18.7067 243.617 18.64C243.697 18.56 243.79 18.4733 243.897 18.38C244.017 18.2733 244.124 18.18 244.217 18.1C244.324 18.02 244.384 17.9733 244.397 17.96C244.424 17.9467 244.45 17.9333 244.477 17.92V12.64H241.917V20.58C241.917 20.9933 241.817 21.32 241.617 21.56C241.43 21.8133 241.177 22.0067 240.857 22.14C240.55 22.2867 240.217 22.4 239.857 22.48ZM244.477 11.6V8.04L241.917 6.76V11.6H244.477ZM239.517 20.24L239.017 19.4V7.18L239.517 6.28V20.24ZM251.826 22.32H251.806C251.233 21.9067 250.613 21.6 249.946 21.4H249.926V21.38C249.366 21.22 248.8 21.14 248.226 21.14H248.086C248.113 21.14 248.18 21.0867 248.286 20.98L249.746 19.96C249.746 19.9467 249.76 19.9333 249.786 19.92C249.826 19.9067 249.873 19.8733 249.926 19.82V5.68C249.926 5.64 249.94 5.60667 249.966 5.58L248.306 4.62L249.946 3.64C250.026 3.6 250.1 3.58 250.166 3.58C250.246 3.58 250.32 3.6 250.386 3.64L251.626 4.42C251.706 4.38 251.8 4.32 251.906 4.24C252.013 4.16 252.08 4.11333 252.106 4.1C252.133 4.08667 252.173 4.06 252.226 4.02C252.32 3.94 252.433 3.85333 252.566 3.76C252.873 3.53333 253.053 3.42 253.106 3.42C253.866 4.06 254.6 4.57333 255.306 4.96C255.813 5.24 256.36 5.38 256.946 5.38L257.246 5.36C257.22 5.36 257.18 5.38667 257.126 5.44C257.086 5.48 256.8 5.69333 256.266 6.08L255.566 6.56L255.446 6.66C255.353 6.72667 255.193 6.76 254.966 6.76C254.433 6.76 253.913 6.63333 253.406 6.38C252.9 6.11333 252.393 5.78 251.886 5.38V11H255.566L255.406 11.24C255.166 11.5867 255.006 11.8067 254.926 11.9C254.86 11.9933 254.8 12.0867 254.746 12.18C254.586 12.42 254.48 12.54 254.426 12.54H251.886V20.02C252.166 20.1 252.44 20.2067 252.706 20.34C252.866 20.3933 253.04 20.42 253.226 20.42C253.426 20.42 253.613 20.4133 253.786 20.4C253.973 20.3867 254.126 20.3667 254.246 20.34L254.426 20.32C253.346 21.2 252.8 21.6467 252.786 21.66C252.773 21.6733 252.633 21.78 252.366 21.98C252.046 22.2067 251.866 22.32 251.826 22.32ZM249.506 18.92L249.006 18.08V6.72L249.506 5.84V18.92ZM259.379 19.56L258.879 18.72V7.28L259.379 6.4V19.56ZM261.799 22.32H261.779C260.713 21.5333 259.519 21.14 258.199 21.14H258.059C258.073 21.14 258.099 21.12 258.139 21.08L258.339 20.92L259.019 20.44C259.486 20.1067 259.733 19.94 259.759 19.94C259.773 19.9133 259.799 19.8867 259.839 19.86C259.839 10.54 259.846 5.86667 259.859 5.84L259.459 5.66C259.206 5.59333 258.946 5.56 258.679 5.56C258.359 5.56 258.046 5.58667 257.739 5.64C258.806 4.77333 259.346 4.33333 259.359 4.32C259.373 4.29333 259.419 4.26 259.499 4.22C260.019 3.82 260.326 3.6 260.419 3.56C261.619 4.44 262.959 4.89333 264.439 4.92C264.426 4.92 264.406 4.93333 264.379 4.96C264.366 4.97333 264.346 4.98667 264.319 5C263.786 5.4 263.259 5.77333 262.739 6.12L262.719 6.14C262.653 6.19333 262.599 6.23333 262.559 6.26C262.519 6.27333 262.493 6.28667 262.479 6.3C262.466 6.31333 262.453 6.32 262.439 6.32L261.799 6.3V20C262.106 20.0933 262.399 20.2067 262.679 20.34C262.839 20.3933 263.019 20.42 263.219 20.42C263.406 20.42 263.593 20.4133 263.779 20.4C263.966 20.3867 264.119 20.3667 264.239 20.34L264.419 20.32C263.326 21.2 262.766 21.6467 262.739 21.66C262.713 21.6867 262.459 21.88 261.979 22.24C261.886 22.2933 261.826 22.32 261.799 22.32Z" fill="black"/>
<path d="M186.917 34.5979C186.905 34.5979 186.791 34.5201 186.574 34.3645C186.298 34.161 186.01 33.9845 185.709 33.8351C185.481 33.7215 185.244 33.665 184.998 33.6654C184.92 33.6656 184.839 33.6717 184.755 33.6839C184.737 33.6839 184.728 33.6809 184.728 33.6749L184.764 33.6118C184.824 33.5457 184.893 33.4856 184.971 33.4315C184.983 33.4194 184.998 33.4104 185.016 33.4044C185.081 33.3383 185.171 33.2691 185.285 33.1969L185.274 27.1309C185.178 27.1011 185.073 27.0863 184.959 27.0865C184.827 27.0867 184.695 27.099 184.563 27.1232C185.006 26.7324 185.231 26.534 185.237 26.528C185.249 26.5159 185.27 26.5009 185.3 26.4828C185.522 26.3024 185.653 26.2032 185.695 26.1851C186.206 26.5802 186.773 26.7831 187.397 26.794L187.02 27.0827C186.912 27.1669 186.798 27.2511 186.678 27.3353C186.631 27.3714 186.601 27.3924 186.589 27.3985C186.583 27.4045 186.574 27.4105 186.562 27.4165C186.556 27.4225 186.52 27.4256 186.454 27.4257C186.358 27.4259 186.262 27.4201 186.166 27.4082C186.173 31.1762 186.173 33.0632 186.167 33.0693C186.473 33.1467 186.764 33.2782 187.041 33.4636L187.05 33.4726C187.266 33.5742 187.512 33.6248 187.788 33.6243C187.908 33.624 188.025 33.6118 188.139 33.5876L188.301 33.5513L187.753 34.0023C187.723 34.0384 187.681 34.0805 187.627 34.1286C187.489 34.2428 187.402 34.309 187.366 34.327C187.336 34.3571 187.273 34.4022 187.178 34.4624C187.046 34.5526 186.959 34.5978 186.917 34.5979ZM185.105 33.0982L184.87 32.7206L184.861 27.6626L185.094 27.2662L185.105 33.0982ZM188.297 33.2543C188.285 33.2544 188.203 33.2155 188.053 33.1378L187.828 33.0212L187.387 32.806C187.387 32.8 187.405 32.779 187.441 32.7429C187.477 32.7068 187.518 32.6678 187.566 32.6257C187.62 32.5776 187.668 32.5355 187.71 32.4994C187.758 32.4633 187.785 32.4423 187.791 32.4363C187.803 32.4302 187.815 32.4242 187.827 32.4182L187.821 29.2592L187.38 29.044C187.38 29.038 187.398 29.017 187.434 28.9809C187.512 28.9028 187.604 28.8216 187.712 28.7374C187.754 28.7013 187.778 28.6803 187.784 28.6743C187.796 28.6682 187.859 28.6231 187.973 28.5389C188.087 28.4547 188.174 28.4126 188.234 28.4124C188.246 28.4124 188.327 28.4513 188.477 28.529L188.702 28.6366L189.143 28.8608C189.143 28.8668 189.126 28.8848 189.09 28.9149C188.982 29.0171 188.892 29.0982 188.82 29.1584L188.703 29.2486L188.709 32.3986L189.15 32.6228C189.15 32.6288 189.132 32.6468 189.096 32.6769C188.917 32.8452 188.782 32.9594 188.692 33.0196L188.548 33.1279C188.44 33.2121 188.357 33.2542 188.297 33.2543ZM188.377 27.9892C188.047 27.9718 187.741 27.8703 187.458 27.6849L187.512 27.6398C187.542 27.6217 187.566 27.6037 187.584 27.5856L187.89 27.3601C187.908 27.348 187.977 27.2969 188.096 27.2067C188.222 27.1105 188.3 27.0623 188.33 27.0623L188.339 27.0622C188.621 27.2477 188.928 27.3492 189.258 27.3666C189.252 27.3726 189.24 27.3816 189.222 27.3936C189.204 27.4057 189.177 27.4297 189.141 27.4658L188.467 27.944C188.425 27.9741 188.395 27.9891 188.377 27.9892ZM191.541 34.7874C191.529 34.7874 191.52 34.7844 191.514 34.7784C191.268 34.5449 190.961 34.4284 190.595 34.4291C190.379 34.4295 190.167 34.4629 189.957 34.5293C189.945 34.5293 189.939 34.5263 189.939 34.5203C189.939 34.5203 189.939 34.5173 189.939 34.5113L189.939 34.5023C189.939 34.4963 189.942 34.4873 189.948 34.4753C189.96 34.4693 189.966 34.4633 189.966 34.4573L189.975 34.4572C190.028 34.3911 190.094 34.331 190.172 34.2769L190.271 34.2047C190.571 33.9401 190.945 33.8075 191.395 33.8066C191.563 33.8063 191.731 33.827 191.899 33.8687L191.897 32.7797L191.673 32.9601C191.631 32.9902 191.58 33.0263 191.52 33.0684C191.466 33.1105 191.415 33.1406 191.367 33.1587C191.325 33.1828 191.292 33.1948 191.268 33.1949L191.232 33.1859C190.692 32.8209 190.232 32.6388 189.854 32.6395C189.782 32.6396 189.707 32.6457 189.629 32.6579C189.611 32.6579 189.602 32.6549 189.602 32.6489C189.602 32.6369 189.608 32.6279 189.62 32.6219C189.626 32.6099 189.632 32.5979 189.638 32.5859C189.71 32.5017 189.794 32.4266 189.89 32.3604C189.986 32.2942 190.039 32.2551 190.051 32.2431L190.046 29.4081C190.046 29.3721 190.073 29.3361 190.127 29.3L190.154 29.2819C190.304 29.1496 190.445 29.0474 190.576 28.9751C190.75 28.8728 190.864 28.8096 190.918 28.7855C190.96 28.7554 191.002 28.7223 191.044 28.6863C191.092 28.6442 191.134 28.6081 191.17 28.578L191.278 28.4878C191.355 28.4277 191.46 28.3615 191.592 28.2893C191.622 28.2772 191.649 28.2712 191.673 28.2711L191.709 28.28C192.19 28.5972 192.718 28.7792 193.294 28.8261C193.312 28.8261 193.321 28.8291 193.321 28.8351C193.321 28.8471 193.306 28.8681 193.276 28.8982C193.222 28.9643 193.157 29.0214 193.079 29.0695L193.034 29.1056C192.95 29.1718 192.863 29.2319 192.773 29.2861L192.782 33.9031C192.782 33.9211 192.755 33.9571 192.701 34.0112C192.587 34.1254 192.407 34.2518 192.161 34.3902C192.119 34.4263 192.081 34.4534 192.045 34.4714C192.015 34.4955 191.994 34.5135 191.982 34.5256C191.97 34.5376 191.913 34.5767 191.811 34.6429C191.679 34.7391 191.589 34.7873 191.541 34.7874ZM191.897 32.4287L191.891 29.3597C191.549 29.2763 191.231 29.1449 190.936 28.9655L190.942 32.0345C191.278 32.1058 191.596 32.2373 191.897 32.4287ZM195.134 33.2867L195.107 33.2778C194.885 33.1102 194.651 32.9636 194.404 32.8381C194.164 32.7125 193.903 32.65 193.621 32.6505C193.603 32.6506 193.594 32.6476 193.594 32.6416C193.594 32.6356 193.597 32.6296 193.603 32.6236C193.603 32.6176 193.612 32.6025 193.63 32.5785C193.69 32.5124 193.759 32.4523 193.837 32.3981L193.971 32.2989L193.969 31.1019C193.969 31.0779 193.978 31.0569 193.996 31.0388C194.038 30.9968 194.062 30.9757 194.068 30.9757C194.206 30.8435 194.331 30.7472 194.445 30.687L194.58 30.6148C194.67 30.5366 194.763 30.4644 194.859 30.3982C194.871 30.3922 194.889 30.3772 194.913 30.3531C195.104 30.2148 195.233 30.1456 195.299 30.1454C195.317 30.1454 195.53 30.214 195.939 30.3513L195.937 29.6493C195.799 29.5775 195.61 29.4909 195.37 29.3893C195.022 29.2399 194.731 29.1655 194.497 29.1659C194.443 29.166 194.371 29.1691 194.281 29.1753C194.197 29.1815 194.116 29.1906 194.038 29.2028L193.912 29.221L195.008 28.391L195.287 28.4985C195.473 28.5701 195.705 28.6357 195.981 28.6952C196.227 28.7547 196.479 28.7843 196.737 28.7838L196.809 28.7837C196.821 28.7836 196.828 29.4106 196.83 30.6646L196.824 32.1136L197.356 32.4637L197.356 32.4727C197.356 32.4847 197.341 32.5057 197.311 32.5357L197.041 32.7702C196.927 32.8604 196.79 32.9477 196.628 33.032L196.583 33.0591C196.547 33.0771 196.517 33.0862 196.493 33.0862C196.487 33.0863 196.301 32.9666 195.934 32.7273L195.808 32.8445C195.635 32.9828 195.497 33.0851 195.395 33.1513C195.263 33.2415 195.176 33.2867 195.134 33.2867ZM195.402 32.2782L195.42 32.2602C195.48 32.1941 195.546 32.134 195.618 32.0799L195.663 32.0438L195.942 31.8543L195.94 31.2873L194.851 30.9023L194.853 32.0633C195.045 32.1109 195.228 32.1826 195.402 32.2782ZM202.579 34.596L202.57 34.5961C202.312 34.4105 202.032 34.273 201.732 34.1836L201.723 34.1836L201.723 34.1746C201.471 34.1031 201.216 34.0675 200.958 34.068L200.895 34.0681C200.907 34.0681 200.937 34.0441 200.985 33.996L201.641 33.5358C201.641 33.5298 201.647 33.5238 201.659 33.5177C201.677 33.5117 201.698 33.4967 201.722 33.4726L201.71 27.1096C201.71 27.0916 201.716 27.0766 201.728 27.0646L200.98 26.634L201.718 26.1916C201.754 26.1735 201.786 26.1645 201.816 26.1644C201.852 26.1644 201.886 26.1733 201.916 26.1912L202.474 26.5412C202.51 26.5232 202.552 26.4961 202.6 26.46C202.648 26.4239 202.678 26.4028 202.69 26.3968C202.702 26.3908 202.72 26.3788 202.744 26.3607C202.786 26.3246 202.837 26.2856 202.897 26.2434C203.034 26.1412 203.115 26.09 203.139 26.09C203.482 26.3774 203.812 26.6078 204.131 26.7812C204.359 26.9067 204.605 26.9693 204.869 26.9688L205.004 26.9596C204.992 26.9596 204.974 26.9716 204.95 26.9957C204.932 27.0137 204.803 27.1099 204.564 27.2844L204.249 27.501L204.195 27.5461C204.153 27.5761 204.081 27.5913 203.979 27.5914C203.739 27.5919 203.505 27.5353 203.277 27.4217C203.049 27.3022 202.82 27.1526 202.592 26.973L202.597 29.502L204.253 29.4989L204.181 29.6071C204.073 29.7633 204.001 29.8624 203.965 29.9045C203.935 29.9465 203.909 29.9886 203.885 30.0306C203.813 30.1388 203.765 30.1928 203.741 30.1929L202.598 30.195L202.604 33.561C202.73 33.5968 202.853 33.6445 202.973 33.7043C203.045 33.7282 203.123 33.74 203.207 33.7399C203.297 33.7397 203.381 33.7366 203.459 33.7304C203.543 33.7243 203.612 33.7151 203.666 33.703L203.747 33.6939C203.262 34.0908 203.016 34.2922 203.01 34.2982C203.004 34.3043 202.942 34.3524 202.822 34.4426C202.678 34.5449 202.597 34.596 202.579 34.596ZM201.532 33.068L201.307 32.6904L201.297 27.5784L201.521 27.182L201.532 33.068ZM206.094 33.2216C206.082 33.2216 206.001 33.1827 205.851 33.105L205.626 32.9884L205.185 32.7732C205.185 32.7672 205.202 32.7462 205.238 32.7101C205.274 32.6741 205.316 32.635 205.364 32.5929C205.418 32.5448 205.466 32.5027 205.508 32.4666C205.556 32.4306 205.583 32.4095 205.589 32.4035C205.601 32.3975 205.613 32.3915 205.625 32.3854L205.619 29.2264L205.178 29.0112C205.178 29.0052 205.196 28.9842 205.231 28.9481C205.309 28.87 205.402 28.7888 205.51 28.7046C205.552 28.6686 205.576 28.6475 205.582 28.6415C205.594 28.6355 205.657 28.5904 205.771 28.5062C205.885 28.4219 205.971 28.3798 206.031 28.3797C206.043 28.3797 206.125 28.4185 206.275 28.4962L206.5 28.6038L206.941 28.828C206.941 28.834 206.923 28.852 206.887 28.8821C206.78 28.9843 206.69 29.0655 206.618 29.1256L206.501 29.2158L206.507 32.3658L206.948 32.59C206.948 32.596 206.93 32.614 206.894 32.6441C206.715 32.8124 206.58 32.9267 206.49 32.9868L206.346 33.0951C206.238 33.1793 206.154 33.2215 206.094 33.2216ZM206.175 27.9564C205.845 27.939 205.538 27.8376 205.256 27.6521L205.31 27.607C205.34 27.5889 205.364 27.5709 205.382 27.5529L205.688 27.3273C205.705 27.3153 205.774 27.2641 205.894 27.1739C206.02 27.0777 206.098 27.0295 206.128 27.0295L206.137 27.0295C206.419 27.215 206.725 27.3164 207.056 27.3338C207.05 27.3398 207.038 27.3488 207.02 27.3609C207.002 27.3729 206.975 27.3969 206.939 27.433L206.265 27.9112C206.223 27.9413 206.193 27.9564 206.175 27.9564ZM208.688 33.3068C208.508 33.1871 208.319 33.0855 208.121 33.0018C207.929 32.9182 207.76 32.8525 207.616 32.8048L207.4 32.7332L207.895 32.4082L207.886 27.6473C207.886 27.6233 207.895 27.6022 207.913 27.5842C207.955 27.5421 207.979 27.5211 207.985 27.5211C208.08 27.4309 208.182 27.3497 208.29 27.2775L208.38 27.2233C208.62 27.0909 208.749 27.0247 208.767 27.0246L208.777 32.4336L208.795 32.4336C208.939 32.4873 209.083 32.5141 209.227 32.5138C209.365 32.5135 209.482 32.5013 209.578 32.4772L209.722 32.4499L208.688 33.3068ZM214.612 33.2959C214.432 33.1762 214.243 33.0746 214.044 32.9909C213.846 32.9073 213.678 32.8416 213.54 32.7939L213.324 32.7223L213.836 32.3793L213.831 29.4003C213.603 29.3227 213.386 29.2151 213.182 29.0775L213.137 29.1136L213.142 31.6156C213.142 31.6576 213.112 31.6936 213.052 31.7238C212.92 31.856 212.732 31.9883 212.486 32.1208C212.348 32.199 212.27 32.2382 212.252 32.2382L212.247 29.3312C212.025 29.2536 211.823 29.14 211.643 28.9903L211.382 29.2068L211.388 32.3568L211.83 32.581C211.83 32.587 211.812 32.605 211.776 32.6351C211.596 32.8034 211.461 32.9177 211.371 32.9778L211.228 33.0861C211.12 33.1703 211.036 33.2125 210.976 33.2126C210.964 33.2126 210.883 33.1737 210.733 33.096L210.507 32.9794L210.066 32.7643C210.066 32.7583 210.084 32.7372 210.12 32.7012C210.156 32.6651 210.198 32.626 210.246 32.5839C210.3 32.5358 210.347 32.4937 210.389 32.4577C210.437 32.4216 210.464 32.4005 210.47 32.3945C210.482 32.3885 210.494 32.3825 210.506 32.3764L210.5 29.2174L210.059 29.0023C210.059 28.9963 210.077 28.9752 210.113 28.9392C210.191 28.861 210.284 28.7798 210.391 28.6956C210.433 28.6596 210.457 28.6385 210.463 28.6325C210.475 28.6265 210.538 28.5814 210.652 28.4972C210.766 28.413 210.853 28.3708 210.913 28.3707C210.925 28.3707 211.006 28.4095 211.156 28.4872L211.381 28.5948L211.616 28.7114C211.675 28.6633 211.732 28.6182 211.786 28.5761C211.846 28.534 211.879 28.5099 211.885 28.5039C211.897 28.4919 211.966 28.4437 212.092 28.3595C212.218 28.2753 212.302 28.2331 212.344 28.2331C212.356 28.233 212.365 28.236 212.371 28.242C212.569 28.4276 212.791 28.5712 213.037 28.6728C213.145 28.5766 213.229 28.5134 213.289 28.4833C213.307 28.4653 213.367 28.4202 213.469 28.348C213.601 28.2577 213.688 28.2126 213.73 28.2125C213.748 28.2125 213.76 28.2154 213.766 28.2214C214.036 28.4669 214.342 28.6494 214.685 28.7687L214.721 28.7597L214.721 28.7777C214.859 28.8254 215.003 28.8582 215.153 28.8759C215.165 28.8759 215.171 28.8788 215.171 28.8848C215.171 28.9028 215.165 28.9179 215.153 28.9299C215.141 28.9359 215.135 28.9419 215.135 28.9479C215.063 29.032 214.925 29.1403 214.722 29.2727L214.727 32.4317C214.871 32.4794 215.013 32.5031 215.151 32.5029C215.289 32.5026 215.405 32.4904 215.501 32.4662L215.645 32.439L214.612 33.2959ZM220.844 34.5624L220.835 34.5624C220.354 34.2093 219.817 34.0333 219.223 34.0344L219.16 34.0345C219.172 34.0345 219.201 34.0104 219.249 33.9623L219.285 33.9353C219.615 33.7007 219.825 33.5563 219.915 33.5021C219.915 33.4961 219.918 33.4901 219.924 33.4841C219.93 33.4841 219.939 33.4781 219.95 33.4661C219.962 33.46 219.974 33.451 219.986 33.439L219.975 27.085L219.155 26.6185L219.901 26.1581C219.937 26.1341 219.973 26.122 220.009 26.1219C220.045 26.1219 220.078 26.1338 220.108 26.1578L220.676 26.5077L220.685 26.5077C220.715 26.4836 220.742 26.4626 220.766 26.4445C220.79 26.4205 220.858 26.3664 220.972 26.2822C221.092 26.1919 221.182 26.1468 221.242 26.1467C221.26 26.1466 221.638 26.3199 222.377 26.6666C222.413 26.6305 222.452 26.5944 222.494 26.5584C222.542 26.5223 222.581 26.4892 222.611 26.4591C222.682 26.399 222.772 26.3328 222.88 26.2606C222.988 26.1824 223.066 26.1433 223.114 26.1432C223.126 26.1432 223.363 26.2538 223.826 26.4749L224.519 26.8066L224.53 32.5576L224.962 32.7818C224.962 32.7998 224.902 32.8569 224.783 32.9532L224.639 33.0794C224.537 33.1696 224.393 33.2719 224.207 33.3862C224.171 33.4043 224.141 33.4133 224.117 33.4134C224.105 33.4134 224.024 33.3746 223.874 33.2968L223.649 33.1802L223.208 32.9561L223.261 32.902C223.297 32.8659 223.339 32.8268 223.387 32.7847C223.441 32.7366 223.489 32.6945 223.531 32.6585C223.579 32.6224 223.606 32.6013 223.612 32.5953C223.624 32.5893 223.636 32.5833 223.648 32.5772L223.638 27.4293L222.702 26.981L222.709 31.121C222.709 31.145 222.7 31.166 222.682 31.184C222.664 31.2021 222.646 31.2201 222.628 31.2381C222.557 31.3103 222.449 31.3945 222.305 31.4907L222.053 31.6352C221.993 31.6713 221.942 31.6984 221.9 31.7165C221.858 31.7345 221.834 31.7436 221.828 31.7436L221.82 27.4326L220.866 26.9934L220.878 33.5273C221.004 33.5631 221.124 33.6109 221.238 33.6707C221.31 33.6946 221.391 33.7064 221.481 33.7062C221.565 33.7061 221.649 33.7029 221.733 33.6968C221.817 33.6906 221.886 33.6815 221.94 33.6694L222.021 33.6602L221.23 34.3007L220.924 34.5263C220.882 34.5503 220.856 34.5624 220.844 34.5624ZM219.806 33.0343L219.571 32.6568L219.562 27.5448L219.795 27.1483L219.806 33.0343ZM226.956 33.2282L226.929 33.2192C226.706 33.0516 226.472 32.905 226.226 32.7795C225.986 32.6539 225.725 32.5914 225.443 32.5919C225.425 32.592 225.416 32.589 225.416 32.583C225.416 32.577 225.419 32.571 225.425 32.565C225.425 32.559 225.434 32.544 225.451 32.5199C225.511 32.4538 225.58 32.3937 225.658 32.3395L225.793 32.2403L225.791 31.0433C225.791 31.0193 225.8 30.9983 225.818 30.9802C225.86 30.9382 225.884 30.9171 225.89 30.9171C226.027 30.7849 226.153 30.6886 226.267 30.6284L226.402 30.5562C226.492 30.478 226.585 30.4058 226.68 30.3397C226.692 30.3336 226.71 30.3186 226.734 30.2946C226.926 30.1562 227.055 30.087 227.121 30.0868C227.139 30.0868 227.352 30.1554 227.76 30.2927L227.759 29.5907C227.621 29.5189 227.432 29.4323 227.192 29.3307C226.843 29.1814 226.552 29.1069 226.318 29.1073C226.264 29.1074 226.192 29.1106 226.102 29.1167C226.018 29.1229 225.937 29.132 225.859 29.1442L225.733 29.1624L226.83 28.3324L227.109 28.4399C227.295 28.5115 227.526 28.5771 227.802 28.6366C228.048 28.6961 228.3 28.7257 228.558 28.7252L228.63 28.7251C228.642 28.725 228.65 29.352 228.652 30.606L228.646 32.055L229.177 32.4051L229.177 32.4141C229.177 32.4261 229.162 32.4471 229.132 32.4771L228.863 32.7116C228.749 32.8019 228.611 32.8891 228.449 32.9734L228.404 33.0005C228.368 33.0186 228.338 33.0276 228.314 33.0277C228.308 33.0277 228.122 32.908 227.756 32.6687L227.63 32.7859C227.456 32.9242 227.318 33.0265 227.217 33.0927C227.085 33.1829 226.998 33.2281 226.956 33.2282ZM227.224 32.2197L227.242 32.2016C227.302 32.1355 227.368 32.0754 227.44 32.0213L227.484 31.9852L227.763 31.7957L227.762 31.2287L226.672 30.8437L226.675 32.0047C226.867 32.0523 227.05 32.124 227.224 32.2197ZM232.844 34.1443C232.658 34.1207 232.463 34.037 232.259 33.8934C232.055 33.7558 231.952 33.621 231.952 33.489L231.945 29.286C231.698 29.2144 231.464 29.1128 231.242 28.9813L230.909 29.2159L230.915 32.3209L231.348 32.5451C231.348 32.5631 231.288 32.6202 231.168 32.7164C231.114 32.7645 231.063 32.8096 231.015 32.8517C230.967 32.8878 230.925 32.9208 230.889 32.9509C230.853 32.975 230.808 33.0081 230.754 33.0502C230.641 33.1344 230.557 33.1765 230.503 33.1766C230.491 33.1766 230.407 33.1378 230.25 33.0601C230.1 32.9824 229.953 32.9076 229.809 32.8359L229.593 32.7283C229.593 32.7043 229.653 32.6412 229.773 32.539C229.826 32.4969 229.874 32.4578 229.916 32.4217C229.964 32.3796 230 32.3525 230.024 32.3405L230.015 27.6065C230.015 27.5825 230.024 27.5615 230.042 27.5435C230.084 27.5014 230.111 27.4803 230.123 27.4803C230.219 27.3901 230.318 27.309 230.42 27.2368C230.432 27.2307 230.462 27.2157 230.51 27.1916C230.558 27.1615 230.612 27.1314 230.671 27.1013C230.737 27.0652 230.788 27.0381 230.824 27.02C230.866 26.9959 230.893 26.9839 230.905 26.9839L230.909 28.8829L231.008 28.8017L231.026 28.8017C231.044 28.7716 231.082 28.7296 231.142 28.6754C231.298 28.5492 231.391 28.477 231.421 28.4589C231.427 28.4529 231.49 28.4078 231.61 28.3236C231.736 28.2333 231.822 28.1882 231.87 28.1881L231.898 28.197C232.306 28.5143 232.768 28.6994 233.285 28.7525C233.297 28.7525 233.306 28.7555 233.312 28.7614C233.312 28.7674 233.309 28.7765 233.303 28.7885C233.297 28.7945 233.291 28.8005 233.285 28.8065C233.279 28.8125 233.273 28.8185 233.267 28.8245C233.207 28.8906 233.141 28.9478 233.069 28.9959L232.835 29.1673L232.842 33.0103C232.843 33.3403 232.987 33.5111 233.275 33.5225L233.392 33.5223L233.626 33.5129L232.844 34.1443ZM235.142 33.2131L235.115 33.2041C234.893 33.0365 234.658 32.89 234.412 32.7644C234.172 32.6389 233.911 32.5764 233.629 32.5769C233.611 32.5769 233.602 32.5739 233.602 32.5679C233.602 32.5619 233.605 32.5559 233.611 32.5499C233.611 32.5439 233.62 32.5289 233.638 32.5049C233.697 32.4387 233.766 32.3786 233.844 32.3245L233.979 32.2252L233.977 31.0282C233.977 31.0042 233.986 30.9832 234.004 30.9652C234.046 30.9231 234.07 30.9021 234.076 30.902C234.213 30.7698 234.339 30.6736 234.453 30.6133L234.588 30.5411C234.678 30.4629 234.771 30.3908 234.867 30.3246C234.879 30.3186 234.897 30.3035 234.92 30.2795C235.112 30.1411 235.241 30.0719 235.307 30.0718C235.325 30.0717 235.538 30.1403 235.946 30.2776L235.945 29.5756C235.807 29.5039 235.618 29.4172 235.378 29.3156C235.029 29.1663 234.738 29.0918 234.504 29.0923C234.45 29.0924 234.378 29.0955 234.288 29.1016C234.204 29.1078 234.123 29.117 234.045 29.1291L233.919 29.1473L235.016 28.3173L235.295 28.4248C235.481 28.4965 235.712 28.562 235.988 28.6215C236.235 28.6811 236.487 28.7106 236.745 28.7101L236.817 28.71C236.829 28.71 236.836 29.337 236.838 30.591L236.832 32.04L237.363 32.39L237.363 32.399C237.363 32.411 237.348 32.432 237.319 32.4621L237.049 32.6966C236.935 32.7868 236.797 32.874 236.635 32.9583L236.59 32.9854C236.555 33.0035 236.525 33.0125 236.501 33.0126C236.495 33.0126 236.308 32.8929 235.942 32.6536L235.816 32.7708C235.642 32.9092 235.505 33.0114 235.403 33.0776C235.271 33.1678 235.184 33.213 235.142 33.2131ZM235.41 32.2046L235.428 32.1866C235.488 32.1204 235.554 32.0603 235.626 32.0062L235.671 31.9701L235.949 31.7806L235.948 31.2136L234.859 30.8286L234.861 31.9896C235.053 32.0372 235.236 32.1089 235.41 32.2046ZM239.364 33.3583C239.118 33.1968 238.86 33.0562 238.589 32.9367C238.385 32.8471 238.175 32.8025 237.959 32.8029C237.881 32.803 237.803 32.8092 237.725 32.8213C237.761 32.8033 237.788 32.7852 237.806 32.7672C237.83 32.7431 237.95 32.6529 238.166 32.4965L238.48 32.2799C238.486 32.2799 238.51 32.2649 238.552 32.2348C238.6 32.1987 238.696 32.1805 238.84 32.1803C239.194 32.1796 239.59 32.3199 240.029 32.6011L240.026 31.0531C239.93 30.9333 239.804 30.8705 239.648 30.8648L239.549 30.865C239.429 30.8652 239.315 30.8804 239.207 30.9106C238.961 30.983 238.724 31.0825 238.496 31.2089L238.334 31.2992C238.328 31.3052 238.316 31.3142 238.298 31.3263C238.28 31.3323 238.262 31.3383 238.244 31.3444C238.226 31.3504 238.211 31.3534 238.199 31.3535L238.181 31.3535L238.178 29.3195C238.178 29.2835 238.205 29.2474 238.259 29.2113C238.33 29.1392 238.438 29.055 238.582 28.9587L238.825 28.8053C238.963 28.733 239.041 28.6969 239.059 28.6969L239.535 28.336C239.661 28.2398 239.739 28.1916 239.769 28.1916L239.778 28.1915C240.216 28.5087 240.706 28.6908 241.246 28.7378C241.228 28.7379 241.186 28.7709 241.12 28.8371L240.455 29.3063C240.401 29.3424 240.368 29.3605 240.356 29.3605C239.888 29.3193 239.455 29.1731 239.059 28.9219L239.062 30.7039L239.098 30.6858C239.38 30.5233 239.674 30.3937 239.98 30.2972C240.111 30.2549 240.255 30.2337 240.411 30.2334L240.591 30.233C240.693 30.2329 240.799 30.2987 240.907 30.4305L240.91 32.0865L241.144 32.032C241.162 32.032 241.171 32.035 241.171 32.041C241.171 32.053 241.165 32.065 241.153 32.077C241.141 32.089 241.129 32.1011 241.117 32.1131C241.111 32.1251 241.105 32.1341 241.099 32.1401C240.973 32.2603 240.775 32.4137 240.506 32.6002C240.5 32.6002 240.482 32.6093 240.452 32.6273C240.428 32.6454 240.395 32.6664 240.353 32.6905C240.317 32.7086 240.266 32.7416 240.2 32.7898C240.134 32.8319 240.074 32.871 240.02 32.9071C239.966 32.9372 239.921 32.9673 239.885 32.9974C239.85 33.0274 239.826 33.0455 239.814 33.0515C239.802 33.0575 239.778 33.0725 239.742 33.0966C239.712 33.1267 239.67 33.1627 239.616 33.2048C239.472 33.3071 239.388 33.3583 239.364 33.3583ZM242.637 33.1543C242.625 33.1543 242.544 33.1155 242.394 33.0377L242.169 32.9211L241.728 32.706C241.728 32.7 241.746 32.6789 241.782 32.6429C241.817 32.6068 241.859 32.5677 241.907 32.5256C241.961 32.4775 242.009 32.4354 242.051 32.3994C242.099 32.3633 242.126 32.3422 242.132 32.3362C242.144 32.3302 242.156 32.3242 242.168 32.3181L242.162 29.1592L241.721 28.944C241.721 28.938 241.739 28.9169 241.775 28.8809C241.852 28.8027 241.945 28.7216 242.053 28.6374C242.095 28.6013 242.119 28.5802 242.125 28.5742C242.137 28.5682 242.2 28.5231 242.314 28.4389C242.428 28.3547 242.515 28.3125 242.575 28.3124C242.587 28.3124 242.668 28.3512 242.818 28.4289L243.043 28.5365L243.484 28.7607C243.484 28.7667 243.466 28.7848 243.43 28.8148C243.323 28.917 243.233 28.9982 243.161 29.0583L243.044 29.1485L243.05 32.2985L243.491 32.5227C243.491 32.5287 243.473 32.5467 243.437 32.5768C243.258 32.7451 243.123 32.8594 243.033 32.9196L242.889 33.0278C242.781 33.112 242.697 33.1542 242.637 33.1543ZM242.718 27.8891C242.388 27.8717 242.082 27.7703 241.799 27.5848L241.853 27.5397C241.883 27.5217 241.907 27.5036 241.925 27.4856L242.231 27.26C242.249 27.248 242.318 27.1969 242.437 27.1066C242.563 27.0104 242.641 26.9623 242.671 26.9622L242.68 26.9622C242.962 27.1477 243.269 27.2491 243.599 27.2665C243.593 27.2725 243.581 27.2815 243.563 27.2936C243.545 27.3056 243.518 27.3297 243.482 27.3657L242.808 27.844C242.766 27.874 242.736 27.8891 242.718 27.8891ZM245.538 33.3469C245.291 33.1854 245.033 33.0449 244.763 32.9254C244.559 32.8357 244.349 32.7911 244.133 32.7915C244.055 32.7917 243.977 32.7978 243.899 32.81C243.935 32.7919 243.962 32.7738 243.979 32.7558C244.003 32.7318 244.123 32.6415 244.339 32.4852L244.654 32.2686C244.66 32.2686 244.684 32.2535 244.726 32.2234C244.773 32.1873 244.869 32.1692 245.013 32.1689C245.367 32.1683 245.764 32.3085 246.202 32.5897L246.199 31.0417C246.103 30.9219 245.977 30.8591 245.821 30.8534L245.722 30.8536C245.602 30.8538 245.488 30.869 245.38 30.8992C245.134 30.9717 244.897 31.0711 244.67 31.1975L244.508 31.2878C244.502 31.2938 244.49 31.3029 244.472 31.3149C244.454 31.3209 244.436 31.327 244.418 31.333C244.4 31.339 244.385 31.3421 244.373 31.3421L244.355 31.3421L244.351 29.3081C244.351 29.2721 244.378 29.2361 244.432 29.2C244.504 29.1278 244.612 29.0436 244.755 28.9474L244.998 28.7939C245.136 28.7217 245.214 28.6855 245.232 28.6855L245.708 28.3246C245.834 28.2284 245.912 28.1802 245.942 28.1802L245.951 28.1802C246.39 28.4974 246.879 28.6795 247.419 28.7265C247.401 28.7265 247.359 28.7596 247.293 28.8257L246.628 29.2949C246.574 29.331 246.541 29.3491 246.529 29.3491C246.061 29.308 245.629 29.1618 245.232 28.9105L245.236 30.6925L245.272 30.6744C245.553 30.5119 245.847 30.3824 246.153 30.2858C246.285 30.2436 246.429 30.2223 246.585 30.222L246.765 30.2217C246.867 30.2215 246.972 30.2873 247.08 30.4191L247.083 32.0751L247.317 32.0207C247.335 32.0206 247.344 32.0236 247.344 32.0296C247.344 32.0416 247.338 32.0536 247.326 32.0656C247.314 32.0777 247.302 32.0897 247.29 32.1017C247.284 32.1137 247.278 32.1227 247.272 32.1287C247.147 32.249 246.949 32.4023 246.679 32.5888C246.673 32.5889 246.655 32.5979 246.625 32.6159C246.601 32.634 246.568 32.655 246.526 32.6791C246.49 32.6972 246.439 32.7303 246.374 32.7784C246.308 32.8205 246.248 32.8596 246.194 32.8957C246.14 32.9258 246.095 32.9559 246.059 32.986C246.023 33.0161 245.999 33.0341 245.987 33.0401C245.975 33.0461 245.951 33.0612 245.915 33.0852C245.885 33.1153 245.843 33.1514 245.789 33.1935C245.645 33.2957 245.562 33.3469 245.538 33.3469ZM251.241 33.3454L251.214 33.3365C250.884 33.0971 250.551 32.9267 250.214 32.8253L249.864 33.114L249.72 33.2132C249.594 33.3035 249.507 33.3486 249.459 33.3487L249.423 33.3398L249.297 33.259C248.853 32.9418 248.462 32.7836 248.126 32.7842C248.06 32.7843 247.994 32.7904 247.928 32.8025L247.91 32.8026C247.904 32.8026 247.901 32.7996 247.901 32.7936C247.901 32.7876 247.904 32.7786 247.91 32.7666C247.922 32.7546 247.931 32.7485 247.937 32.7485C247.943 32.7425 247.946 32.7365 247.946 32.7305C248.006 32.6644 248.072 32.6073 248.144 32.5591C248.162 32.5471 248.18 32.5351 248.198 32.523C248.222 32.505 248.246 32.484 248.27 32.4599C248.3 32.4359 248.33 32.4148 248.36 32.3967L248.354 29.1478L247.912 28.9326C247.912 28.9266 247.93 28.9055 247.966 28.8695C248.068 28.7673 248.203 28.653 248.37 28.5267L248.514 28.4185C248.628 28.3402 248.712 28.3011 248.766 28.301C248.778 28.301 248.859 28.3398 249.009 28.4175C249.159 28.4893 249.306 28.564 249.451 28.6417L249.667 28.7493C249.667 28.7673 249.607 28.8244 249.487 28.9207L249.236 29.1371L249.241 32.1881C249.499 32.2536 249.748 32.3612 249.989 32.5107C250.013 32.4927 250.037 32.4747 250.061 32.4566C250.085 32.4326 250.112 32.4115 250.142 32.3935L250.136 29.1445C250.135 29.1085 250.162 29.0724 250.216 29.0363C250.288 28.9642 250.396 28.88 250.54 28.7837L250.792 28.6303C250.929 28.558 251.004 28.5219 251.016 28.5218L251.023 32.1848C251.323 32.2623 251.606 32.3908 251.87 32.5703L251.864 29.1413L251.431 28.9261C251.431 28.9141 251.446 28.8931 251.476 28.863C251.512 28.8269 251.557 28.7879 251.611 28.7458C251.665 28.6977 251.713 28.6556 251.755 28.6195C251.797 28.5834 251.823 28.5624 251.835 28.5563C251.847 28.5503 251.862 28.5383 251.88 28.5203C251.922 28.4902 251.97 28.4571 252.024 28.421C252.084 28.3789 252.135 28.3488 252.177 28.3307C252.219 28.3066 252.252 28.2946 252.276 28.2945C252.288 28.2945 252.369 28.3334 252.519 28.4111C252.669 28.4828 252.744 28.5187 252.744 28.5187C252.75 28.5187 252.825 28.5575 252.97 28.6353L253.186 28.7429C253.186 28.7549 253.168 28.7759 253.132 28.806C253.096 28.836 253.054 28.8721 253.006 28.9142L252.755 29.1306C252.758 31.1946 252.757 32.2297 252.751 32.2357L253.382 32.7115L253.382 32.7205C253.382 32.7325 253.367 32.7535 253.337 32.7836C253.217 32.8918 253.131 32.967 253.077 33.0091C253.023 33.0452 252.99 33.0692 252.978 33.0812C252.876 33.1534 252.768 33.2196 252.654 33.2798L252.609 33.3069C252.567 33.325 252.537 33.3341 252.519 33.3341C252.513 33.3341 252.312 33.1875 251.915 32.8942L251.646 33.1107C251.604 33.1408 251.553 33.1739 251.493 33.21C251.439 33.2521 251.388 33.2852 251.34 33.3093C251.298 33.3333 251.265 33.3454 251.241 33.3454ZM255.322 33.1759L255.295 33.167C255.072 32.9994 254.838 32.8528 254.592 32.7273C254.351 32.6017 254.09 32.5392 253.808 32.5397C253.79 32.5397 253.781 32.5368 253.781 32.5308C253.781 32.5248 253.784 32.5188 253.79 32.5127C253.79 32.5067 253.799 32.4917 253.817 32.4677C253.877 32.4016 253.946 32.3415 254.024 32.2873L254.159 32.1881L254.157 30.9911C254.156 30.9671 254.165 30.9461 254.183 30.928C254.225 30.8859 254.249 30.8649 254.255 30.8649C254.393 30.7326 254.519 30.6364 254.633 30.5762L254.768 30.5039C254.857 30.4258 254.95 30.3536 255.046 30.2874C255.058 30.2814 255.076 30.2664 255.1 30.2423C255.292 30.104 255.421 30.0347 255.487 30.0346C255.505 30.0346 255.718 30.1032 256.126 30.2404L256.125 29.5384C255.987 29.4667 255.798 29.38 255.557 29.2785C255.209 29.1291 254.918 29.0547 254.684 29.0551C254.63 29.0552 254.558 29.0583 254.468 29.0645C254.384 29.0706 254.303 29.0798 254.225 29.0919L254.099 29.1102L255.196 28.2802L255.475 28.3876C255.661 28.4593 255.892 28.5249 256.168 28.5844C256.414 28.6439 256.666 28.6734 256.924 28.673L256.996 28.6728C257.008 28.6728 257.015 29.2998 257.018 30.5538L257.011 32.0028L257.543 32.3528L257.543 32.3618C257.543 32.3738 257.528 32.3949 257.498 32.4249L257.229 32.6594C257.115 32.7496 256.977 32.8369 256.815 32.9212L256.77 32.9483C256.734 32.9663 256.704 32.9754 256.68 32.9754C256.674 32.9754 256.488 32.8558 256.122 32.6165L255.996 32.7337C255.822 32.872 255.684 32.9743 255.582 33.0405C255.45 33.1307 255.364 33.1759 255.322 33.1759ZM255.59 32.1674L255.608 32.1494C255.668 32.0833 255.733 32.0232 255.805 31.969L255.85 31.933L256.129 31.7434L256.128 31.1764L255.038 30.7914L255.04 31.9524C255.232 32.0001 255.416 32.0718 255.59 32.1674Z" fill="black"/>
<defs>
<filter id="filter0_n_229_2200" x="170.5" y="41.5" width="46.9043" height="46.894" filterUnits="userSpaceOnUse" color-interpolation-filters="sRGB">
<feFlood flood-opacity="0" result="BackgroundImageFix"/>
<feBlend mode="normal" in="SourceGraphic" in2="BackgroundImageFix" result="shape"/>
<feTurbulence type="fractalNoise" baseFrequency="0.25 0.25" stitchTiles="stitch" numOctaves="3" result="noise" seed="1320" />
<feColorMatrix in="noise" type="luminanceToAlpha" result="alphaNoise" />
<feComponentTransfer in="alphaNoise" result="coloredNoise1">
<feFuncA type="discrete" tableValues="0 0 0 0 0 0 0 0 0 0 0 0 0 0 0 0 0 0 0 1 1 1 1 1 1 1 1 1 1 1 0 0 0 0 0 0 0 0 0 0 0 0 0 0 0 0 0 0 0 0 0 0 0 0 0 0 0 0 0 0 0 0 0 0 0 0 0 0 0 0 0 0 0 0 0 0 0 0 0 0 0 0 0 0 0 0 0 0 0 0 0 0 0 0 0 0 0 0 0 0 "/>
</feComponentTransfer>
<feComposite operator="in" in2="shape" in="coloredNoise1" result="noise1Clipped" />
<feFlood flood-color="rgba(0, 0, 0, 0.5)" result="color1Flood" />
<feComposite operator="in" in2="noise1Clipped" in="color1Flood" result="color1" />
<feMerge result="effect1_noise_229_2200">
<feMergeNode in="shape" />
<feMergeNode in="color1" />
</feMerge>
</filter>
<filter id="filter1_n_229_2200" x="219.35" y="90.7842" width="47.1499" height="57.8521" filterUnits="userSpaceOnUse" color-interpolation-filters="sRGB">
<feFlood flood-opacity="0" result="BackgroundImageFix"/>
<feBlend mode="normal" in="SourceGraphic" in2="BackgroundImageFix" result="shape"/>
<feTurbulence type="fractalNoise" baseFrequency="0.25 0.25" stitchTiles="stitch" numOctaves="3" result="noise" seed="2304" />
<feColorMatrix in="noise" type="luminanceToAlpha" result="alphaNoise" />
<feComponentTransfer in="alphaNoise" result="coloredNoise1">
<feFuncA type="discrete" tableValues="0 0 0 0 0 0 0 0 0 0 0 0 0 0 0 0 0 1 1 1 1 1 1 1 1 1 1 1 1 1 1 1 1 0 0 0 0 0 0 0 0 0 0 0 0 0 0 0 0 0 0 0 0 0 0 0 0 0 0 0 0 0 0 0 0 0 0 0 0 0 0 0 0 0 0 0 0 0 0 0 0 0 0 0 0 0 0 0 0 0 0 0 0 0 0 0 0 0 0 0 "/>
</feComponentTransfer>
<feComposite operator="in" in2="shape" in="coloredNoise1" result="noise1Clipped" />
<feFlood flood-color="rgba(0, 0, 0, 0.25)" result="color1Flood" />
<feComposite operator="in" in2="noise1Clipped" in="color1Flood" result="color1" />
<feMerge result="effect1_noise_229_2200">
<feMergeNode in="shape" />
<feMergeNode in="color1" />
</feMerge>
</filter>
<filter id="filter2_d_229_2200" x="176" y="61" width="83" height="62" filterUnits="userSpaceOnUse" color-interpolation-filters="sRGB">
<feFlood flood-opacity="0" result="BackgroundImageFix"/>
<feColorMatrix in="SourceAlpha" type="matrix" values="0 0 0 0 0 0 0 0 0 0 0 0 0 0 0 0 0 0 127 0" result="hardAlpha"/>
<feOffset dy="4"/>
<feGaussianBlur stdDeviation="2"/>
<feComposite in2="hardAlpha" operator="out"/>
<feColorMatrix type="matrix" values="0 0 0 0 0 0 0 0 0 0 0 0 0 0 0 0 0 0 0.6 0"/>
<feBlend mode="normal" in2="BackgroundImageFix" result="effect1_dropShadow_229_2200"/>
<feBlend mode="normal" in="SourceGraphic" in2="effect1_dropShadow_229_2200" result="shape"/>
</filter>
</defs>
</svg>
