<svg width="440" height="160" viewBox="0 0 440 160" fill="none" xmlns="http://www.w3.org/2000/svg">
<path d="M164 133.098L218.5 159L272 133.098V67.3624V1H164V67.3624V133.098Z" fill="#F0DAA9" stroke="black"/>
<path d="M218.5 154L168 130.419V83.3737V39H269V130.419L218.5 154Z" fill="black" stroke="black"/>
<path d="M216.904 88.8941H171V43H216.904V88.8941Z" fill="#174930" stroke="black"/>
<path d="M265.755 88.8941H219.85V43H265.755V88.8941Z" fill="#174930" stroke="black"/>
<path d="M171 92.4146H217.15V149L171 128.66V92.4146Z" fill="#174930" stroke="black"/>
<path d="M266 92.2842H219.85V148.87L266 128.53V92.2842Z" fill="#174930" stroke="black"/>
<path fill-rule="evenodd" clip-rule="evenodd" d="M206.268 45H207.025C207.125 45.4844 206.668 45.5182 206.639 45.9012H205.883C205.783 45.4168 206.24 45.383 206.268 45Z" fill="black"/>
<path fill-rule="evenodd" clip-rule="evenodd" d="M170.695 46.4985C171.694 46.7126 171.495 47.8616 172.594 47.9968C172.537 48.346 171.909 48.2446 171.452 48.3009C170.681 48.3798 170.695 49.1008 170.31 49.4951C169.596 49.3148 169.468 49.1458 169.939 48.5938C170.139 48.346 170.31 47.2082 170.695 46.4985Z" fill="black"/>
<path fill-rule="evenodd" clip-rule="evenodd" d="M178.259 46.8025C177.959 48.6162 180.001 47.0053 178.259 46.8025V46.8025Z" fill="black"/>
<path fill-rule="evenodd" clip-rule="evenodd" d="M180.915 50.0808C181.457 50.1484 181.043 50.9708 181.671 50.982C181.4 51.5115 180.986 51.0271 180.529 50.982C180.43 50.4976 180.886 50.4638 180.915 50.0808Z" fill="black"/>
<path fill-rule="evenodd" clip-rule="evenodd" d="M170.31 50.9822C170.781 51.1174 171.081 51.3652 171.067 51.8834C170.596 51.7482 170.296 51.5004 170.31 50.9822Z" fill="black"/>
<path fill-rule="evenodd" clip-rule="evenodd" d="M182.045 51.2749C183.172 52.086 182.887 53.9898 183.558 55.1614C182.958 55.1839 182.116 55.0149 182.045 55.4655C180.988 55.3078 180.917 54.3277 180.531 53.6744C180.446 53.5279 180.046 53.4265 180.16 53.0773C180.203 52.9421 180.96 53.1674 180.917 52.7732C180.845 52.1874 180.489 52.0747 179.775 51.8719C180.489 50.8581 181.103 52.3789 182.045 52.1761C181.588 51.7818 181.902 51.703 182.045 51.2749Z" fill="black"/>
<path fill-rule="evenodd" clip-rule="evenodd" d="M192.265 53.0662C193.036 53.483 191.894 54.0913 192.636 54.8573C191.851 54.7334 191.637 55.0601 191.123 55.1615C191.094 56.1303 190.638 56.7724 189.61 56.9526C189.282 55.9951 190.209 56.0289 190.366 55.4543C190.409 54.9136 189.91 54.8235 189.995 54.2603C190.823 54.5531 191.066 54.0462 191.509 53.6632C191.751 53.4492 192.137 53.3703 192.265 53.0662Z" fill="black"/>
<path fill-rule="evenodd" clip-rule="evenodd" d="M199.074 54.5642C198.246 55.1838 199.402 55.533 198.703 56.0624C198.403 55.9047 198.089 55.747 197.561 55.7583C197.39 54.8233 197.889 54.429 199.074 54.5642Z" fill="black"/>
<path fill-rule="evenodd" clip-rule="evenodd" d="M196.432 55.1611H197.189V55.7582H196.432V55.1611Z" fill="black"/>
<path fill-rule="evenodd" clip-rule="evenodd" d="M182.044 59.0479C182.372 58.9915 182.401 59.1605 182.43 59.352C182.915 60.3659 184.785 60.287 184.699 61.7402C184.014 61.774 183.9 61.3797 183.186 61.436C182.415 61.9317 181.673 62.4386 181.673 63.5314C180.417 63.5314 180.231 62.6865 180.16 61.7402C180.303 61.8979 182.244 60.9967 181.302 60.242C180.46 59.5773 182.058 60.1856 182.058 59.0479H182.044Z" fill="black"/>
<path fill-rule="evenodd" clip-rule="evenodd" d="M168.797 59.3406C169.283 59.7574 170.439 59.6335 171.452 59.6447C171.624 60.2869 170.91 60.208 170.31 60.2418C170.082 61.1993 171.024 61.1655 170.31 61.74C169.725 61.312 168.84 61.1092 168.041 60.8388C167.755 59.9151 169.083 60.2643 168.797 59.3406Z" fill="black"/>
<path fill-rule="evenodd" clip-rule="evenodd" d="M197.561 59.6449C198.375 59.5097 198.275 60.073 198.318 60.5461C198.018 60.4898 197.946 60.242 197.561 60.242V59.6449Z" fill="black"/>
<path fill-rule="evenodd" clip-rule="evenodd" d="M199.844 64.1285C199.986 64.6354 199.544 64.6918 199.087 64.7256C199.001 65.255 199.473 66.2238 198.331 65.9196C197.874 64.5566 198.259 63.4526 199.844 64.1285Z" fill="black"/>
<path fill-rule="evenodd" clip-rule="evenodd" d="M171.065 64.4214C171.736 64.489 171.921 64.9396 171.821 65.6155C170.422 65.5817 170.865 65.1761 171.065 64.4214Z" fill="black"/>
<path fill-rule="evenodd" clip-rule="evenodd" d="M204.754 68.0034C204.354 69.7382 206.395 68.1273 204.754 68.0034V68.0034Z" fill="black"/>
<path fill-rule="evenodd" clip-rule="evenodd" d="M189.995 71.5857C189.595 73.3205 191.636 71.7096 189.995 71.5857V71.5857Z" fill="black"/>
<path fill-rule="evenodd" clip-rule="evenodd" d="M200.972 72.1941C202.257 72.2728 203.142 72.6673 204.755 72.4982C204.898 73.8161 203.028 73.5345 202.1 73.9965C201.743 74.2104 201.529 74.5371 201.343 74.8978C200.815 74.8751 201.129 74.3117 200.958 73.9965C200.544 73.2416 199.773 72.9602 200.958 72.2053L200.972 72.1941Z" fill="black"/>
<path fill-rule="evenodd" clip-rule="evenodd" d="M205.898 72.1941H206.654V72.7911H205.898V72.1941Z" fill="black"/>
<path fill-rule="evenodd" clip-rule="evenodd" d="M189.625 73.0842C190.581 73.1178 191.095 73.5235 191.138 74.2781C189.982 74.0642 189.753 74.5825 188.868 74.5825C189.025 74.008 189.953 74.0418 189.625 73.0842Z" fill="black"/>
<path fill-rule="evenodd" clip-rule="evenodd" d="M175.235 73.9856C176.291 74.2446 176.491 75.191 176.748 76.0808H174.478C174.792 75.4388 175.463 75.067 175.235 73.9856Z" fill="black"/>
<path fill-rule="evenodd" clip-rule="evenodd" d="M174.478 76.9707C175.32 77.0947 174.777 78.5591 174.478 78.7619C173.635 78.6381 174.178 77.1737 174.478 76.9707Z" fill="black"/>
<path fill-rule="evenodd" clip-rule="evenodd" d="M184.698 56.9524C184.256 56.9073 184.027 57.02 183.942 57.2566C182.9 57.6959 184.97 55.8034 184.327 55.7583C184.841 55.7808 184.641 56.5581 184.698 56.9524Z" fill="black"/>
<path fill-rule="evenodd" clip-rule="evenodd" d="M173.721 57.5494C175.034 55.9047 175.577 60.0164 175.991 58.1464C176.833 58.2704 176.148 59.6221 176.362 60.2417C175.477 60.3431 174.592 60.4332 174.849 61.4358C174.52 61.4922 174.492 61.3232 174.478 61.1317H173.721C174.349 60.636 175.249 60.3544 175.234 59.3405C175.092 58.4506 174.578 57.8648 173.721 57.5494Z" fill="black"/>
<path fill-rule="evenodd" clip-rule="evenodd" d="M186.211 57.2565C186.639 58.1915 185.611 57.9775 185.454 58.4507C185.169 58.2704 184.755 57.2002 186.211 57.2565Z" fill="black"/>
<path fill-rule="evenodd" clip-rule="evenodd" d="M197.945 66.8094C197.831 66.2799 199.415 66.7868 199.072 67.4064C198.23 67.5754 198.53 66.8319 197.945 66.8094Z" fill="black"/>
<path fill-rule="evenodd" clip-rule="evenodd" d="M200.215 67.7108C201.228 67.508 200.943 68.3303 201.357 68.6119C201.428 69.2653 201.043 69.5582 200.215 69.5131V71.6084C198.245 71.7774 196.846 71.4733 197.188 69.8173C198.445 69.5019 198.487 69.9074 199.844 69.5131C200.486 68.9949 199.787 68.7359 200.215 67.722V67.7108Z" fill="black"/>
<path fill-rule="evenodd" clip-rule="evenodd" d="M188.095 70.0988C188.252 71.2253 187.296 71.4618 186.582 71.8899C186.582 72.2505 186.111 72.0251 186.211 71.8899C186.282 71.766 186.924 71.6871 186.967 71.5858C187.081 71.3492 186.81 70.9099 186.967 70.6846C186.996 70.6508 187.324 70.7296 187.353 70.6846C187.567 70.2903 187.381 70.0312 188.109 70.0875L188.095 70.0988Z" fill="black"/>
<path fill-rule="evenodd" clip-rule="evenodd" d="M239.195 75.3399C239.438 74.45 240.009 75.6216 240.709 75.3399C240.352 75.8582 240.709 76.9395 239.567 76.8381C239.31 75.9032 239.609 75.6216 239.195 75.3399Z" fill="black"/>
<path fill-rule="evenodd" clip-rule="evenodd" d="M234.271 78.6294H235.784C236.169 79.5304 234.942 79.1589 234.271 79.2264V78.6294Z" fill="black"/>
<path fill-rule="evenodd" clip-rule="evenodd" d="M232 78.9226H232.757V79.5199H232V78.9226Z" fill="black"/>
<path fill-rule="evenodd" clip-rule="evenodd" d="M261.991 91.7442C261.558 91.9558 260.636 91.3211 260.495 92.0802C260.325 93.0011 260.448 92.3539 259.996 92.4161C259.516 92.4783 259.704 93.4617 258.998 93.4119V94.7312C258.697 94.8305 258.132 93.7729 258.744 93.7355C258.706 93.3497 258.292 93.4617 257.991 93.3995C258.104 92.9887 258.311 92.7273 258.744 92.7397C259.262 92.3292 259.685 91.7814 259.996 91.0844C260.608 92.0304 261.925 89.392 261.991 91.7442Z" fill="black"/>
<path fill-rule="evenodd" clip-rule="evenodd" d="M253.405 91.8074C253.316 92.8543 253.687 92.7256 253.991 92.7808C253.917 94.471 253.175 93.4419 252.812 93.2766C252.731 93.2401 252.479 93.4054 252.419 93.2766C252.278 92.9831 252.382 91.8257 252.219 92.7808C251.752 92.5238 252.063 91.4581 252.612 91.8074C252.99 92.0462 252.768 92.2667 253.398 91.8074H253.405Z" fill="black"/>
<path fill-rule="evenodd" clip-rule="evenodd" d="M241.465 93.8597C242.078 93.7807 242.121 94.1413 242.607 94.1637C242.764 94.7383 240.879 94.6031 241.465 93.8597Z" fill="black"/>
<path fill-rule="evenodd" clip-rule="evenodd" d="M253.384 94.7483C253.917 95.0049 253.836 96.1249 253.969 96.9262C254.317 96.6796 254.221 95.8167 254.954 96.1042C255.11 97.0496 254.739 97.2549 254.561 97.7378C254.08 97.2243 253.473 96.8851 252.991 96.3714C253.102 95.8065 253.48 95.5907 253.384 94.7378V94.7483Z" fill="black"/>
<path fill-rule="evenodd" clip-rule="evenodd" d="M244.492 95.6509C245.519 95.9214 244.106 96.6986 244.12 97.1492C243.207 97.2732 243.292 96.6085 242.222 96.8451C242.279 95.8875 243.906 96.1916 244.492 95.6509Z" fill="black"/>
<path fill-rule="evenodd" clip-rule="evenodd" d="M239.195 96.5522H239.952V97.1492H239.195V96.5522Z" fill="black"/>
<path fill-rule="evenodd" clip-rule="evenodd" d="M258.991 98.7378C258.78 98.4833 258.173 98.6481 258.016 98.3338C257.998 98.2888 258.044 97.9595 258.016 97.9294C257.768 97.765 256.756 98.3635 257.041 97.1362C257.317 96.6124 258.035 96.5976 258.504 97.1362C258.642 97.2862 258.467 97.5105 258.752 97.5403C259.037 97.5704 258.954 98.2888 258.991 98.7378Z" fill="black"/>
<path fill-rule="evenodd" clip-rule="evenodd" d="M239.954 98.3435C240.953 98.2533 240.924 98.9629 241.081 99.5374C240.068 99.515 239.268 98.8503 239.954 98.3435Z" fill="black"/>
<path fill-rule="evenodd" clip-rule="evenodd" d="M241.466 98.6362C241.066 100.371 243.108 98.76 241.466 98.6362V98.6362Z" fill="black"/>
<path fill-rule="evenodd" clip-rule="evenodd" d="M246.004 99.5374C245.704 101.34 247.745 99.7404 246.004 99.5374V99.5374Z" fill="black"/>
<path fill-rule="evenodd" clip-rule="evenodd" d="M254.027 3.29288C254.084 2.94372 254.712 3.04508 255.169 3V3.90104C254.669 3.79968 254.569 3.37156 254.027 3.30408V3.29288Z" fill="black"/>
<path fill-rule="evenodd" clip-rule="evenodd" d="M251 4.18262H251.757V4.77986H251V4.18262Z" fill="black"/>
<path fill-rule="evenodd" clip-rule="evenodd" d="M251.37 18.5231C252.555 18.3882 252.584 19.1655 252.512 20.0214C251.856 19.7512 251.199 19.4695 251.37 18.5231Z" fill="black"/>
<path fill-rule="evenodd" clip-rule="evenodd" d="M253.639 20.3142C254.11 20.4494 254.41 20.6972 254.396 21.2155C253.925 21.0803 253.625 20.8325 253.639 20.3142Z" fill="black"/>
<path fill-rule="evenodd" clip-rule="evenodd" d="M258.951 25.9919C259.593 25.8794 259.664 26.2285 259.707 26.5889C260.492 26.7692 260.935 27.2197 261.606 27.4902C260.992 28.0533 259.593 27.7943 258.58 28.0872C258.037 28.2448 257.152 28.4926 257.066 28.9885C256.453 29.0672 256.41 28.7068 255.939 28.6841C255.268 28.9546 255.239 29.7319 254.797 30.1824C253.583 29.9909 255.368 29.439 254.425 28.6841C254.411 28.6729 254.04 28.6841 254.04 28.6841C254.183 27.8957 255.054 27.6591 255.553 26.8933C256.595 27.5353 257.138 26.7241 258.208 27.1973C258.879 27.1296 259.065 26.6791 258.965 26.0031L258.951 25.9919Z" fill="black"/>
<path fill-rule="evenodd" clip-rule="evenodd" d="M269.544 27.783C269.844 27.8392 269.915 28.087 270.301 28.087V28.684C269.944 28.504 268.902 27.9857 269.159 28.9884C268.716 28.9433 268.845 28.4477 268.773 28.087C269.216 28.1321 269.444 28.0196 269.53 27.783H269.544Z" fill="black"/>
<path fill-rule="evenodd" clip-rule="evenodd" d="M259.325 109C260.29 109.006 260.254 110.16 259 109.981C259 109.598 259.554 109.5 259.325 109Z" fill="black"/>
<path fill-rule="evenodd" clip-rule="evenodd" d="M236.988 110C237.073 110.537 236.683 110.575 236.659 111H236.012C235.927 110.463 236.317 110.425 236.329 110H236.988Z" fill="black"/>
<path fill-rule="evenodd" clip-rule="evenodd" d="M244 110.017C244.284 109.869 244.664 110.74 244.803 110.017C245.291 110.258 244.73 110.842 244.64 111C244.235 110.972 244.018 110.639 244 110.017Z" fill="black"/>
<path fill-rule="evenodd" clip-rule="evenodd" d="M242.008 110.002C242.369 109.962 242.429 110.438 242.804 110.37C242.722 111.117 242.94 111.321 243.007 111.811C243.12 112.626 243.316 111.376 243.602 112.178C243.632 112.844 243.729 113.388 244 113.619C243.917 114.516 243.226 113.646 243.399 112.898C242.759 112.49 242.075 111.743 242 110.016L242.008 110.002Z" fill="black"/>
<path fill-rule="evenodd" clip-rule="evenodd" d="M235 111.366C235.245 110.46 235.84 111.5 236 111.668C235.755 112.575 235.33 111.333 235 111.366Z" fill="black"/>
<path fill-rule="evenodd" clip-rule="evenodd" d="M253.323 115C253.482 115 253.959 115.19 253.992 115.321C254.067 115.666 253.582 115.797 253.548 115.952C253.507 116.142 253.582 116.392 253.548 116.582C253.548 116.582 253.348 117.51 253.331 117.534C253.046 117.867 253.256 118.462 253.105 119.426C253.105 119.462 252.661 119.39 252.661 119.426C252.653 119.592 252.854 120.033 252.887 120.378C252.921 120.877 252.77 121.579 253.105 121.639C252.502 122.745 252.745 120.984 252.661 120.687C252.41 119.783 252.067 118.76 252 118.165C252.502 118.248 252.837 118.093 252.887 117.534C253.163 116.511 252.167 117.296 252.444 116.273C253.189 116.487 253.256 115.75 253.331 115.012L253.323 115Z" fill="black"/>
<path fill-rule="evenodd" clip-rule="evenodd" d="M257.808 117.007C258.118 116.872 258.045 118.649 257.644 118.093C257.51 119.11 257.869 119.029 257.808 119.897C256.988 120.535 257.589 117.998 257 118.093C257.067 117.279 257.887 118.147 257.808 117.007Z" fill="black"/>
<path fill-rule="evenodd" clip-rule="evenodd" d="M258 120.208C257.217 121.126 256.425 122.211 257 124C255.613 123.463 256.481 122.009 256 120.518C257.245 120.804 257.066 119.528 258 120.196V120.208Z" fill="black"/>
<path fill-rule="evenodd" clip-rule="evenodd" d="M237.747 122.018C238.084 122.164 237.953 123.224 238 123.955C237.484 124.156 237.343 123.626 237.005 123.462C236.93 122.347 237.728 122.932 237.747 122V122.018Z" fill="black"/>
<path fill-rule="evenodd" clip-rule="evenodd" d="M242.009 125C242.448 125.168 242.536 125.878 243 125.99C242.699 126.85 241.959 127.074 241.005 126.98C240.905 125.672 242.298 126.588 242.009 125Z" fill="black"/>
<path fill-rule="evenodd" clip-rule="evenodd" d="M264.997 131.967C264.48 132.114 264.338 131.727 264 131.607C264.028 130.605 265.063 130.926 264.997 131.967Z" fill="black"/>
<path fill-rule="evenodd" clip-rule="evenodd" d="M251 132.046C251.661 131.884 252.035 132.136 251.997 133H251V132.046Z" fill="black"/>
<g filter="url(#filter0_d_2035_3)">
<path d="M183 81C181.467 73.6747 180.5 62 180.5 62H233V71C233 71 233.477 81.7484 236 88C239.333 96.2582 250 106 250 106L208 127C208 127 195.988 115.298 191 106C186.154 96.967 185.1 91.0335 183 81Z" fill="#F0DAA9"/>
<path d="M195 83.5L224.5 81M201 100.5C201 100.5 217.456 95.3195 228 92M180.5 62C180.5 62 181.467 73.6747 183 81C185.1 91.0335 186.154 96.967 191 106C195.988 115.298 208 127 208 127L250 106C250 106 239.333 96.2582 236 88C233.477 81.7484 233 71 233 71V62H180.5ZM188.5 69.5L190 81C190 81 191.848 91.3699 194.5 97.5C196.269 101.591 197.466 103.834 200 107.5C203.301 112.276 210 118.5 210 118.5L242.5 104.5L236 96.5C236 96.5 233.068 91.6294 231.5 88C229.677 83.7811 229.439 81.075 229 76.5C228.646 72.8069 228 67 228 67H188.5V69.5Z" stroke="black"/>
</g>
<path d="M205.5 106L231 97.5" stroke="black"/>
<path d="M209.5 112.5L234 102" stroke="black"/>
<path d="M197 91.5L225.5 88" stroke="black"/>
<path d="M193 75.5L225 74" stroke="black"/>
<path d="M244.589 61.677L244.53 62.0565L244.906 62.1309L253.703 63.8653L245.086 64.3639L244.477 64.3985L244.751 64.9426L247.564 70.5367L242.082 65.1758L241.898 64.9964L241.659 65.0882L233.659 68.1692L239.884 63.1819L240.256 62.8847L239.9 62.5703L232.626 56.1436L241.668 59.3761L241.965 59.4829L242.137 59.2193L245.866 53.5153L244.589 61.677Z" fill="#FD883B" stroke="black" stroke-width="0.8"/>
<path d="M235.122 111.42L235.286 112.018L235.763 111.622L241.111 107.186L237.335 113.24L237.137 113.557L237.441 113.776L244.117 118.588L237.765 117.11L237.534 117.056L237.375 117.234L231.889 123.398L234.151 115.738L234.303 115.224L233.767 115.225L226.63 115.242L233.22 113.037L233.493 112.946L233.494 112.657L233.493 105.475L235.122 111.42Z" fill="#FD883B" stroke="black" stroke-width="0.8"/>
<path d="M186.917 35.5979C186.905 35.5979 186.791 35.5201 186.574 35.3645C186.298 35.161 186.01 34.9845 185.709 34.8351C185.481 34.7215 185.244 34.665 184.998 34.6654C184.92 34.6656 184.839 34.6717 184.755 34.6839C184.737 34.6839 184.728 34.6809 184.728 34.6749L184.764 34.6118C184.824 34.5457 184.893 34.4856 184.971 34.4315C184.983 34.4194 184.998 34.4104 185.016 34.4044C185.081 34.3383 185.171 34.2691 185.285 34.1969L185.274 28.1309C185.178 28.1011 185.073 28.0863 184.959 28.0865C184.827 28.0867 184.695 28.099 184.563 28.1232C185.006 27.7324 185.231 27.534 185.237 27.528C185.249 27.5159 185.27 27.5009 185.3 27.4828C185.522 27.3024 185.653 27.2032 185.695 27.1851C186.206 27.5802 186.773 27.7831 187.397 27.794L187.02 28.0827C186.912 28.1669 186.798 28.2511 186.678 28.3353C186.631 28.3714 186.601 28.3924 186.589 28.3985C186.583 28.4045 186.574 28.4105 186.562 28.4165C186.556 28.4225 186.52 28.4256 186.454 28.4257C186.358 28.4259 186.262 28.4201 186.166 28.4082C186.173 32.1762 186.173 34.0632 186.167 34.0693C186.473 34.1467 186.764 34.2782 187.041 34.4636L187.05 34.4726C187.266 34.5742 187.512 34.6248 187.788 34.6243C187.908 34.624 188.025 34.6118 188.139 34.5876L188.301 34.5513L187.753 35.0023C187.723 35.0384 187.681 35.0805 187.627 35.1286C187.489 35.2428 187.402 35.309 187.366 35.327C187.336 35.3571 187.273 35.4022 187.178 35.4624C187.046 35.5526 186.959 35.5978 186.917 35.5979ZM185.105 34.0982L184.87 33.7206L184.861 28.6626L185.094 28.2662L185.105 34.0982ZM188.297 34.2543C188.285 34.2544 188.203 34.2155 188.053 34.1378L187.828 34.0212L187.387 33.806C187.387 33.8 187.405 33.779 187.441 33.7429C187.477 33.7068 187.518 33.6678 187.566 33.6257C187.62 33.5776 187.668 33.5355 187.71 33.4994C187.758 33.4633 187.785 33.4423 187.791 33.4363C187.803 33.4302 187.815 33.4242 187.827 33.4182L187.821 30.2592L187.38 30.044C187.38 30.038 187.398 30.017 187.434 29.9809C187.512 29.9028 187.604 29.8216 187.712 29.7374C187.754 29.7013 187.778 29.6803 187.784 29.6743C187.796 29.6682 187.859 29.6231 187.973 29.5389C188.087 29.4547 188.174 29.4126 188.234 29.4124C188.246 29.4124 188.327 29.4513 188.477 29.529L188.702 29.6366L189.143 29.8608C189.143 29.8668 189.126 29.8848 189.09 29.9149C188.982 30.0171 188.892 30.0982 188.82 30.1584L188.703 30.2486L188.709 33.3986L189.15 33.6228C189.15 33.6288 189.132 33.6468 189.096 33.6769C188.917 33.8452 188.782 33.9594 188.692 34.0196L188.548 34.1279C188.44 34.2121 188.357 34.2542 188.297 34.2543ZM188.377 28.9892C188.047 28.9718 187.741 28.8703 187.458 28.6849L187.512 28.6398C187.542 28.6217 187.566 28.6037 187.584 28.5856L187.89 28.3601C187.908 28.348 187.977 28.2969 188.096 28.2067C188.222 28.1105 188.3 28.0623 188.33 28.0623L188.339 28.0622C188.621 28.2477 188.928 28.3492 189.258 28.3666C189.252 28.3726 189.24 28.3816 189.222 28.3936C189.204 28.4057 189.177 28.4297 189.141 28.4658L188.467 28.944C188.425 28.9741 188.395 28.9891 188.377 28.9892ZM191.541 35.7874C191.529 35.7874 191.52 35.7844 191.514 35.7784C191.268 35.5449 190.961 35.4284 190.595 35.4291C190.379 35.4295 190.167 35.4629 189.957 35.5293C189.945 35.5293 189.939 35.5263 189.939 35.5203C189.939 35.5203 189.939 35.5173 189.939 35.5113L189.939 35.5023C189.939 35.4963 189.942 35.4873 189.948 35.4753C189.96 35.4693 189.966 35.4633 189.966 35.4573L189.975 35.4572C190.028 35.3911 190.094 35.331 190.172 35.2769L190.271 35.2047C190.571 34.9401 190.945 34.8075 191.395 34.8066C191.563 34.8063 191.731 34.827 191.899 34.8687L191.897 33.7797L191.673 33.9601C191.631 33.9902 191.58 34.0263 191.52 34.0684C191.466 34.1105 191.415 34.1406 191.367 34.1587C191.325 34.1828 191.292 34.1948 191.268 34.1949L191.232 34.1859C190.692 33.8209 190.232 33.6388 189.854 33.6395C189.782 33.6396 189.707 33.6457 189.629 33.6579C189.611 33.6579 189.602 33.6549 189.602 33.6489C189.602 33.6369 189.608 33.6279 189.62 33.6219C189.626 33.6099 189.632 33.5979 189.638 33.5859C189.71 33.5017 189.794 33.4266 189.89 33.3604C189.986 33.2942 190.039 33.2551 190.051 33.2431L190.046 30.4081C190.046 30.3721 190.073 30.3361 190.127 30.3L190.154 30.2819C190.304 30.1496 190.445 30.0474 190.576 29.9751C190.75 29.8728 190.864 29.8096 190.918 29.7855C190.96 29.7554 191.002 29.7223 191.044 29.6863C191.092 29.6442 191.134 29.6081 191.17 29.578L191.278 29.4878C191.355 29.4277 191.46 29.3615 191.592 29.2893C191.622 29.2772 191.649 29.2712 191.673 29.2711L191.709 29.28C192.19 29.5972 192.718 29.7792 193.294 29.8261C193.312 29.8261 193.321 29.8291 193.321 29.8351C193.321 29.8471 193.306 29.8681 193.276 29.8982C193.222 29.9643 193.157 30.0214 193.079 30.0695L193.034 30.1056C192.95 30.1718 192.863 30.2319 192.773 30.2861L192.782 34.9031C192.782 34.9211 192.755 34.9571 192.701 35.0112C192.587 35.1254 192.407 35.2518 192.161 35.3902C192.119 35.4263 192.081 35.4534 192.045 35.4714C192.015 35.4955 191.994 35.5135 191.982 35.5256C191.97 35.5376 191.913 35.5767 191.811 35.6429C191.679 35.7391 191.589 35.7873 191.541 35.7874ZM191.897 33.4287L191.891 30.3597C191.549 30.2763 191.231 30.1449 190.936 29.9655L190.942 33.0345C191.278 33.1058 191.596 33.2373 191.897 33.4287ZM195.134 34.2867L195.107 34.2778C194.885 34.1102 194.651 33.9636 194.404 33.8381C194.164 33.7125 193.903 33.65 193.621 33.6505C193.603 33.6506 193.594 33.6476 193.594 33.6416C193.594 33.6356 193.597 33.6296 193.603 33.6236C193.603 33.6176 193.612 33.6025 193.63 33.5785C193.69 33.5124 193.759 33.4523 193.837 33.3981L193.971 33.2989L193.969 32.1019C193.969 32.0779 193.978 32.0569 193.996 32.0388C194.038 31.9968 194.062 31.9757 194.068 31.9757C194.206 31.8435 194.331 31.7472 194.445 31.687L194.58 31.6148C194.67 31.5366 194.763 31.4644 194.859 31.3982C194.871 31.3922 194.889 31.3772 194.913 31.3531C195.104 31.2148 195.233 31.1456 195.299 31.1454C195.317 31.1454 195.53 31.214 195.939 31.3513L195.937 30.6493C195.799 30.5775 195.61 30.4909 195.37 30.3893C195.022 30.2399 194.731 30.1655 194.497 30.1659C194.443 30.166 194.371 30.1691 194.281 30.1753C194.197 30.1815 194.116 30.1906 194.038 30.2028L193.912 30.221L195.008 29.391L195.287 29.4985C195.473 29.5701 195.705 29.6357 195.981 29.6952C196.227 29.7547 196.479 29.7843 196.737 29.7838L196.809 29.7837C196.821 29.7836 196.828 30.4106 196.83 31.6646L196.824 33.1136L197.356 33.4637L197.356 33.4727C197.356 33.4847 197.341 33.5057 197.311 33.5357L197.041 33.7702C196.927 33.8604 196.79 33.9477 196.628 34.032L196.583 34.0591C196.547 34.0771 196.517 34.0862 196.493 34.0862C196.487 34.0863 196.301 33.9666 195.934 33.7273L195.808 33.8445C195.635 33.9828 195.497 34.0851 195.395 34.1513C195.263 34.2415 195.176 34.2867 195.134 34.2867ZM195.402 33.2782L195.42 33.2602C195.48 33.1941 195.546 33.134 195.618 33.0799L195.663 33.0438L195.942 32.8543L195.94 32.2873L194.851 31.9023L194.853 33.0633C195.045 33.1109 195.228 33.1826 195.402 33.2782ZM202.579 35.596L202.57 35.5961C202.312 35.4105 202.032 35.273 201.732 35.1836L201.723 35.1836L201.723 35.1746C201.471 35.1031 201.216 35.0675 200.958 35.068L200.895 35.0681C200.907 35.0681 200.937 35.0441 200.985 34.996L201.641 34.5358C201.641 34.5298 201.647 34.5238 201.659 34.5177C201.677 34.5117 201.698 34.4967 201.722 34.4726L201.71 28.1096C201.71 28.0916 201.716 28.0766 201.728 28.0646L200.98 27.634L201.718 27.1916C201.754 27.1735 201.786 27.1645 201.816 27.1644C201.852 27.1644 201.886 27.1733 201.916 27.1912L202.474 27.5412C202.51 27.5232 202.552 27.4961 202.6 27.46C202.648 27.4239 202.678 27.4028 202.69 27.3968C202.702 27.3908 202.72 27.3788 202.744 27.3607C202.786 27.3246 202.837 27.2856 202.897 27.2434C203.034 27.1412 203.115 27.09 203.139 27.09C203.482 27.3774 203.812 27.6078 204.131 27.7812C204.359 27.9067 204.605 27.9693 204.869 27.9688L205.004 27.9596C204.992 27.9596 204.974 27.9716 204.95 27.9957C204.932 28.0137 204.803 28.1099 204.564 28.2844L204.249 28.501L204.195 28.5461C204.153 28.5761 204.081 28.5913 203.979 28.5914C203.739 28.5919 203.505 28.5353 203.277 28.4217C203.049 28.3022 202.82 28.1526 202.592 27.973L202.597 30.502L204.253 30.4989L204.181 30.6071C204.073 30.7633 204.001 30.8624 203.965 30.9045C203.935 30.9465 203.909 30.9886 203.885 31.0306C203.813 31.1388 203.765 31.1928 203.741 31.1929L202.598 31.195L202.604 34.561C202.73 34.5968 202.853 34.6445 202.973 34.7043C203.045 34.7282 203.123 34.74 203.207 34.7399C203.297 34.7397 203.381 34.7366 203.459 34.7304C203.543 34.7243 203.612 34.7151 203.666 34.703L203.747 34.6939C203.262 35.0908 203.016 35.2922 203.01 35.2982C203.004 35.3043 202.942 35.3524 202.822 35.4426C202.678 35.5449 202.597 35.596 202.579 35.596ZM201.532 34.068L201.307 33.6904L201.297 28.5784L201.521 28.182L201.532 34.068ZM206.094 34.2216C206.082 34.2216 206.001 34.1827 205.851 34.105L205.626 33.9884L205.185 33.7732C205.185 33.7672 205.202 33.7462 205.238 33.7101C205.274 33.6741 205.316 33.635 205.364 33.5929C205.418 33.5448 205.466 33.5027 205.508 33.4666C205.556 33.4306 205.583 33.4095 205.589 33.4035C205.601 33.3975 205.613 33.3915 205.625 33.3854L205.619 30.2264L205.178 30.0112C205.178 30.0052 205.196 29.9842 205.231 29.9481C205.309 29.87 205.402 29.7888 205.51 29.7046C205.552 29.6686 205.576 29.6475 205.582 29.6415C205.594 29.6355 205.657 29.5904 205.771 29.5062C205.885 29.4219 205.971 29.3798 206.031 29.3797C206.043 29.3797 206.125 29.4185 206.275 29.4962L206.5 29.6038L206.941 29.828C206.941 29.834 206.923 29.852 206.887 29.8821C206.78 29.9843 206.69 30.0655 206.618 30.1256L206.501 30.2158L206.507 33.3658L206.948 33.59C206.948 33.596 206.93 33.614 206.894 33.6441C206.715 33.8124 206.58 33.9267 206.49 33.9868L206.346 34.0951C206.238 34.1793 206.154 34.2215 206.094 34.2216ZM206.175 28.9564C205.845 28.939 205.538 28.8376 205.256 28.6521L205.31 28.607C205.34 28.5889 205.364 28.5709 205.382 28.5529L205.688 28.3273C205.705 28.3153 205.774 28.2641 205.894 28.1739C206.02 28.0777 206.098 28.0295 206.128 28.0295L206.137 28.0295C206.419 28.215 206.725 28.3164 207.056 28.3338C207.05 28.3398 207.038 28.3488 207.02 28.3609C207.002 28.3729 206.975 28.3969 206.939 28.433L206.265 28.9112C206.223 28.9413 206.193 28.9564 206.175 28.9564ZM208.688 34.3068C208.508 34.1871 208.319 34.0855 208.121 34.0018C207.929 33.9182 207.76 33.8525 207.616 33.8048L207.4 33.7332L207.895 33.4082L207.886 28.6473C207.886 28.6233 207.895 28.6022 207.913 28.5842C207.955 28.5421 207.979 28.5211 207.985 28.5211C208.08 28.4309 208.182 28.3497 208.29 28.2775L208.38 28.2233C208.62 28.0909 208.749 28.0247 208.767 28.0246L208.777 33.4336L208.795 33.4336C208.939 33.4873 209.083 33.5141 209.227 33.5138C209.365 33.5135 209.482 33.5013 209.578 33.4772L209.722 33.4499L208.688 34.3068ZM214.612 34.2959C214.432 34.1762 214.243 34.0746 214.044 33.9909C213.846 33.9073 213.678 33.8416 213.54 33.7939L213.324 33.7223L213.836 33.3793L213.831 30.4003C213.603 30.3227 213.386 30.2151 213.182 30.0775L213.137 30.1136L213.142 32.6156C213.142 32.6576 213.112 32.6936 213.052 32.7238C212.92 32.856 212.732 32.9883 212.486 33.1208C212.348 33.199 212.27 33.2382 212.252 33.2382L212.247 30.3312C212.025 30.2536 211.823 30.14 211.643 29.9903L211.382 30.2068L211.388 33.3568L211.83 33.581C211.83 33.587 211.812 33.605 211.776 33.6351C211.596 33.8034 211.461 33.9177 211.371 33.9778L211.228 34.0861C211.12 34.1703 211.036 34.2125 210.976 34.2126C210.964 34.2126 210.883 34.1737 210.733 34.096L210.507 33.9794L210.066 33.7643C210.066 33.7583 210.084 33.7372 210.12 33.7012C210.156 33.6651 210.198 33.626 210.246 33.5839C210.3 33.5358 210.347 33.4937 210.389 33.4577C210.437 33.4216 210.464 33.4005 210.47 33.3945C210.482 33.3885 210.494 33.3825 210.506 33.3764L210.5 30.2174L210.059 30.0023C210.059 29.9963 210.077 29.9752 210.113 29.9392C210.191 29.861 210.284 29.7798 210.391 29.6956C210.433 29.6596 210.457 29.6385 210.463 29.6325C210.475 29.6265 210.538 29.5814 210.652 29.4972C210.766 29.413 210.853 29.3708 210.913 29.3707C210.925 29.3707 211.006 29.4095 211.156 29.4872L211.381 29.5948L211.616 29.7114C211.675 29.6633 211.732 29.6182 211.786 29.5761C211.846 29.534 211.879 29.5099 211.885 29.5039C211.897 29.4919 211.966 29.4437 212.092 29.3595C212.218 29.2753 212.302 29.2331 212.344 29.2331C212.356 29.233 212.365 29.236 212.371 29.242C212.569 29.4276 212.791 29.5712 213.037 29.6728C213.145 29.5766 213.229 29.5134 213.289 29.4833C213.307 29.4653 213.367 29.4202 213.469 29.348C213.601 29.2577 213.688 29.2126 213.73 29.2125C213.748 29.2125 213.76 29.2154 213.766 29.2214C214.036 29.4669 214.342 29.6494 214.685 29.7687L214.721 29.7597L214.721 29.7777C214.859 29.8254 215.003 29.8582 215.153 29.8759C215.165 29.8759 215.171 29.8788 215.171 29.8848C215.171 29.9028 215.165 29.9179 215.153 29.9299C215.141 29.9359 215.135 29.9419 215.135 29.9479C215.063 30.032 214.925 30.1403 214.722 30.2727L214.727 33.4317C214.871 33.4794 215.013 33.5031 215.151 33.5029C215.289 33.5026 215.405 33.4904 215.501 33.4662L215.645 33.439L214.612 34.2959ZM220.844 35.5624L220.835 35.5624C220.354 35.2093 219.817 35.0333 219.223 35.0344L219.16 35.0345C219.172 35.0345 219.201 35.0104 219.249 34.9623L219.285 34.9353C219.615 34.7007 219.825 34.5563 219.915 34.5021C219.915 34.4961 219.918 34.4901 219.924 34.4841C219.93 34.4841 219.939 34.4781 219.95 34.4661C219.962 34.46 219.974 34.451 219.986 34.439L219.975 28.085L219.155 27.6185L219.901 27.1581C219.937 27.1341 219.973 27.122 220.009 27.1219C220.045 27.1219 220.078 27.1338 220.108 27.1578L220.676 27.5077L220.685 27.5077C220.715 27.4836 220.742 27.4626 220.766 27.4445C220.79 27.4205 220.858 27.3664 220.972 27.2822C221.092 27.1919 221.182 27.1468 221.242 27.1467C221.26 27.1466 221.638 27.3199 222.377 27.6666C222.413 27.6305 222.452 27.5944 222.494 27.5584C222.542 27.5223 222.581 27.4892 222.611 27.4591C222.682 27.399 222.772 27.3328 222.88 27.2606C222.988 27.1824 223.066 27.1433 223.114 27.1432C223.126 27.1432 223.363 27.2538 223.826 27.4749L224.519 27.8066L224.53 33.5576L224.962 33.7818C224.962 33.7998 224.902 33.8569 224.783 33.9532L224.639 34.0794C224.537 34.1696 224.393 34.2719 224.207 34.3862C224.171 34.4043 224.141 34.4133 224.117 34.4134C224.105 34.4134 224.024 34.3746 223.874 34.2968L223.649 34.1802L223.208 33.9561L223.261 33.902C223.297 33.8659 223.339 33.8268 223.387 33.7847C223.441 33.7366 223.489 33.6945 223.531 33.6585C223.579 33.6224 223.606 33.6013 223.612 33.5953C223.624 33.5893 223.636 33.5833 223.648 33.5772L223.638 28.4293L222.702 27.981L222.709 32.121C222.709 32.145 222.7 32.166 222.682 32.184C222.664 32.2021 222.646 32.2201 222.628 32.2381C222.557 32.3103 222.449 32.3945 222.305 32.4907L222.053 32.6352C221.993 32.6713 221.942 32.6984 221.9 32.7165C221.858 32.7345 221.834 32.7436 221.828 32.7436L221.82 28.4326L220.866 27.9934L220.878 34.5273C221.004 34.5631 221.124 34.6109 221.238 34.6707C221.31 34.6946 221.391 34.7064 221.481 34.7062C221.565 34.7061 221.649 34.7029 221.733 34.6968C221.817 34.6906 221.886 34.6815 221.94 34.6694L222.021 34.6602L221.23 35.3007L220.924 35.5263C220.882 35.5503 220.856 35.5624 220.844 35.5624ZM219.806 34.0343L219.571 33.6568L219.562 28.5448L219.795 28.1483L219.806 34.0343ZM226.956 34.2282L226.929 34.2192C226.706 34.0516 226.472 33.905 226.226 33.7795C225.986 33.6539 225.725 33.5914 225.443 33.5919C225.425 33.592 225.416 33.589 225.416 33.583C225.416 33.577 225.419 33.571 225.425 33.565C225.425 33.559 225.434 33.544 225.451 33.5199C225.511 33.4538 225.58 33.3937 225.658 33.3395L225.793 33.2403L225.791 32.0433C225.791 32.0193 225.8 31.9983 225.818 31.9802C225.86 31.9382 225.884 31.9171 225.89 31.9171C226.027 31.7849 226.153 31.6886 226.267 31.6284L226.402 31.5562C226.492 31.478 226.585 31.4058 226.68 31.3397C226.692 31.3336 226.71 31.3186 226.734 31.2946C226.926 31.1562 227.055 31.087 227.121 31.0868C227.139 31.0868 227.352 31.1554 227.76 31.2927L227.759 30.5907C227.621 30.5189 227.432 30.4323 227.192 30.3307C226.843 30.1814 226.552 30.1069 226.318 30.1073C226.264 30.1074 226.192 30.1106 226.102 30.1167C226.018 30.1229 225.937 30.132 225.859 30.1442L225.733 30.1624L226.83 29.3324L227.109 29.4399C227.295 29.5115 227.526 29.5771 227.802 29.6366C228.048 29.6961 228.3 29.7257 228.558 29.7252L228.63 29.7251C228.642 29.725 228.65 30.352 228.652 31.606L228.646 33.055L229.177 33.4051L229.177 33.4141C229.177 33.4261 229.162 33.4471 229.132 33.4771L228.863 33.7116C228.749 33.8019 228.611 33.8891 228.449 33.9734L228.404 34.0005C228.368 34.0186 228.338 34.0276 228.314 34.0277C228.308 34.0277 228.122 33.908 227.756 33.6687L227.63 33.7859C227.456 33.9242 227.318 34.0265 227.217 34.0927C227.085 34.1829 226.998 34.2281 226.956 34.2282ZM227.224 33.2197L227.242 33.2016C227.302 33.1355 227.368 33.0754 227.44 33.0213L227.484 32.9852L227.763 32.7957L227.762 32.2287L226.672 31.8437L226.675 33.0047C226.867 33.0523 227.05 33.124 227.224 33.2197ZM232.844 35.1443C232.658 35.1207 232.463 35.037 232.259 34.8934C232.055 34.7558 231.952 34.621 231.952 34.489L231.945 30.286C231.698 30.2144 231.464 30.1128 231.242 29.9813L230.909 30.2159L230.915 33.3209L231.348 33.5451C231.348 33.5631 231.288 33.6202 231.168 33.7164C231.114 33.7645 231.063 33.8096 231.015 33.8517C230.967 33.8878 230.925 33.9208 230.889 33.9509C230.853 33.975 230.808 34.0081 230.754 34.0502C230.641 34.1344 230.557 34.1765 230.503 34.1766C230.491 34.1766 230.407 34.1378 230.25 34.0601C230.1 33.9824 229.953 33.9076 229.809 33.8359L229.593 33.7283C229.593 33.7043 229.653 33.6412 229.773 33.539C229.826 33.4969 229.874 33.4578 229.916 33.4217C229.964 33.3796 230 33.3525 230.024 33.3405L230.015 28.6065C230.015 28.5825 230.024 28.5615 230.042 28.5435C230.084 28.5014 230.111 28.4803 230.123 28.4803C230.219 28.3901 230.318 28.309 230.42 28.2368C230.432 28.2307 230.462 28.2157 230.51 28.1916C230.558 28.1615 230.612 28.1314 230.671 28.1013C230.737 28.0652 230.788 28.0381 230.824 28.02C230.866 27.9959 230.893 27.9839 230.905 27.9839L230.909 29.8829L231.008 29.8017L231.026 29.8017C231.044 29.7716 231.082 29.7296 231.142 29.6754C231.298 29.5492 231.391 29.477 231.421 29.4589C231.427 29.4529 231.49 29.4078 231.61 29.3236C231.736 29.2333 231.822 29.1882 231.87 29.1881L231.898 29.197C232.306 29.5143 232.768 29.6994 233.285 29.7525C233.297 29.7525 233.306 29.7555 233.312 29.7614C233.312 29.7674 233.309 29.7765 233.303 29.7885C233.297 29.7945 233.291 29.8005 233.285 29.8065C233.279 29.8125 233.273 29.8185 233.267 29.8245C233.207 29.8906 233.141 29.9478 233.069 29.9959L232.835 30.1673L232.842 34.0103C232.843 34.3403 232.987 34.5111 233.275 34.5225L233.392 34.5223L233.626 34.5129L232.844 35.1443ZM235.142 34.2131L235.115 34.2041C234.893 34.0365 234.658 33.89 234.412 33.7644C234.172 33.6389 233.911 33.5764 233.629 33.5769C233.611 33.5769 233.602 33.5739 233.602 33.5679C233.602 33.5619 233.605 33.5559 233.611 33.5499C233.611 33.5439 233.62 33.5289 233.638 33.5049C233.697 33.4387 233.766 33.3786 233.844 33.3245L233.979 33.2252L233.977 32.0282C233.977 32.0042 233.986 31.9832 234.004 31.9652C234.046 31.9231 234.07 31.9021 234.076 31.902C234.213 31.7698 234.339 31.6736 234.453 31.6133L234.588 31.5411C234.678 31.4629 234.771 31.3908 234.867 31.3246C234.879 31.3186 234.897 31.3035 234.92 31.2795C235.112 31.1411 235.241 31.0719 235.307 31.0718C235.325 31.0717 235.538 31.1403 235.946 31.2776L235.945 30.5756C235.807 30.5039 235.618 30.4172 235.378 30.3156C235.029 30.1663 234.738 30.0918 234.504 30.0923C234.45 30.0924 234.378 30.0955 234.288 30.1016C234.204 30.1078 234.123 30.117 234.045 30.1291L233.919 30.1473L235.016 29.3173L235.295 29.4248C235.481 29.4965 235.712 29.562 235.988 29.6215C236.235 29.6811 236.487 29.7106 236.745 29.7101L236.817 29.71C236.829 29.71 236.836 30.337 236.838 31.591L236.832 33.04L237.363 33.39L237.363 33.399C237.363 33.411 237.348 33.432 237.319 33.4621L237.049 33.6966C236.935 33.7868 236.797 33.874 236.635 33.9583L236.59 33.9854C236.555 34.0035 236.525 34.0125 236.501 34.0126C236.495 34.0126 236.308 33.8929 235.942 33.6536L235.816 33.7708C235.642 33.9092 235.505 34.0114 235.403 34.0776C235.271 34.1678 235.184 34.213 235.142 34.2131ZM235.41 33.2046L235.428 33.1866C235.488 33.1204 235.554 33.0603 235.626 33.0062L235.671 32.9701L235.949 32.7806L235.948 32.2136L234.859 31.8286L234.861 32.9896C235.053 33.0372 235.236 33.1089 235.41 33.2046ZM239.364 34.3583C239.118 34.1968 238.86 34.0562 238.589 33.9367C238.385 33.8471 238.175 33.8025 237.959 33.8029C237.881 33.803 237.803 33.8092 237.725 33.8213C237.761 33.8033 237.788 33.7852 237.806 33.7672C237.83 33.7431 237.95 33.6529 238.166 33.4965L238.48 33.2799C238.486 33.2799 238.51 33.2649 238.552 33.2348C238.6 33.1987 238.696 33.1805 238.84 33.1803C239.194 33.1796 239.59 33.3199 240.029 33.6011L240.026 32.0531C239.93 31.9333 239.804 31.8705 239.648 31.8648L239.549 31.865C239.429 31.8652 239.315 31.8804 239.207 31.9106C238.961 31.983 238.724 32.0825 238.496 32.2089L238.334 32.2992C238.328 32.3052 238.316 32.3142 238.298 32.3263C238.28 32.3323 238.262 32.3383 238.244 32.3444C238.226 32.3504 238.211 32.3534 238.199 32.3535L238.181 32.3535L238.178 30.3195C238.178 30.2835 238.205 30.2474 238.259 30.2113C238.33 30.1392 238.438 30.055 238.582 29.9587L238.825 29.8053C238.963 29.733 239.041 29.6969 239.059 29.6969L239.535 29.336C239.661 29.2398 239.739 29.1916 239.769 29.1916L239.778 29.1915C240.216 29.5087 240.706 29.6908 241.246 29.7378C241.228 29.7379 241.186 29.7709 241.12 29.8371L240.455 30.3063C240.401 30.3424 240.368 30.3605 240.356 30.3605C239.888 30.3193 239.455 30.1731 239.059 29.9219L239.062 31.7039L239.098 31.6858C239.38 31.5233 239.674 31.3937 239.98 31.2972C240.111 31.2549 240.255 31.2337 240.411 31.2334L240.591 31.233C240.693 31.2329 240.799 31.2987 240.907 31.4305L240.91 33.0865L241.144 33.032C241.162 33.032 241.171 33.035 241.171 33.041C241.171 33.053 241.165 33.065 241.153 33.077C241.141 33.089 241.129 33.1011 241.117 33.1131C241.111 33.1251 241.105 33.1341 241.099 33.1401C240.973 33.2603 240.775 33.4137 240.506 33.6002C240.5 33.6002 240.482 33.6093 240.452 33.6273C240.428 33.6454 240.395 33.6664 240.353 33.6905C240.317 33.7086 240.266 33.7416 240.2 33.7898C240.134 33.8319 240.074 33.871 240.02 33.9071C239.966 33.9372 239.921 33.9673 239.885 33.9974C239.85 34.0274 239.826 34.0455 239.814 34.0515C239.802 34.0575 239.778 34.0725 239.742 34.0966C239.712 34.1267 239.67 34.1627 239.616 34.2048C239.472 34.3071 239.388 34.3583 239.364 34.3583ZM242.637 34.1543C242.625 34.1543 242.544 34.1155 242.394 34.0377L242.169 33.9211L241.728 33.706C241.728 33.7 241.746 33.6789 241.782 33.6429C241.817 33.6068 241.859 33.5677 241.907 33.5256C241.961 33.4775 242.009 33.4354 242.051 33.3994C242.099 33.3633 242.126 33.3422 242.132 33.3362C242.144 33.3302 242.156 33.3242 242.168 33.3181L242.162 30.1592L241.721 29.944C241.721 29.938 241.739 29.9169 241.775 29.8809C241.852 29.8027 241.945 29.7216 242.053 29.6374C242.095 29.6013 242.119 29.5802 242.125 29.5742C242.137 29.5682 242.2 29.5231 242.314 29.4389C242.428 29.3547 242.515 29.3125 242.575 29.3124C242.587 29.3124 242.668 29.3512 242.818 29.4289L243.043 29.5365L243.484 29.7607C243.484 29.7667 243.466 29.7848 243.43 29.8148C243.323 29.917 243.233 29.9982 243.161 30.0583L243.044 30.1485L243.05 33.2985L243.491 33.5227C243.491 33.5287 243.473 33.5467 243.437 33.5768C243.258 33.7451 243.123 33.8594 243.033 33.9196L242.889 34.0278C242.781 34.112 242.697 34.1542 242.637 34.1543ZM242.718 28.8891C242.388 28.8717 242.082 28.7703 241.799 28.5848L241.853 28.5397C241.883 28.5217 241.907 28.5036 241.925 28.4856L242.231 28.26C242.249 28.248 242.318 28.1969 242.437 28.1066C242.563 28.0104 242.641 27.9623 242.671 27.9622L242.68 27.9622C242.962 28.1477 243.269 28.2491 243.599 28.2665C243.593 28.2725 243.581 28.2815 243.563 28.2936C243.545 28.3056 243.518 28.3297 243.482 28.3657L242.808 28.844C242.766 28.874 242.736 28.8891 242.718 28.8891ZM245.538 34.3469C245.291 34.1854 245.033 34.0449 244.763 33.9254C244.559 33.8357 244.349 33.7911 244.133 33.7915C244.055 33.7917 243.977 33.7978 243.899 33.81C243.935 33.7919 243.962 33.7738 243.979 33.7558C244.003 33.7318 244.123 33.6415 244.339 33.4852L244.654 33.2686C244.66 33.2686 244.684 33.2535 244.726 33.2234C244.773 33.1873 244.869 33.1692 245.013 33.1689C245.367 33.1683 245.764 33.3085 246.202 33.5897L246.199 32.0417C246.103 31.9219 245.977 31.8591 245.821 31.8534L245.722 31.8536C245.602 31.8538 245.488 31.869 245.38 31.8992C245.134 31.9717 244.897 32.0711 244.67 32.1975L244.508 32.2878C244.502 32.2938 244.49 32.3029 244.472 32.3149C244.454 32.3209 244.436 32.327 244.418 32.333C244.4 32.339 244.385 32.3421 244.373 32.3421L244.355 32.3421L244.351 30.3081C244.351 30.2721 244.378 30.2361 244.432 30.2C244.504 30.1278 244.612 30.0436 244.755 29.9474L244.998 29.7939C245.136 29.7217 245.214 29.6855 245.232 29.6855L245.708 29.3246C245.834 29.2284 245.912 29.1802 245.942 29.1802L245.951 29.1802C246.39 29.4974 246.879 29.6795 247.419 29.7265C247.401 29.7265 247.359 29.7596 247.293 29.8257L246.628 30.2949C246.574 30.331 246.541 30.3491 246.529 30.3491C246.061 30.308 245.629 30.1618 245.232 29.9105L245.236 31.6925L245.272 31.6744C245.553 31.5119 245.847 31.3824 246.153 31.2858C246.285 31.2436 246.429 31.2223 246.585 31.222L246.765 31.2217C246.867 31.2215 246.972 31.2873 247.08 31.4191L247.083 33.0751L247.317 33.0207C247.335 33.0206 247.344 33.0236 247.344 33.0296C247.344 33.0416 247.338 33.0536 247.326 33.0656C247.314 33.0777 247.302 33.0897 247.29 33.1017C247.284 33.1137 247.278 33.1227 247.272 33.1287C247.147 33.249 246.949 33.4023 246.679 33.5888C246.673 33.5889 246.655 33.5979 246.625 33.6159C246.601 33.634 246.568 33.655 246.526 33.6791C246.49 33.6972 246.439 33.7303 246.374 33.7784C246.308 33.8205 246.248 33.8596 246.194 33.8957C246.14 33.9258 246.095 33.9559 246.059 33.986C246.023 34.0161 245.999 34.0341 245.987 34.0401C245.975 34.0461 245.951 34.0612 245.915 34.0852C245.885 34.1153 245.843 34.1514 245.789 34.1935C245.645 34.2957 245.562 34.3469 245.538 34.3469ZM251.241 34.3454L251.214 34.3365C250.884 34.0971 250.551 33.9267 250.214 33.8253L249.864 34.114L249.72 34.2132C249.594 34.3035 249.507 34.3486 249.459 34.3487L249.423 34.3398L249.297 34.259C248.853 33.9418 248.462 33.7836 248.126 33.7842C248.06 33.7843 247.994 33.7904 247.928 33.8025L247.91 33.8026C247.904 33.8026 247.901 33.7996 247.901 33.7936C247.901 33.7876 247.904 33.7786 247.91 33.7666C247.922 33.7546 247.931 33.7485 247.937 33.7485C247.943 33.7425 247.946 33.7365 247.946 33.7305C248.006 33.6644 248.072 33.6073 248.144 33.5591C248.162 33.5471 248.18 33.5351 248.198 33.523C248.222 33.505 248.246 33.484 248.27 33.4599C248.3 33.4359 248.33 33.4148 248.36 33.3967L248.354 30.1478L247.912 29.9326C247.912 29.9266 247.93 29.9055 247.966 29.8695C248.068 29.7673 248.203 29.653 248.37 29.5267L248.514 29.4185C248.628 29.3402 248.712 29.3011 248.766 29.301C248.778 29.301 248.859 29.3398 249.009 29.4175C249.159 29.4893 249.306 29.564 249.451 29.6417L249.667 29.7493C249.667 29.7673 249.607 29.8244 249.487 29.9207L249.236 30.1371L249.241 33.1881C249.499 33.2536 249.748 33.3612 249.989 33.5107C250.013 33.4927 250.037 33.4747 250.061 33.4566C250.085 33.4326 250.112 33.4115 250.142 33.3935L250.136 30.1445C250.135 30.1085 250.162 30.0724 250.216 30.0363C250.288 29.9642 250.396 29.88 250.54 29.7837L250.792 29.6303C250.929 29.558 251.004 29.5219 251.016 29.5218L251.023 33.1848C251.323 33.2623 251.606 33.3908 251.87 33.5703L251.864 30.1413L251.431 29.9261C251.431 29.9141 251.446 29.8931 251.476 29.863C251.512 29.8269 251.557 29.7879 251.611 29.7458C251.665 29.6977 251.713 29.6556 251.755 29.6195C251.797 29.5834 251.823 29.5624 251.835 29.5563C251.847 29.5503 251.862 29.5383 251.88 29.5203C251.922 29.4902 251.97 29.4571 252.024 29.421C252.084 29.3789 252.135 29.3488 252.177 29.3307C252.219 29.3066 252.252 29.2946 252.276 29.2945C252.288 29.2945 252.369 29.3334 252.519 29.4111C252.669 29.4828 252.744 29.5187 252.744 29.5187C252.75 29.5187 252.825 29.5575 252.97 29.6353L253.186 29.7429C253.186 29.7549 253.168 29.7759 253.132 29.806C253.096 29.836 253.054 29.8721 253.006 29.9142L252.755 30.1306C252.758 32.1946 252.757 33.2297 252.751 33.2357L253.382 33.7115L253.382 33.7205C253.382 33.7325 253.367 33.7535 253.337 33.7836C253.217 33.8918 253.131 33.967 253.077 34.0091C253.023 34.0452 252.99 34.0692 252.978 34.0812C252.876 34.1534 252.768 34.2196 252.654 34.2798L252.609 34.3069C252.567 34.325 252.537 34.3341 252.519 34.3341C252.513 34.3341 252.312 34.1875 251.915 33.8942L251.646 34.1107C251.604 34.1408 251.553 34.1739 251.493 34.21C251.439 34.2521 251.388 34.2852 251.34 34.3093C251.298 34.3333 251.265 34.3454 251.241 34.3454ZM255.322 34.1759L255.295 34.167C255.072 33.9994 254.838 33.8528 254.592 33.7273C254.351 33.6017 254.09 33.5392 253.808 33.5397C253.79 33.5397 253.781 33.5368 253.781 33.5308C253.781 33.5248 253.784 33.5188 253.79 33.5127C253.79 33.5067 253.799 33.4917 253.817 33.4677C253.877 33.4016 253.946 33.3415 254.024 33.2873L254.159 33.1881L254.157 31.9911C254.156 31.9671 254.165 31.9461 254.183 31.928C254.225 31.8859 254.249 31.8649 254.255 31.8649C254.393 31.7326 254.519 31.6364 254.633 31.5762L254.768 31.5039C254.857 31.4258 254.95 31.3536 255.046 31.2874C255.058 31.2814 255.076 31.2664 255.1 31.2423C255.292 31.104 255.421 31.0347 255.487 31.0346C255.505 31.0346 255.718 31.1032 256.126 31.2404L256.125 30.5384C255.987 30.4667 255.798 30.38 255.557 30.2785C255.209 30.1291 254.918 30.0547 254.684 30.0551C254.63 30.0552 254.558 30.0583 254.468 30.0645C254.384 30.0706 254.303 30.0798 254.225 30.0919L254.099 30.1102L255.196 29.2802L255.475 29.3876C255.661 29.4593 255.892 29.5249 256.168 29.5844C256.414 29.6439 256.666 29.6734 256.924 29.673L256.996 29.6728C257.008 29.6728 257.015 30.2998 257.018 31.5538L257.011 33.0028L257.543 33.3528L257.543 33.3618C257.543 33.3738 257.528 33.3949 257.498 33.4249L257.229 33.6594C257.115 33.7496 256.977 33.8369 256.815 33.9212L256.77 33.9483C256.734 33.9663 256.704 33.9754 256.68 33.9754C256.674 33.9754 256.488 33.8558 256.122 33.6165L255.996 33.7337C255.822 33.872 255.684 33.9743 255.582 34.0405C255.45 34.1307 255.364 34.1759 255.322 34.1759ZM255.59 33.1674L255.608 33.1494C255.668 33.0833 255.733 33.0232 255.805 32.969L255.85 32.933L256.129 32.7434L256.128 32.1764L255.038 31.7914L255.04 32.9524C255.232 33.0001 255.416 33.0718 255.59 33.1674Z" fill="black"/>
<path d="M184.163 24.48L181.723 23.2H182.263C182.663 23.2 183.03 23.16 183.363 23.08C183.95 22.92 184.243 22.64 184.243 22.24V7.9C184.083 7.83333 183.923 7.75333 183.763 7.66C183.523 7.59333 183.276 7.56 183.023 7.56C182.73 7.56 182.436 7.58667 182.143 7.64L183.603 6.36L183.783 6.22C184.276 5.82 184.57 5.6 184.663 5.56C185.796 6.44 187.056 6.89333 188.443 6.92C188.43 6.92 188.41 6.93333 188.383 6.96C188.37 6.97333 188.356 6.98667 188.343 7C187.823 7.41333 187.323 7.78667 186.843 8.12C186.736 8.2 186.67 8.24667 186.643 8.26C186.63 8.27333 186.616 8.28667 186.603 8.3C186.59 8.31333 186.456 8.32 186.203 8.32V13.04L189.523 9.9C189.15 9.59333 188.79 9.26667 188.443 8.92C188.443 8.88 188.57 8.7 188.823 8.38C188.983 8.15333 189.096 8.00667 189.163 7.94L189.883 7L191.443 8.56C191.443 8.58667 191.403 8.65333 191.323 8.76C191.256 8.85333 191.17 8.96667 191.063 9.1C190.97 9.23333 190.89 9.33333 190.823 9.4C190.77 9.46667 190.736 9.51333 190.723 9.54C190.71 9.55333 190.67 9.6 190.603 9.68C190.55 9.76 190.483 9.85333 190.403 9.96C190.336 10.0533 190.283 10.1333 190.243 10.2L190.163 10.32L186.823 13.46H190.783L190.743 13.5L190.803 13.48V19.88L191.763 20.38C191.763 20.42 191.63 20.5467 191.363 20.76C191.07 21.0133 190.903 21.1533 190.863 21.18C190.823 21.22 190.683 21.32 190.443 21.48C190.163 21.68 189.976 21.78 189.883 21.78L188.823 21.26L187.863 20.76C187.863 20.7333 187.996 20.6 188.263 20.36C188.383 20.2667 188.49 20.18 188.583 20.1C188.69 20.0067 188.77 19.9467 188.823 19.92V14.98H186.203V22.58C186.203 22.9933 186.11 23.32 185.923 23.56C185.59 23.9867 185.003 24.2933 184.163 24.48ZM183.823 22.24L183.323 21.4V9.18L183.823 8.28V22.24ZM194.178 21.56L193.678 20.72V9.28L194.178 8.4V21.56ZM196.598 24.32H196.578C195.511 23.5333 194.318 23.14 192.998 23.14H192.858C192.871 23.14 192.898 23.12 192.938 23.08L193.138 22.92L193.818 22.44C194.285 22.1067 194.531 21.94 194.558 21.94C194.571 21.9133 194.598 21.8867 194.638 21.86C194.638 12.54 194.645 7.86667 194.658 7.84L194.258 7.66C194.005 7.59333 193.745 7.56 193.478 7.56C193.158 7.56 192.845 7.58667 192.538 7.64C193.605 6.77333 194.145 6.33333 194.158 6.32C194.171 6.29333 194.218 6.26 194.298 6.22C194.818 5.82 195.125 5.6 195.218 5.56C196.418 6.44 197.758 6.89333 199.238 6.92C199.225 6.92 199.205 6.93333 199.178 6.96C199.165 6.97333 199.145 6.98667 199.118 7C198.585 7.4 198.058 7.77333 197.538 8.12L197.518 8.14C197.451 8.19333 197.398 8.23333 197.358 8.26C197.318 8.27333 197.291 8.28667 197.278 8.3C197.265 8.31333 197.251 8.32 197.238 8.32L196.598 8.3V22C196.905 22.0933 197.198 22.2067 197.478 22.34C197.638 22.3933 197.818 22.42 198.018 22.42C198.205 22.42 198.391 22.4133 198.578 22.4C198.765 22.3867 198.918 22.3667 199.038 22.34L199.218 22.32C198.125 23.2 197.565 23.6467 197.538 23.66C197.511 23.6867 197.258 23.88 196.778 24.24C196.685 24.2933 196.625 24.32 196.598 24.32ZM201.249 20.92L200.729 20.08V8.72L201.249 7.84V20.92ZM203.549 24.32H203.529C202.462 23.5333 201.269 23.14 199.949 23.14H199.809C199.836 23.14 199.902 23.0867 200.009 22.98L200.089 22.92C200.822 22.4 201.289 22.08 201.489 21.96C201.489 21.9467 201.496 21.9333 201.509 21.92C201.522 21.92 201.542 21.9067 201.569 21.88C201.596 21.8667 201.622 21.8467 201.649 21.82V7.7L199.829 6.66L201.489 5.64C201.569 5.58667 201.649 5.56 201.729 5.56C201.809 5.56 201.882 5.58667 201.949 5.64L203.189 6.42L203.609 6.12C204.009 5.8 204.302 5.64 204.489 5.64L208.489 7.1L208.469 7.12V19.88L209.449 20.38C209.449 20.3933 209.409 20.44 209.329 20.52C209.249 20.5867 209.149 20.6733 209.029 20.78C208.922 20.8733 208.816 20.96 208.709 21.04C208.616 21.12 208.556 21.1667 208.529 21.18C208.516 21.2067 208.482 21.2333 208.429 21.26C208.336 21.3267 208.229 21.4 208.109 21.48C207.989 21.5733 207.876 21.6467 207.769 21.7C207.676 21.7533 207.602 21.78 207.549 21.78L207.469 21.76L206.509 21.26L205.529 20.76L205.649 20.64C205.729 20.56 205.822 20.4733 205.929 20.38C206.049 20.2733 206.156 20.18 206.249 20.1C206.356 20.02 206.416 19.9733 206.429 19.96C206.456 19.9467 206.482 19.9333 206.509 19.92V8.48L203.629 7.42V22.02C203.909 22.1 204.176 22.2067 204.429 22.34C204.589 22.3933 204.769 22.42 204.969 22.42C205.156 22.42 205.342 22.4133 205.529 22.4C205.716 22.3867 205.869 22.3667 205.989 22.34L206.169 22.32L204.409 23.74L203.729 24.24C203.636 24.2933 203.576 24.32 203.549 24.32ZM215.883 24.26C215.843 24.26 215.583 24.0933 215.103 23.76C214.623 23.4267 214.136 23.12 213.643 22.84C213.15 22.56 212.636 22.36 212.103 22.24L212.043 22.26V22.24C211.83 22.2 211.616 22.18 211.403 22.18C211.23 22.18 211.05 22.1933 210.863 22.22C210.823 22.22 210.803 22.2133 210.803 22.2C210.803 22.1867 210.823 22.16 210.863 22.12L210.903 22.06C211.076 21.8467 211.256 21.6933 211.443 21.6L211.623 21.44C211.756 21.3333 211.896 21.2333 212.043 21.14V7.7L212.063 7.64L210.283 6.62L211.923 5.64C212.003 5.6 212.076 5.58 212.143 5.58C212.223 5.58 212.296 5.6 212.363 5.64L213.683 6.46C213.87 6.38 214.016 6.28667 214.123 6.18L214.563 5.84C214.856 5.62667 215.036 5.52 215.103 5.52C215.116 5.52 215.29 5.64667 215.623 5.9C216.17 6.32667 216.743 6.70667 217.343 7.04C217.876 7.33333 218.443 7.48 219.043 7.48L219.343 7.46C219.276 7.46 219.21 7.50667 219.143 7.6L219.063 7.66L217.503 8.76C217.45 8.8 217.403 8.82667 217.363 8.84L217.043 8.86C216.15 8.86 215.143 8.42 214.023 7.54V13H217.783C217.743 13.0667 217.716 13.1067 217.703 13.12C217.69 13.1333 217.67 13.16 217.643 13.2C217.63 13.24 217.49 13.4333 217.223 13.78C217.196 13.8067 217.103 13.94 216.943 14.18C216.796 14.42 216.696 14.54 216.643 14.54H214.023V20.86C214.703 21.02 215.35 21.2933 215.963 21.68C216.51 21.96 217.136 22.1 217.843 22.1C218.123 22.1 218.396 22.0733 218.663 22.02L219.043 21.94L217.483 23.16C217.136 23.4667 216.93 23.6333 216.863 23.66C216.81 23.7133 216.656 23.8267 216.403 24C216.163 24.1733 215.99 24.26 215.883 24.26ZM211.643 20.92L211.143 20.08V8.72L211.643 7.84V20.92ZM221.874 24.48L219.434 23.2H219.974C220.374 23.2 220.741 23.16 221.074 23.08C221.661 22.92 221.954 22.64 221.954 22.24V7.9C221.794 7.83333 221.634 7.75333 221.474 7.66C221.234 7.59333 220.987 7.56 220.734 7.56C220.441 7.56 220.147 7.58667 219.854 7.64L221.314 6.36L221.494 6.22C221.987 5.82 222.281 5.6 222.374 5.56C223.507 6.44 224.767 6.89333 226.154 6.92C226.141 6.92 226.121 6.93333 226.094 6.96C226.081 6.97333 226.067 6.98667 226.054 7C225.534 7.41333 225.034 7.78667 224.554 8.12C224.447 8.2 224.381 8.24667 224.354 8.26C224.341 8.27333 224.327 8.28667 224.314 8.3C224.301 8.31333 224.167 8.32 223.914 8.32V13.04L227.234 9.9C226.861 9.59333 226.501 9.26667 226.154 8.92C226.154 8.88 226.281 8.7 226.534 8.38C226.694 8.15333 226.807 8.00667 226.874 7.94L227.594 7L229.154 8.56C229.154 8.58667 229.114 8.65333 229.034 8.76C228.967 8.85333 228.881 8.96667 228.774 9.1C228.681 9.23333 228.601 9.33333 228.534 9.4C228.481 9.46667 228.447 9.51333 228.434 9.54C228.421 9.55333 228.381 9.6 228.314 9.68C228.261 9.76 228.194 9.85333 228.114 9.96C228.047 10.0533 227.994 10.1333 227.954 10.2L227.874 10.32L224.534 13.46H228.494L228.454 13.5L228.514 13.48V19.88L229.474 20.38C229.474 20.42 229.341 20.5467 229.074 20.76C228.781 21.0133 228.614 21.1533 228.574 21.18C228.534 21.22 228.394 21.32 228.154 21.48C227.874 21.68 227.687 21.78 227.594 21.78L226.534 21.26L225.574 20.76C225.574 20.7333 225.707 20.6 225.974 20.36C226.094 20.2667 226.201 20.18 226.294 20.1C226.401 20.0067 226.481 19.9467 226.534 19.92V14.98H223.914V22.58C223.914 22.9933 223.821 23.32 223.634 23.56C223.301 23.9867 222.714 24.2933 221.874 24.48ZM221.534 22.24L221.034 21.4V9.18L221.534 8.28V22.24ZM235.707 24.26C235.681 24.26 235.427 24.0867 234.947 23.74C234.334 23.2867 233.694 22.8933 233.027 22.56C232.521 22.3067 231.994 22.18 231.447 22.18C231.274 22.18 231.094 22.1933 230.907 22.22C230.867 22.22 230.847 22.2133 230.847 22.2L230.927 22.06C231.061 21.9133 231.214 21.78 231.387 21.66C231.414 21.6333 231.447 21.6133 231.487 21.6C231.634 21.4533 231.834 21.3 232.087 21.14V7.66C231.874 7.59333 231.641 7.56 231.387 7.56C231.094 7.56 230.801 7.58667 230.507 7.64C231.494 6.77333 231.994 6.33333 232.007 6.32C232.034 6.29333 232.081 6.26 232.147 6.22C232.641 5.82 232.934 5.6 233.027 5.56C234.161 6.44 235.421 6.89333 236.807 6.92L235.967 7.56C235.727 7.74667 235.474 7.93333 235.207 8.12C235.101 8.2 235.034 8.24667 235.007 8.26C234.994 8.27333 234.974 8.28667 234.947 8.3C234.934 8.31333 234.854 8.32 234.707 8.32C234.494 8.32 234.281 8.30667 234.067 8.28C234.067 16.6533 234.061 20.8467 234.047 20.86C234.727 21.0333 235.374 21.3267 235.987 21.74L236.007 21.76C236.487 21.9867 237.034 22.1 237.647 22.1C237.914 22.1 238.174 22.0733 238.427 22.02L238.787 21.94L237.567 22.94C237.501 23.02 237.407 23.1133 237.287 23.22C236.981 23.4733 236.787 23.62 236.707 23.66C236.641 23.7267 236.501 23.8267 236.287 23.96C235.994 24.16 235.801 24.26 235.707 24.26ZM231.687 20.92L231.167 20.08V8.84L231.687 7.96V20.92ZM243.964 24.26C243.91 24.26 243.724 24.1533 243.404 23.94C242.63 23.4467 241.804 23.0067 240.924 22.62C240.257 22.3267 239.577 22.18 238.884 22.18C238.657 22.18 238.437 22.1933 238.224 22.22C238.197 22.22 238.184 22.2133 238.184 22.2C238.184 22.1467 238.21 22.1067 238.264 22.08V22.06C238.397 21.9133 238.55 21.78 238.724 21.66C238.75 21.6333 238.784 21.6133 238.824 21.6C238.97 21.4533 239.17 21.3 239.424 21.14V7.92C239.237 7.84 239.057 7.75333 238.884 7.66C238.644 7.59333 238.397 7.56 238.144 7.56C237.85 7.56 237.557 7.58667 237.264 7.64C238.25 6.77333 238.75 6.33333 238.764 6.32C238.79 6.29333 238.837 6.26 238.904 6.22C239.397 5.82 239.69 5.6 239.784 5.56C240.917 6.44 242.177 6.89333 243.564 6.92C243.55 6.92 243.53 6.93333 243.504 6.96C243.49 6.97333 243.23 7.17333 242.724 7.56C242.484 7.74667 242.23 7.93333 241.964 8.12C241.857 8.2 241.79 8.24667 241.764 8.26C241.75 8.27333 241.73 8.28667 241.704 8.3C241.69 8.31333 241.584 8.32 241.384 8.32V20.82C242.157 20.94 242.944 21.2 243.744 21.6C243.997 21.7333 244.284 21.82 244.604 21.86V7.92L243.644 7.42C243.644 7.38 243.777 7.24667 244.044 7.02L244.364 6.76C244.59 6.56 244.91 6.33333 245.324 6.08C245.404 6.04 245.47 6.02 245.524 6.02C245.55 6.02 245.73 6.10667 246.064 6.28L246.564 6.54L247.544 7.04L247.424 7.16C247.344 7.24 247.244 7.33333 247.124 7.44C247.017 7.53333 246.91 7.62 246.804 7.7C246.71 7.78 246.65 7.82667 246.624 7.84C246.61 7.85333 246.59 7.86667 246.564 7.88V21.84L247.564 21.7L244.524 23.98C244.27 24.1667 244.084 24.26 243.964 24.26ZM239.024 20.92L238.504 20.1V9.06L239.024 8.2V20.92ZM250.119 21.98L249.599 21.14V9.18L250.119 8.28V21.98ZM250.679 24.62C250.612 24.62 250.539 24.6 250.459 24.56C250.379 24.52 250.205 24.3933 249.939 24.18L249.519 23.82C249.372 23.7133 249.259 23.62 249.179 23.54L248.879 23.3C248.732 23.22 248.605 23.1133 248.499 22.98H248.479L248.419 22.86H248.439C248.625 22.8867 248.812 22.9 248.999 22.9C249.559 22.9 250.079 22.7467 250.559 22.44V7.58C249.879 7.40667 249.205 7.22667 248.539 7.04V7.02L248.759 6.76C248.972 6.57333 249.199 6.4 249.439 6.24L249.579 6.12C249.965 5.81333 250.259 5.66 250.459 5.66L252.439 6.18L252.519 6.16V6.2L253.779 6.56L257.139 7.46L257.119 7.48V9.86C257.119 9.9 257.099 9.94667 257.059 10C257.019 10.04 256.979 10.0733 256.939 10.1C256.912 10.1133 256.892 10.1267 256.879 10.14C256.772 10.2467 256.519 10.4467 256.119 10.74C255.265 11.38 254.412 12.0467 253.559 12.74C254.945 12.8067 256.225 13.2333 257.399 14.02V20.08C257.399 20.12 257.339 20.2 257.219 20.32C257.059 20.48 256.819 20.6667 256.499 20.88L256.039 21.14C255.585 21.3933 254.399 22.16 252.479 23.44C252.492 23.44 252.499 23.4467 252.499 23.46H252.479C252.305 23.6067 252.119 23.7267 251.919 23.82C251.519 24.0867 251.105 24.3533 250.679 24.62ZM252.519 12.78L255.159 10.72V8.84L252.519 8.12V12.78ZM252.519 21.24L255.439 19.4V15.4C254.532 14.8 253.559 14.4067 252.519 14.22V21.24Z" fill="black"/>
<defs>
<filter id="filter0_d_2035_3" x="175.957" y="61.5" width="78.9175" height="74.1062" filterUnits="userSpaceOnUse" color-interpolation-filters="sRGB">
<feFlood flood-opacity="0" result="BackgroundImageFix"/>
<feColorMatrix in="SourceAlpha" type="matrix" values="0 0 0 0 0 0 0 0 0 0 0 0 0 0 0 0 0 0 127 0" result="hardAlpha"/>
<feOffset dy="4"/>
<feGaussianBlur stdDeviation="2"/>
<feComposite in2="hardAlpha" operator="out"/>
<feColorMatrix type="matrix" values="0 0 0 0 0 0 0 0 0 0 0 0 0 0 0 0 0 0 0.5 0"/>
<feBlend mode="normal" in2="BackgroundImageFix" result="effect1_dropShadow_2035_3"/>
<feBlend mode="normal" in="SourceGraphic" in2="effect1_dropShadow_2035_3" result="shape"/>
</filter>
</defs>
</svg>
