<svg width="440" height="160" viewBox="0 0 440 160" fill="none" xmlns="http://www.w3.org/2000/svg">
<path d="M163 133.098L217.5 159L271 133.098V67.3624V1H163V67.3624V133.098Z" fill="#F0DAA9" stroke="black"/>
<path d="M217.5 154L167 130.419V83.3737V39H268V130.419L217.5 154Z" fill="#151515" stroke="#1E1E1E"/>
<path d="M215.904 88.8941H170V43H215.904V88.8941Z" fill="#512969" stroke="black"/>
<path d="M264.755 88.8941H218.85V43H264.755V88.8941Z" fill="#512969" stroke="black"/>
<path d="M170 92.4146H216.15V149L170 128.66V92.4146Z" fill="#512969" stroke="black"/>
<path d="M265 92.2842H218.85V148.87L265 128.53V92.2842Z" fill="#512969" stroke="black"/>
<path fill-rule="evenodd" clip-rule="evenodd" d="M186.464 118.423C186.521 118.074 187.149 118.175 187.606 118.13V119.031C187.106 118.93 187.006 118.501 186.464 118.434V118.423Z" fill="black"/>
<path fill-rule="evenodd" clip-rule="evenodd" d="M183.437 119.312H184.194V119.91H183.437V119.312Z" fill="black"/>
<path fill-rule="evenodd" clip-rule="evenodd" d="M183.807 133.653C184.992 133.518 185.02 134.295 184.949 135.151C184.292 134.881 183.636 134.599 183.807 133.653Z" fill="black"/>
<path fill-rule="evenodd" clip-rule="evenodd" d="M186.076 135.444C186.547 135.579 186.847 135.827 186.833 136.345C186.362 136.21 186.062 135.962 186.076 135.444Z" fill="black"/>
<path fill-rule="evenodd" clip-rule="evenodd" d="M191.388 141.122C192.03 141.009 192.101 141.358 192.144 141.719C192.929 141.899 193.372 142.35 194.043 142.62C193.429 143.183 192.03 142.924 191.017 143.217C190.474 143.375 189.589 143.623 189.503 144.118C188.89 144.197 188.847 143.837 188.376 143.814C187.705 144.085 187.676 144.862 187.234 145.312C186.02 145.121 187.805 144.569 186.862 143.814C186.848 143.803 186.477 143.814 186.477 143.814C186.62 143.026 187.491 142.789 187.99 142.023C189.032 142.665 189.575 141.854 190.645 142.327C191.316 142.259 191.502 141.809 191.402 141.133L191.388 141.122Z" fill="black"/>
<path fill-rule="evenodd" clip-rule="evenodd" d="M201.981 142.913C202.281 142.969 202.352 143.217 202.737 143.217V143.814C202.381 143.634 201.338 143.116 201.595 144.118C201.153 144.073 201.281 143.578 201.21 143.217C201.653 143.262 201.881 143.149 201.967 142.913H201.981Z" fill="black"/>
<path fill-rule="evenodd" clip-rule="evenodd" d="M182.51 21C183.021 21.2872 183.346 21.8151 183.331 22.9173C181.905 23.469 181.921 21.9348 182.51 21Z" fill="black"/>
<path fill-rule="evenodd" clip-rule="evenodd" d="M182.509 25.4584C181.657 25.7223 181.424 25.0276 180.866 24.8357C180.944 22.9899 182.819 23.3009 182.509 25.4584Z" fill="black"/>
<path fill-rule="evenodd" clip-rule="evenodd" d="M164.026 31.8098C164.909 32.9841 167.032 32.2412 168.55 32.4569C167.775 33.6556 168.504 34.0632 168.55 35.645C167.713 33.9672 166.396 35.9566 165.668 35.645C165.234 35.4532 165.544 34.087 165.265 33.7271C164.909 33.2958 164.893 34.3503 164.847 34.3748C164.336 34.5422 163.886 33.4876 164.026 31.8337V31.8098Z" fill="black"/>
<path fill-rule="evenodd" clip-rule="evenodd" d="M165.667 35.6218V38.1629C164.428 38.81 164.939 36.7485 164.846 35.6218H165.667Z" fill="black"/>
<path fill-rule="evenodd" clip-rule="evenodd" d="M172.236 45.7853C172.856 43.532 173.011 46.9603 172.655 47.0562C172.407 47.1277 172.143 46.169 172.236 45.7853Z" fill="black"/>
<path fill-rule="evenodd" clip-rule="evenodd" d="M171.011 48.974C171.631 46.7207 171.786 50.149 171.43 50.2449C171.182 50.3164 170.918 49.3577 171.011 48.974Z" fill="black"/>
<path fill-rule="evenodd" clip-rule="evenodd" d="M182.927 54.7031C181.672 56.8367 184.445 56.621 182.927 54.7031V54.7031Z" fill="black"/>
<path fill-rule="evenodd" clip-rule="evenodd" d="M191.963 59.1376C193.156 60.4323 190.599 61.1991 189.499 61.0555C188.926 58.251 191.963 61.0555 191.963 59.1376Z" fill="black"/>
<path fill-rule="evenodd" clip-rule="evenodd" d="M178.002 60.4072H178.823V61.6775H178.002V60.4072Z" fill="black"/>
<path fill-rule="evenodd" clip-rule="evenodd" d="M182.107 64.8667C182.758 65.9934 183.997 66.1852 184.168 68.0548C183.935 67.8153 183.114 68.3665 182.928 68.0548C182.804 67.8153 183.068 67.0003 182.928 66.7846C182.587 66.2567 182.262 67.0962 182.107 66.1369C182.045 65.7294 182.154 65.2742 182.107 64.8667Z" fill="black"/>
<path fill-rule="evenodd" clip-rule="evenodd" d="M198.53 64.8667C197.291 67.0003 200.049 66.7846 198.53 64.8667V64.8667Z" fill="black"/>
<path fill-rule="evenodd" clip-rule="evenodd" d="M171.414 69.326C171.864 69.4941 171.693 70.5963 172.235 70.5963C172.235 71.2195 171.724 71.0998 171.414 71.2439C170.918 70.4051 171.259 70.237 171.414 69.326Z" fill="black"/>
<path fill-rule="evenodd" clip-rule="evenodd" d="M180.465 71.2186C181.364 71.0989 181.767 71.7459 181.705 73.1365C180.806 73.2563 180.403 72.6092 180.465 71.2186Z" fill="black"/>
<path fill-rule="evenodd" clip-rule="evenodd" d="M168.953 73.1366C169.774 74.1911 169.48 73.0883 170.595 73.1366C170.549 74.2871 171.091 74.4789 170.998 75.6777C169.371 74.8626 170.161 77.763 168.534 76.9479C167.496 75.3899 169.402 75.5817 168.953 73.1366Z" fill="black"/>
<path fill-rule="evenodd" clip-rule="evenodd" d="M192.381 77.5717C193.187 77.8594 193.125 82.0307 191.56 80.7598C191.25 78.7943 192.691 79.5372 192.381 77.5717Z" fill="black"/>
<path fill-rule="evenodd" clip-rule="evenodd" d="M197.308 77.5717H198.129V78.8425H197.308V77.5717Z" fill="black"/>
<path fill-rule="evenodd" clip-rule="evenodd" d="M261.106 111.6C261.145 112.186 260.881 112.747 259.95 113.337C258.708 112.446 260.001 111.619 261.106 111.6Z" fill="black"/>
<path fill-rule="evenodd" clip-rule="evenodd" d="M257.374 114.04C256.687 113.471 257.141 112.897 256.996 112.325C258.584 111.379 259.35 113.119 257.374 114.04Z" fill="black"/>
<path fill-rule="evenodd" clip-rule="evenodd" d="M241.943 102.046C241.443 103.428 243.227 104.798 243.877 106.187C242.45 106.195 242.508 107.027 241.209 107.932C242.155 106.314 239.77 106.3 239.632 105.52C239.555 105.052 240.868 104.564 241.016 104.133C241.182 103.599 240.291 104.163 240.245 104.137C239.826 103.801 240.462 102.848 241.923 102.059L241.943 102.046Z" fill="black"/>
<path fill-rule="evenodd" clip-rule="evenodd" d="M239.65 105.507L237.524 106.897C236.304 106.214 238.309 105.514 239.201 104.819L239.65 105.507Z" fill="black"/>
<path fill-rule="evenodd" clip-rule="evenodd" d="M234.739 116.567C236.964 115.852 234.18 117.858 233.905 117.612C233.709 117.444 234.367 116.699 234.739 116.567Z" fill="black"/>
<path fill-rule="evenodd" clip-rule="evenodd" d="M231.4 117.287C233.626 116.572 230.841 118.578 230.566 118.332C230.37 118.164 231.028 117.419 231.4 117.287Z" fill="black"/>
<path fill-rule="evenodd" clip-rule="evenodd" d="M233.126 130.395C230.653 130.512 232.352 132.715 233.126 130.395V130.395Z" fill="black"/>
<path fill-rule="evenodd" clip-rule="evenodd" d="M234.36 140.384C233.929 142.091 231.888 140.371 231.406 139.371C233.44 137.357 232.755 141.434 234.36 140.384Z" fill="black"/>
<path fill-rule="evenodd" clip-rule="evenodd" d="M225.657 129.394L226.106 130.082L225.043 130.777L224.594 130.09L225.657 129.394Z" fill="black"/>
<path fill-rule="evenodd" clip-rule="evenodd" d="M224.171 135.271C223.585 136.432 224.102 137.575 222.631 138.74C222.704 138.415 221.793 138.029 221.952 137.703C222.085 137.468 222.911 137.243 223.016 137.008C223.271 136.434 222.39 136.621 223.108 135.966C223.415 135.691 223.856 135.533 224.171 135.271Z" fill="black"/>
<path fill-rule="evenodd" clip-rule="evenodd" d="M233.159 149.016C230.695 149.146 232.385 151.337 233.159 149.016V149.016Z" fill="black"/>
<path fill-rule="evenodd" clip-rule="evenodd" d="M214.587 128.762C214.692 129.23 213.677 129.691 213.973 130.144C213.452 130.485 213.272 129.992 212.982 129.812C213.413 128.937 213.74 129.131 214.587 128.762Z" fill="black"/>
<path fill-rule="evenodd" clip-rule="evenodd" d="M217.956 137.373C218.549 138.06 218.227 138.751 217.03 139.46C216.438 138.773 216.759 138.082 217.956 137.373Z" fill="black"/>
<path fill-rule="evenodd" clip-rule="evenodd" d="M210.05 128.787C209.617 130.052 210.379 129.202 210.949 130.162C209.961 130.752 210.097 131.311 209.043 131.89C208.835 130.082 206.84 132.331 206.632 130.523C207.367 128.801 208.25 130.501 210.05 128.787Z" fill="black"/>
<path fill-rule="evenodd" clip-rule="evenodd" d="M219.16 150.822C219.361 151.654 215.836 153.885 216.043 151.88C217.518 150.545 217.685 152.158 219.16 150.822Z" fill="black"/>
<path fill-rule="evenodd" clip-rule="evenodd" d="M221.856 154.946L222.306 155.634L221.242 156.329L220.793 155.642L221.856 154.946Z" fill="black"/>
<path fill-rule="evenodd" clip-rule="evenodd" d="M229.973 41.3275C231.215 41.4064 232.665 41.2149 233.908 41.3275C234.056 41.3388 233.79 41.8795 233.908 41.9246C233.967 41.9471 236.156 41.4064 237.044 41.6204C238.257 43.5467 229.588 42.6117 229.973 41.3163V41.3275Z" fill="black"/>
<path fill-rule="evenodd" clip-rule="evenodd" d="M243.285 54.7783C242.457 56.5131 246.688 54.9022 243.285 54.7783V54.7783Z" fill="black"/>
<path fill-rule="evenodd" clip-rule="evenodd" d="M269.176 58C270.152 58.1352 270.774 58.383 270.744 58.9012H268.377C268.791 58.6646 269.206 58.4168 269.176 58Z" fill="black"/>
<path fill-rule="evenodd" clip-rule="evenodd" d="M229.171 61.9424C229.881 62.1226 230.562 62.3029 230.739 61.9424C233.964 62.269 227.929 63.1927 229.171 61.9424Z" fill="black"/>
<path fill-rule="evenodd" clip-rule="evenodd" d="M265.739 68.4041C262.455 67.8296 263.047 69.0801 263.372 70.4994C261.981 70.5333 261.716 70.1387 260.236 70.1953C259.615 69.1587 261.094 68.9336 261.804 68.4041C261.331 67.7845 262.78 66.4439 261.005 66.3086C263.964 65.2947 266.538 66.9845 265.71 68.4041H265.739Z" fill="black"/>
<path fill-rule="evenodd" clip-rule="evenodd" d="M260.087 60.597V60H261.656V60.597H260.087Z" fill="black"/>
<path fill-rule="evenodd" clip-rule="evenodd" d="M244.852 65.2314C246.124 65.5243 246.657 66.0314 245.651 66.4256C243.846 66.3467 243.846 65.626 244.852 65.2314Z" fill="black"/>
<path fill-rule="evenodd" clip-rule="evenodd" d="M245.654 67.913C242.695 67.4062 239.855 67.1358 236.245 67.609C235.802 66.9442 237.754 67.1808 237.813 66.7079C238.375 66.8544 240.536 66.5164 240.949 66.7079C240.979 66.7303 240.92 67.0008 240.949 67.012C241.363 67.012 242.044 66.7527 241.719 66.7079C242.517 66.8093 242.784 67.2259 243.286 67.3049C243.671 67.3724 246.955 66.55 245.654 67.9018V67.913Z" fill="black"/>
<path fill-rule="evenodd" clip-rule="evenodd" d="M256.627 36.2472C256.835 35.5375 258.728 36.5851 259.764 36.5513C259.645 36.9006 258.343 36.7992 257.426 36.8555C257.545 36.5063 257.249 36.326 256.627 36.2584V36.2472Z" fill="black"/>
<path fill-rule="evenodd" clip-rule="evenodd" d="M257.428 42.2285C259.735 42.4876 255.594 42.6791 256.629 43.4226C255.919 43.2424 255.239 43.0621 255.061 43.4226C252.28 42.8143 256.985 42.6002 257.428 42.2285Z" fill="black"/>
<path fill-rule="evenodd" clip-rule="evenodd" d="M263.695 51.7817C263.606 53.0433 260.855 53.2912 259.76 54.1698C258.103 53.6742 260.855 52.8856 262.127 52.3787C262.659 52.1647 262.127 51.5901 263.695 51.7817Z" fill="black"/>
<path fill-rule="evenodd" clip-rule="evenodd" d="M244.85 52.6831C245.797 52.7394 246.596 52.7845 247.217 52.9873C248.844 53.528 246.507 53.3139 247.217 54.1814C247.661 54.6996 249.584 54.9586 248.785 55.6796C247.898 55.5782 246.803 55.1502 248.016 55.0826C246.3 54.5418 244.377 54.08 244.88 52.6944L244.85 52.6831Z" fill="black"/>
<path fill-rule="evenodd" clip-rule="evenodd" d="M267.6 62.5397C267.955 62.1003 268.606 62.6525 269.937 62.5397C269.227 63.058 268.191 63.6888 266.801 63.1369C266.801 62.8438 267.777 62.9003 268.369 62.8326C268.517 62.5736 268.074 62.5509 267.57 62.5285L267.6 62.5397Z" fill="black"/>
<path fill-rule="evenodd" clip-rule="evenodd" d="M268.377 43.3514C268.496 42.6079 271.04 43.2613 271.514 43.3514C271.395 44.0949 268.851 43.4415 268.377 43.3514Z" fill="black"/>
<path d="M186.083 104.456C187.541 104.456 188.667 105.557 188.667 106.848C188.667 108.138 187.54 109.238 186.083 109.238C184.626 109.238 183.5 108.138 183.5 106.848C183.5 105.557 184.626 104.456 186.083 104.456Z" fill="black" stroke="black"/>
<path d="M186.083 98.6731C187.541 98.6731 188.667 99.7738 188.667 101.065C188.667 102.355 187.54 103.455 186.083 103.455C184.626 103.455 183.5 102.355 183.5 101.065C183.5 99.7739 184.626 98.6733 186.083 98.6731Z" fill="black" stroke="black"/>
<path d="M186.083 92.8909C187.541 92.8909 188.667 93.9916 188.667 95.2825C188.667 96.5732 187.54 97.6731 186.083 97.6731C184.626 97.6729 183.5 96.5731 183.5 95.2825C183.5 93.9917 184.626 92.891 186.083 92.8909Z" fill="black" stroke="black"/>
<path d="M186.083 87.1086C187.541 87.1086 188.667 88.2094 188.667 89.5002C188.667 90.791 187.54 91.8909 186.083 91.8909C184.626 91.8907 183.5 90.7909 183.5 89.5002C183.5 88.2095 184.626 87.1088 186.083 87.1086Z" fill="black" stroke="black"/>
<path d="M186.083 81.3264C187.541 81.3264 188.667 82.4271 188.667 83.718C188.667 85.0088 187.54 86.1086 186.083 86.1086C184.626 86.1085 183.5 85.0087 183.5 83.718C183.5 82.4272 184.626 81.3266 186.083 81.3264Z" fill="black" stroke="black"/>
<path d="M186.083 75.5436C187.541 75.5436 188.667 76.6443 188.667 77.9352C188.667 79.2259 187.54 80.3258 186.083 80.3258C184.626 80.3256 183.5 79.2258 183.5 77.9352C183.5 76.6444 184.626 75.5437 186.083 75.5436Z" fill="black" stroke="black"/>
<path d="M186.083 69.7607C187.541 69.7607 188.667 70.8615 188.667 72.1523C188.667 73.4431 187.54 74.543 186.083 74.543C184.626 74.5428 183.5 73.443 183.5 72.1523C183.5 70.8616 184.626 69.7609 186.083 69.7607Z" fill="black" stroke="black"/>
<path d="M253.917 104.456C255.374 104.456 256.5 105.557 256.5 106.848C256.5 108.138 255.374 109.238 253.917 109.238C252.459 109.238 251.334 108.138 251.333 106.848C251.333 105.557 252.459 104.456 253.917 104.456Z" fill="black" stroke="black"/>
<path d="M253.917 98.6731C255.374 98.6731 256.5 99.7738 256.5 101.065C256.5 102.355 255.374 103.455 253.917 103.455C252.459 103.455 251.334 102.355 251.333 101.065C251.333 99.7739 252.459 98.6733 253.917 98.6731Z" fill="black" stroke="black"/>
<path d="M253.917 92.8909C255.374 92.8909 256.5 93.9916 256.5 95.2825C256.5 96.5732 255.374 97.6731 253.917 97.6731C252.459 97.6729 251.334 96.5731 251.333 95.2825C251.333 93.9917 252.459 92.891 253.917 92.8909Z" fill="black" stroke="black"/>
<path d="M253.917 87.1086C255.374 87.1086 256.5 88.2094 256.5 89.5002C256.5 90.791 255.374 91.8909 253.917 91.8909C252.459 91.8907 251.334 90.7909 251.333 89.5002C251.333 88.2095 252.459 87.1088 253.917 87.1086Z" fill="black" stroke="black"/>
<path d="M253.917 81.3264C255.374 81.3264 256.5 82.4271 256.5 83.718C256.5 85.0088 255.374 86.1086 253.917 86.1086C252.459 86.1085 251.334 85.0087 251.333 83.718C251.333 82.4272 252.459 81.3266 253.917 81.3264Z" fill="black" stroke="black"/>
<path d="M253.917 75.5436C255.374 75.5436 256.5 76.6443 256.5 77.9352C256.5 79.2259 255.374 80.3258 253.917 80.3258C252.459 80.3256 251.334 79.2258 251.333 77.9352C251.333 76.6444 252.459 75.5437 253.917 75.5436Z" fill="black" stroke="black"/>
<path d="M253.917 69.7607C255.374 69.7607 256.5 70.8615 256.5 72.1523C256.5 73.4431 255.374 74.543 253.917 74.543C252.459 74.5428 251.334 73.443 251.333 72.1523C251.333 70.8616 252.459 69.7609 253.917 69.7607Z" fill="black" stroke="black"/>
<path d="M192.19 110.804C192.19 112.359 191.103 113.5 189.9 113.5C188.697 113.5 187.611 112.358 187.611 110.804C187.611 109.249 188.697 108.109 189.9 108.109C191.103 108.109 192.19 109.249 192.19 110.804Z" fill="black" stroke="black"/>
<path d="M197.769 110.804C197.769 112.359 196.682 113.5 195.479 113.5C194.276 113.5 193.19 112.358 193.19 110.804C193.19 109.249 194.276 108.109 195.479 108.109C196.682 108.109 197.769 109.249 197.769 110.804Z" fill="black" stroke="black"/>
<path d="M203.349 110.804C203.349 112.359 202.262 113.5 201.059 113.5C199.856 113.5 198.77 112.358 198.77 110.804C198.77 109.249 199.856 108.109 201.059 108.109C202.261 108.109 203.348 109.249 203.349 110.804Z" fill="black" stroke="black"/>
<path d="M208.928 110.804C208.928 112.359 207.841 113.5 206.638 113.5C205.435 113.5 204.349 112.358 204.349 110.804C204.349 109.249 205.436 108.109 206.638 108.109C207.841 108.109 208.928 109.249 208.928 110.804Z" fill="black" stroke="black"/>
<path d="M214.508 110.804C214.508 112.359 213.421 113.5 212.218 113.5C211.015 113.5 209.929 112.358 209.929 110.804C209.929 109.249 211.015 108.109 212.218 108.109C213.421 108.109 214.508 109.249 214.508 110.804Z" fill="black" stroke="black"/>
<path d="M220.086 110.804C220.086 112.359 218.999 113.5 217.796 113.5C216.594 113.5 215.507 112.358 215.507 110.804C215.507 109.249 216.594 108.109 217.796 108.109C218.999 108.109 220.086 109.249 220.086 110.804Z" fill="black" stroke="black"/>
<path d="M225.079 110.804C225.079 112.359 223.992 113.5 222.789 113.5C221.586 113.5 220.5 112.358 220.5 110.804C220.5 109.249 221.586 108.109 222.789 108.109C223.992 108.109 225.079 109.249 225.079 110.804Z" fill="black" stroke="black"/>
<path d="M230.659 110.804C230.659 112.359 229.572 113.5 228.369 113.5C227.166 113.5 226.08 112.358 226.08 110.804C226.08 109.249 227.166 108.109 228.369 108.109C229.571 108.109 230.659 109.249 230.659 110.804Z" fill="black" stroke="black"/>
<path d="M236.238 110.804C236.238 112.359 235.151 113.5 233.948 113.5C232.745 113.5 231.659 112.358 231.659 110.804C231.659 109.249 232.745 108.109 233.948 108.109C235.151 108.109 236.238 109.249 236.238 110.804Z" fill="black" stroke="black"/>
<path d="M241.817 110.804C241.817 112.359 240.73 113.5 239.527 113.5C238.325 113.5 237.238 112.358 237.238 110.804C237.238 109.249 238.325 108.109 239.527 108.109C240.73 108.109 241.817 109.249 241.817 110.804Z" fill="black" stroke="black"/>
<path d="M247.396 110.804C247.396 112.359 246.309 113.5 245.106 113.5C243.904 113.5 242.817 112.358 242.817 110.804C242.818 109.249 243.904 108.109 245.106 108.109C246.309 108.109 247.396 109.249 247.396 110.804Z" fill="black" stroke="black"/>
<path d="M252.976 110.804C252.976 112.359 251.889 113.5 250.686 113.5C249.483 113.5 248.397 112.358 248.397 110.804C248.397 109.249 249.483 108.109 250.686 108.109C251.889 108.109 252.976 109.249 252.976 110.804Z" fill="black" stroke="black"/>
<path d="M192.19 68.1953C192.19 69.75 191.103 70.8916 189.9 70.8916C188.698 70.8914 187.611 69.7499 187.611 68.1953C187.611 66.6409 188.698 65.5002 189.9 65.5C191.103 65.5 192.19 66.6408 192.19 68.1953Z" fill="black" stroke="black"/>
<path d="M197.77 68.1953C197.77 69.75 196.682 70.8916 195.479 70.8916C194.277 70.8914 193.19 69.7499 193.19 68.1953C193.191 66.6409 194.277 65.5002 195.479 65.5C196.682 65.5 197.769 66.6408 197.77 68.1953Z" fill="black" stroke="black"/>
<path d="M203.349 68.1953C203.349 69.75 202.262 70.8916 201.059 70.8916C199.856 70.8914 198.77 69.7499 198.77 68.1953C198.77 66.6409 199.856 65.5002 201.059 65.5C202.262 65.5 203.349 66.6408 203.349 68.1953Z" fill="black" stroke="black"/>
<path d="M208.929 68.1953C208.929 69.75 207.842 70.8916 206.639 70.8916C205.436 70.8914 204.35 69.7499 204.35 68.1953C204.35 66.6409 205.436 65.5002 206.639 65.5C207.841 65.5 208.929 66.6408 208.929 68.1953Z" fill="black" stroke="black"/>
<path d="M214.508 68.1953C214.508 69.75 213.421 70.8916 212.218 70.8916C211.015 70.8914 209.929 69.7499 209.929 68.1953C209.929 66.6409 211.016 65.5002 212.218 65.5C213.421 65.5 214.508 66.6408 214.508 68.1953Z" fill="black" stroke="black"/>
<path d="M220.087 68.1953C220.087 69.75 219 70.8916 217.797 70.8916C216.594 70.8914 215.508 69.7499 215.508 68.1953C215.508 66.6409 216.594 65.5002 217.797 65.5C219 65.5 220.087 66.6408 220.087 68.1953Z" fill="black" stroke="black"/>
<path d="M225.08 68.1953C225.08 69.75 223.992 70.8916 222.79 70.8916C221.587 70.8914 220.5 69.7499 220.5 68.1953C220.501 66.6409 221.587 65.5002 222.79 65.5C223.992 65.5 225.079 66.6408 225.08 68.1953Z" fill="black" stroke="black"/>
<path d="M230.659 68.1953C230.659 69.75 229.572 70.8916 228.369 70.8916C227.166 70.8914 226.08 69.7499 226.08 68.1953C226.08 66.6409 227.166 65.5002 228.369 65.5C229.572 65.5 230.659 66.6408 230.659 68.1953Z" fill="black" stroke="black"/>
<path d="M236.238 68.1953C236.238 69.75 235.151 70.8916 233.948 70.8916C232.745 70.8914 231.659 69.7499 231.659 68.1953C231.659 66.6409 232.746 65.5002 233.948 65.5C235.151 65.5 236.238 66.6408 236.238 68.1953Z" fill="black" stroke="black"/>
<path d="M241.817 68.1953C241.817 69.75 240.73 70.8916 239.527 70.8916C238.325 70.8914 237.238 69.7499 237.238 68.1953C237.238 66.6409 238.325 65.5002 239.527 65.5C240.73 65.5 241.817 66.6408 241.817 68.1953Z" fill="black" stroke="black"/>
<path d="M247.397 68.1953C247.397 69.75 246.31 70.8916 245.107 70.8916C243.904 70.8914 242.818 69.7499 242.818 68.1953C242.818 66.6409 243.904 65.5002 245.107 65.5C246.31 65.5 247.397 66.6408 247.397 68.1953Z" fill="black" stroke="black"/>
<path d="M252.976 68.1953C252.976 69.75 251.889 70.8916 250.686 70.8916C249.483 70.8914 248.397 69.7499 248.397 68.1953C248.397 66.6409 249.483 65.5002 250.686 65.5C251.889 65.5 252.976 66.6408 252.976 68.1953Z" fill="black" stroke="black"/>
<rect x="185.5" y="67.6305" width="68.9997" height="43.7391" fill="#F0DAA9" stroke="black"/>
<path d="M198.313 104.415L197.989 104.588L198.133 104.925L200.025 109.346L196.558 106.013L196.391 105.853L196.169 105.917L192.041 107.129L194.408 104.959L194.802 104.596L194.342 104.321L189.766 101.589L194.137 101.59L194.346 101.59L194.466 101.417L197.329 97.2814L197.328 102.182L197.328 102.621L197.764 102.581L202.555 102.148L198.313 104.415Z" fill="#FD883B" stroke="black" stroke-width="0.8"/>
<path d="M256.128 73.5376L256.013 73.8304L256.271 74.0109L261.693 77.8008L255.5 77.8013L255.148 77.8016L255.104 78.151L254.521 82.6771L253.172 77.2673L253.11 77.0181L252.858 76.9708L248.014 76.0628L251.896 75.5388L252.508 75.457L252.182 74.9314L249.462 70.5428L253.409 73.9852L253.706 74.2439L253.969 73.9507L257.507 70.0105L256.128 73.5376Z" fill="#FD883B" stroke="black" stroke-width="0.8"/>
<path d="M185.917 35.5979C185.905 35.5979 185.791 35.5201 185.574 35.3645C185.298 35.161 185.01 34.9845 184.709 34.8351C184.481 34.7215 184.244 34.665 183.998 34.6654C183.92 34.6656 183.839 34.6717 183.755 34.6839C183.737 34.6839 183.728 34.6809 183.728 34.6749L183.764 34.6118C183.824 34.5457 183.893 34.4856 183.971 34.4315C183.983 34.4194 183.998 34.4104 184.016 34.4044C184.081 34.3383 184.171 34.2691 184.285 34.1969L184.274 28.1309C184.178 28.1011 184.073 28.0863 183.959 28.0865C183.827 28.0867 183.695 28.099 183.563 28.1232C184.006 27.7324 184.231 27.534 184.237 27.528C184.249 27.5159 184.27 27.5009 184.3 27.4828C184.522 27.3024 184.653 27.2032 184.695 27.1851C185.206 27.5802 185.773 27.7831 186.397 27.794L186.02 28.0827C185.912 28.1669 185.798 28.2511 185.678 28.3353C185.631 28.3714 185.601 28.3924 185.589 28.3985C185.583 28.4045 185.574 28.4105 185.562 28.4165C185.556 28.4225 185.52 28.4256 185.454 28.4257C185.358 28.4259 185.262 28.4201 185.166 28.4082C185.173 32.1762 185.173 34.0632 185.167 34.0693C185.473 34.1467 185.764 34.2782 186.041 34.4636L186.05 34.4726C186.266 34.5742 186.512 34.6248 186.788 34.6243C186.908 34.624 187.025 34.6118 187.139 34.5876L187.301 34.5513L186.753 35.0023C186.723 35.0384 186.681 35.0805 186.627 35.1286C186.489 35.2428 186.402 35.309 186.366 35.327C186.336 35.3571 186.273 35.4022 186.178 35.4624C186.046 35.5526 185.959 35.5978 185.917 35.5979ZM184.105 34.0982L183.87 33.7206L183.861 28.6626L184.094 28.2662L184.105 34.0982ZM187.297 34.2543C187.285 34.2544 187.203 34.2155 187.053 34.1378L186.828 34.0212L186.387 33.806C186.387 33.8 186.405 33.779 186.441 33.7429C186.477 33.7068 186.518 33.6678 186.566 33.6257C186.62 33.5776 186.668 33.5355 186.71 33.4994C186.758 33.4633 186.785 33.4423 186.791 33.4363C186.803 33.4302 186.815 33.4242 186.827 33.4182L186.821 30.2592L186.38 30.044C186.38 30.038 186.398 30.017 186.434 29.9809C186.512 29.9028 186.604 29.8216 186.712 29.7374C186.754 29.7013 186.778 29.6803 186.784 29.6743C186.796 29.6682 186.859 29.6231 186.973 29.5389C187.087 29.4547 187.174 29.4126 187.234 29.4124C187.246 29.4124 187.327 29.4513 187.477 29.529L187.702 29.6366L188.143 29.8608C188.143 29.8668 188.126 29.8848 188.09 29.9149C187.982 30.0171 187.892 30.0982 187.82 30.1584L187.703 30.2486L187.709 33.3986L188.15 33.6228C188.15 33.6288 188.132 33.6468 188.096 33.6769C187.917 33.8452 187.782 33.9594 187.692 34.0196L187.548 34.1279C187.44 34.2121 187.357 34.2542 187.297 34.2543ZM187.377 28.9892C187.047 28.9718 186.741 28.8703 186.458 28.6849L186.512 28.6398C186.542 28.6217 186.566 28.6037 186.584 28.5856L186.89 28.3601C186.908 28.348 186.977 28.2969 187.096 28.2067C187.222 28.1105 187.3 28.0623 187.33 28.0623L187.339 28.0622C187.621 28.2477 187.928 28.3492 188.258 28.3666C188.252 28.3726 188.24 28.3816 188.222 28.3936C188.204 28.4057 188.177 28.4297 188.141 28.4658L187.467 28.944C187.425 28.9741 187.395 28.9891 187.377 28.9892ZM190.541 35.7874C190.529 35.7874 190.52 35.7844 190.514 35.7784C190.268 35.5449 189.961 35.4284 189.595 35.4291C189.379 35.4295 189.167 35.4629 188.957 35.5293C188.945 35.5293 188.939 35.5263 188.939 35.5203C188.939 35.5203 188.939 35.5173 188.939 35.5113L188.939 35.5023C188.939 35.4963 188.942 35.4873 188.948 35.4753C188.96 35.4693 188.966 35.4633 188.966 35.4573L188.975 35.4572C189.028 35.3911 189.094 35.331 189.172 35.2769L189.271 35.2047C189.571 34.9401 189.945 34.8075 190.395 34.8066C190.563 34.8063 190.731 34.827 190.899 34.8687L190.897 33.7797L190.673 33.9601C190.631 33.9902 190.58 34.0263 190.52 34.0684C190.466 34.1105 190.415 34.1406 190.367 34.1587C190.325 34.1828 190.292 34.1948 190.268 34.1949L190.232 34.1859C189.692 33.8209 189.232 33.6388 188.854 33.6395C188.782 33.6396 188.707 33.6457 188.629 33.6579C188.611 33.6579 188.602 33.6549 188.602 33.6489C188.602 33.6369 188.608 33.6279 188.62 33.6219C188.626 33.6099 188.632 33.5979 188.638 33.5859C188.71 33.5017 188.794 33.4266 188.89 33.3604C188.986 33.2942 189.039 33.2551 189.051 33.2431L189.046 30.4081C189.046 30.3721 189.073 30.3361 189.127 30.3L189.154 30.2819C189.304 30.1496 189.445 30.0474 189.576 29.9751C189.75 29.8728 189.864 29.8096 189.918 29.7855C189.96 29.7554 190.002 29.7223 190.044 29.6863C190.092 29.6442 190.134 29.6081 190.17 29.578L190.278 29.4878C190.355 29.4277 190.46 29.3615 190.592 29.2893C190.622 29.2772 190.649 29.2712 190.673 29.2711L190.709 29.28C191.19 29.5972 191.718 29.7792 192.294 29.8261C192.312 29.8261 192.321 29.8291 192.321 29.8351C192.321 29.8471 192.306 29.8681 192.276 29.8982C192.222 29.9643 192.157 30.0214 192.079 30.0695L192.034 30.1056C191.95 30.1718 191.863 30.2319 191.773 30.2861L191.782 34.9031C191.782 34.9211 191.755 34.9571 191.701 35.0112C191.587 35.1254 191.407 35.2518 191.161 35.3902C191.119 35.4263 191.081 35.4534 191.045 35.4714C191.015 35.4955 190.994 35.5135 190.982 35.5256C190.97 35.5376 190.913 35.5767 190.811 35.6429C190.679 35.7391 190.589 35.7873 190.541 35.7874ZM190.897 33.4287L190.891 30.3597C190.549 30.2763 190.231 30.1449 189.936 29.9655L189.942 33.0345C190.278 33.1058 190.596 33.2373 190.897 33.4287ZM194.134 34.2867L194.107 34.2778C193.885 34.1102 193.651 33.9636 193.404 33.8381C193.164 33.7125 192.903 33.65 192.621 33.6505C192.603 33.6506 192.594 33.6476 192.594 33.6416C192.594 33.6356 192.597 33.6296 192.603 33.6236C192.603 33.6176 192.612 33.6025 192.63 33.5785C192.69 33.5124 192.759 33.4523 192.837 33.3981L192.971 33.2989L192.969 32.1019C192.969 32.0779 192.978 32.0569 192.996 32.0388C193.038 31.9968 193.062 31.9757 193.068 31.9757C193.206 31.8435 193.331 31.7472 193.445 31.687L193.58 31.6148C193.67 31.5366 193.763 31.4644 193.859 31.3982C193.871 31.3922 193.889 31.3772 193.913 31.3531C194.104 31.2148 194.233 31.1456 194.299 31.1454C194.317 31.1454 194.53 31.214 194.939 31.3513L194.937 30.6493C194.799 30.5775 194.61 30.4909 194.37 30.3893C194.022 30.2399 193.731 30.1655 193.497 30.1659C193.443 30.166 193.371 30.1691 193.281 30.1753C193.197 30.1815 193.116 30.1906 193.038 30.2028L192.912 30.221L194.008 29.391L194.287 29.4985C194.473 29.5701 194.705 29.6357 194.981 29.6952C195.227 29.7547 195.479 29.7843 195.737 29.7838L195.809 29.7837C195.821 29.7836 195.828 30.4106 195.83 31.6646L195.824 33.1136L196.356 33.4637L196.356 33.4727C196.356 33.4847 196.341 33.5057 196.311 33.5357L196.041 33.7702C195.927 33.8604 195.79 33.9477 195.628 34.032L195.583 34.0591C195.547 34.0771 195.517 34.0862 195.493 34.0862C195.487 34.0863 195.301 33.9666 194.934 33.7273L194.808 33.8445C194.635 33.9828 194.497 34.0851 194.395 34.1513C194.263 34.2415 194.176 34.2867 194.134 34.2867ZM194.402 33.2782L194.42 33.2602C194.48 33.1941 194.546 33.134 194.618 33.0799L194.663 33.0438L194.942 32.8543L194.94 32.2873L193.851 31.9023L193.853 33.0633C194.045 33.1109 194.228 33.1826 194.402 33.2782ZM201.579 35.596L201.57 35.5961C201.312 35.4105 201.032 35.273 200.732 35.1836L200.723 35.1836L200.723 35.1746C200.471 35.1031 200.216 35.0675 199.958 35.068L199.895 35.0681C199.907 35.0681 199.937 35.0441 199.985 34.996L200.641 34.5358C200.641 34.5298 200.647 34.5238 200.659 34.5177C200.677 34.5117 200.698 34.4967 200.722 34.4726L200.71 28.1096C200.71 28.0916 200.716 28.0766 200.728 28.0646L199.98 27.634L200.718 27.1916C200.754 27.1735 200.786 27.1645 200.816 27.1644C200.852 27.1644 200.886 27.1733 200.916 27.1912L201.474 27.5412C201.51 27.5232 201.552 27.4961 201.6 27.46C201.648 27.4239 201.678 27.4028 201.69 27.3968C201.702 27.3908 201.72 27.3788 201.744 27.3607C201.786 27.3246 201.837 27.2856 201.897 27.2434C202.034 27.1412 202.115 27.09 202.139 27.09C202.482 27.3774 202.812 27.6078 203.131 27.7812C203.359 27.9067 203.605 27.9693 203.869 27.9688L204.004 27.9596C203.992 27.9596 203.974 27.9716 203.95 27.9957C203.932 28.0137 203.803 28.1099 203.564 28.2844L203.249 28.501L203.195 28.5461C203.153 28.5761 203.081 28.5913 202.979 28.5914C202.739 28.5919 202.505 28.5353 202.277 28.4217C202.049 28.3022 201.82 28.1526 201.592 27.973L201.597 30.502L203.253 30.4989L203.181 30.6071C203.073 30.7633 203.001 30.8624 202.965 30.9045C202.935 30.9465 202.909 30.9886 202.885 31.0306C202.813 31.1388 202.765 31.1928 202.741 31.1929L201.598 31.195L201.604 34.561C201.73 34.5968 201.853 34.6445 201.973 34.7043C202.045 34.7282 202.123 34.74 202.207 34.7399C202.297 34.7397 202.381 34.7366 202.459 34.7304C202.543 34.7243 202.612 34.7151 202.666 34.703L202.747 34.6939C202.262 35.0908 202.016 35.2922 202.01 35.2982C202.004 35.3043 201.942 35.3524 201.822 35.4426C201.678 35.5449 201.597 35.596 201.579 35.596ZM200.532 34.068L200.307 33.6904L200.297 28.5784L200.521 28.182L200.532 34.068ZM205.094 34.2216C205.082 34.2216 205.001 34.1827 204.851 34.105L204.626 33.9884L204.185 33.7732C204.185 33.7672 204.202 33.7462 204.238 33.7101C204.274 33.6741 204.316 33.635 204.364 33.5929C204.418 33.5448 204.466 33.5027 204.508 33.4666C204.556 33.4306 204.583 33.4095 204.589 33.4035C204.601 33.3975 204.613 33.3915 204.625 33.3854L204.619 30.2264L204.178 30.0112C204.178 30.0052 204.196 29.9842 204.231 29.9481C204.309 29.87 204.402 29.7888 204.51 29.7046C204.552 29.6686 204.576 29.6475 204.582 29.6415C204.594 29.6355 204.657 29.5904 204.771 29.5062C204.885 29.4219 204.971 29.3798 205.031 29.3797C205.043 29.3797 205.125 29.4185 205.275 29.4962L205.5 29.6038L205.941 29.828C205.941 29.834 205.923 29.852 205.887 29.8821C205.78 29.9843 205.69 30.0655 205.618 30.1256L205.501 30.2158L205.507 33.3658L205.948 33.59C205.948 33.596 205.93 33.614 205.894 33.6441C205.715 33.8124 205.58 33.9267 205.49 33.9868L205.346 34.0951C205.238 34.1793 205.154 34.2215 205.094 34.2216ZM205.175 28.9564C204.845 28.939 204.538 28.8376 204.256 28.6521L204.31 28.607C204.34 28.5889 204.364 28.5709 204.382 28.5529L204.688 28.3273C204.705 28.3153 204.774 28.2641 204.894 28.1739C205.02 28.0777 205.098 28.0295 205.128 28.0295L205.137 28.0295C205.419 28.215 205.725 28.3164 206.056 28.3338C206.05 28.3398 206.038 28.3488 206.02 28.3609C206.002 28.3729 205.975 28.3969 205.939 28.433L205.265 28.9112C205.223 28.9413 205.193 28.9564 205.175 28.9564ZM207.688 34.3068C207.508 34.1871 207.319 34.0855 207.121 34.0018C206.929 33.9182 206.76 33.8525 206.616 33.8048L206.4 33.7332L206.895 33.4082L206.886 28.6473C206.886 28.6233 206.895 28.6022 206.913 28.5842C206.955 28.5421 206.979 28.5211 206.985 28.5211C207.08 28.4309 207.182 28.3497 207.29 28.2775L207.38 28.2233C207.62 28.0909 207.749 28.0247 207.767 28.0246L207.777 33.4336L207.795 33.4336C207.939 33.4873 208.083 33.5141 208.227 33.5138C208.365 33.5135 208.482 33.5013 208.578 33.4772L208.722 33.4499L207.688 34.3068ZM213.612 34.2959C213.432 34.1762 213.243 34.0746 213.044 33.9909C212.846 33.9073 212.678 33.8416 212.54 33.7939L212.324 33.7223L212.836 33.3793L212.831 30.4003C212.603 30.3227 212.386 30.2151 212.182 30.0775L212.137 30.1136L212.142 32.6156C212.142 32.6576 212.112 32.6936 212.052 32.7238C211.92 32.856 211.732 32.9883 211.486 33.1208C211.348 33.199 211.27 33.2382 211.252 33.2382L211.247 30.3312C211.025 30.2536 210.823 30.14 210.643 29.9903L210.382 30.2068L210.388 33.3568L210.83 33.581C210.83 33.587 210.812 33.605 210.776 33.6351C210.596 33.8034 210.461 33.9177 210.371 33.9778L210.228 34.0861C210.12 34.1703 210.036 34.2125 209.976 34.2126C209.964 34.2126 209.883 34.1737 209.733 34.096L209.507 33.9794L209.066 33.7643C209.066 33.7583 209.084 33.7372 209.12 33.7012C209.156 33.6651 209.198 33.626 209.246 33.5839C209.3 33.5358 209.347 33.4937 209.389 33.4577C209.437 33.4216 209.464 33.4005 209.47 33.3945C209.482 33.3885 209.494 33.3825 209.506 33.3764L209.5 30.2174L209.059 30.0023C209.059 29.9963 209.077 29.9752 209.113 29.9392C209.191 29.861 209.284 29.7798 209.391 29.6956C209.433 29.6596 209.457 29.6385 209.463 29.6325C209.475 29.6265 209.538 29.5814 209.652 29.4972C209.766 29.413 209.853 29.3708 209.913 29.3707C209.925 29.3707 210.006 29.4095 210.156 29.4872L210.381 29.5948L210.616 29.7114C210.675 29.6633 210.732 29.6182 210.786 29.5761C210.846 29.534 210.879 29.5099 210.885 29.5039C210.897 29.4919 210.966 29.4437 211.092 29.3595C211.218 29.2753 211.302 29.2331 211.344 29.2331C211.356 29.233 211.365 29.236 211.371 29.242C211.569 29.4276 211.791 29.5712 212.037 29.6728C212.145 29.5766 212.229 29.5134 212.289 29.4833C212.307 29.4653 212.367 29.4202 212.469 29.348C212.601 29.2577 212.688 29.2126 212.73 29.2125C212.748 29.2125 212.76 29.2154 212.766 29.2214C213.036 29.4669 213.342 29.6494 213.685 29.7687L213.721 29.7597L213.721 29.7777C213.859 29.8254 214.003 29.8582 214.153 29.8759C214.165 29.8759 214.171 29.8788 214.171 29.8848C214.171 29.9028 214.165 29.9179 214.153 29.9299C214.141 29.9359 214.135 29.9419 214.135 29.9479C214.063 30.032 213.925 30.1403 213.722 30.2727L213.727 33.4317C213.871 33.4794 214.013 33.5031 214.151 33.5029C214.289 33.5026 214.405 33.4904 214.501 33.4662L214.645 33.439L213.612 34.2959ZM219.844 35.5624L219.835 35.5624C219.354 35.2093 218.817 35.0333 218.223 35.0344L218.16 35.0345C218.172 35.0345 218.201 35.0104 218.249 34.9623L218.285 34.9353C218.615 34.7007 218.825 34.5563 218.915 34.5021C218.915 34.4961 218.918 34.4901 218.924 34.4841C218.93 34.4841 218.939 34.4781 218.95 34.4661C218.962 34.46 218.974 34.451 218.986 34.439L218.975 28.085L218.155 27.6185L218.901 27.1581C218.937 27.1341 218.973 27.122 219.009 27.1219C219.045 27.1219 219.078 27.1338 219.108 27.1578L219.676 27.5077L219.685 27.5077C219.715 27.4836 219.742 27.4626 219.766 27.4445C219.79 27.4205 219.858 27.3664 219.972 27.2822C220.092 27.1919 220.182 27.1468 220.242 27.1467C220.26 27.1466 220.638 27.3199 221.377 27.6666C221.413 27.6305 221.452 27.5944 221.494 27.5584C221.542 27.5223 221.581 27.4892 221.611 27.4591C221.682 27.399 221.772 27.3328 221.88 27.2606C221.988 27.1824 222.066 27.1433 222.114 27.1432C222.126 27.1432 222.363 27.2538 222.826 27.4749L223.519 27.8066L223.53 33.5576L223.962 33.7818C223.962 33.7998 223.902 33.8569 223.783 33.9532L223.639 34.0794C223.537 34.1696 223.393 34.2719 223.207 34.3862C223.171 34.4043 223.141 34.4133 223.117 34.4134C223.105 34.4134 223.024 34.3746 222.874 34.2968L222.649 34.1802L222.208 33.9561L222.261 33.902C222.297 33.8659 222.339 33.8268 222.387 33.7847C222.441 33.7366 222.489 33.6945 222.531 33.6585C222.579 33.6224 222.606 33.6013 222.612 33.5953C222.624 33.5893 222.636 33.5833 222.648 33.5772L222.638 28.4293L221.702 27.981L221.709 32.121C221.709 32.145 221.7 32.166 221.682 32.184C221.664 32.2021 221.646 32.2201 221.628 32.2381C221.557 32.3103 221.449 32.3945 221.305 32.4907L221.053 32.6352C220.993 32.6713 220.942 32.6984 220.9 32.7165C220.858 32.7345 220.834 32.7436 220.828 32.7436L220.82 28.4326L219.866 27.9934L219.878 34.5273C220.004 34.5631 220.124 34.6109 220.238 34.6707C220.31 34.6946 220.391 34.7064 220.481 34.7062C220.565 34.7061 220.649 34.7029 220.733 34.6968C220.817 34.6906 220.886 34.6815 220.94 34.6694L221.021 34.6602L220.23 35.3007L219.924 35.5263C219.882 35.5503 219.856 35.5624 219.844 35.5624ZM218.806 34.0343L218.571 33.6568L218.562 28.5448L218.795 28.1483L218.806 34.0343ZM225.956 34.2282L225.929 34.2192C225.706 34.0516 225.472 33.905 225.226 33.7795C224.986 33.6539 224.725 33.5914 224.443 33.5919C224.425 33.592 224.416 33.589 224.416 33.583C224.416 33.577 224.419 33.571 224.425 33.565C224.425 33.559 224.434 33.544 224.451 33.5199C224.511 33.4538 224.58 33.3937 224.658 33.3395L224.793 33.2403L224.791 32.0433C224.791 32.0193 224.8 31.9983 224.818 31.9802C224.86 31.9382 224.884 31.9171 224.89 31.9171C225.027 31.7849 225.153 31.6886 225.267 31.6284L225.402 31.5562C225.492 31.478 225.585 31.4058 225.68 31.3397C225.692 31.3336 225.71 31.3186 225.734 31.2946C225.926 31.1562 226.055 31.087 226.121 31.0868C226.139 31.0868 226.352 31.1554 226.76 31.2927L226.759 30.5907C226.621 30.5189 226.432 30.4323 226.192 30.3307C225.843 30.1814 225.552 30.1069 225.318 30.1073C225.264 30.1074 225.192 30.1106 225.102 30.1167C225.018 30.1229 224.937 30.132 224.859 30.1442L224.733 30.1624L225.83 29.3324L226.109 29.4399C226.295 29.5115 226.526 29.5771 226.802 29.6366C227.048 29.6961 227.3 29.7257 227.558 29.7252L227.63 29.7251C227.642 29.725 227.65 30.352 227.652 31.606L227.646 33.055L228.177 33.4051L228.177 33.4141C228.177 33.4261 228.162 33.4471 228.132 33.4771L227.863 33.7116C227.749 33.8019 227.611 33.8891 227.449 33.9734L227.404 34.0005C227.368 34.0186 227.338 34.0276 227.314 34.0277C227.308 34.0277 227.122 33.908 226.756 33.6687L226.63 33.7859C226.456 33.9242 226.318 34.0265 226.217 34.0927C226.085 34.1829 225.998 34.2281 225.956 34.2282ZM226.224 33.2197L226.242 33.2016C226.302 33.1355 226.368 33.0754 226.44 33.0213L226.484 32.9852L226.763 32.7957L226.762 32.2287L225.672 31.8437L225.675 33.0047C225.867 33.0523 226.05 33.124 226.224 33.2197ZM231.844 35.1443C231.658 35.1207 231.463 35.037 231.259 34.8934C231.055 34.7558 230.952 34.621 230.952 34.489L230.945 30.286C230.698 30.2144 230.464 30.1128 230.242 29.9813L229.909 30.2159L229.915 33.3209L230.348 33.5451C230.348 33.5631 230.288 33.6202 230.168 33.7164C230.114 33.7645 230.063 33.8096 230.015 33.8517C229.967 33.8878 229.925 33.9208 229.889 33.9509C229.853 33.975 229.808 34.0081 229.754 34.0502C229.641 34.1344 229.557 34.1765 229.503 34.1766C229.491 34.1766 229.407 34.1378 229.25 34.0601C229.1 33.9824 228.953 33.9076 228.809 33.8359L228.593 33.7283C228.593 33.7043 228.653 33.6412 228.773 33.539C228.826 33.4969 228.874 33.4578 228.916 33.4217C228.964 33.3796 229 33.3525 229.024 33.3405L229.015 28.6065C229.015 28.5825 229.024 28.5615 229.042 28.5435C229.084 28.5014 229.111 28.4803 229.123 28.4803C229.219 28.3901 229.318 28.309 229.42 28.2368C229.432 28.2307 229.462 28.2157 229.51 28.1916C229.558 28.1615 229.612 28.1314 229.671 28.1013C229.737 28.0652 229.788 28.0381 229.824 28.02C229.866 27.9959 229.893 27.9839 229.905 27.9839L229.909 29.8829L230.008 29.8017L230.026 29.8017C230.044 29.7716 230.082 29.7296 230.142 29.6754C230.298 29.5492 230.391 29.477 230.421 29.4589C230.427 29.4529 230.49 29.4078 230.61 29.3236C230.736 29.2333 230.822 29.1882 230.87 29.1881L230.898 29.197C231.306 29.5143 231.768 29.6994 232.285 29.7525C232.297 29.7525 232.306 29.7555 232.312 29.7614C232.312 29.7674 232.309 29.7765 232.303 29.7885C232.297 29.7945 232.291 29.8005 232.285 29.8065C232.279 29.8125 232.273 29.8185 232.267 29.8245C232.207 29.8906 232.141 29.9478 232.069 29.9959L231.835 30.1673L231.842 34.0103C231.843 34.3403 231.987 34.5111 232.275 34.5225L232.392 34.5223L232.626 34.5129L231.844 35.1443ZM234.142 34.2131L234.115 34.2041C233.893 34.0365 233.658 33.89 233.412 33.7644C233.172 33.6389 232.911 33.5764 232.629 33.5769C232.611 33.5769 232.602 33.5739 232.602 33.5679C232.602 33.5619 232.605 33.5559 232.611 33.5499C232.611 33.5439 232.62 33.5289 232.638 33.5049C232.697 33.4387 232.766 33.3786 232.844 33.3245L232.979 33.2252L232.977 32.0282C232.977 32.0042 232.986 31.9832 233.004 31.9652C233.046 31.9231 233.07 31.9021 233.076 31.902C233.213 31.7698 233.339 31.6736 233.453 31.6133L233.588 31.5411C233.678 31.4629 233.771 31.3908 233.867 31.3246C233.879 31.3186 233.897 31.3035 233.92 31.2795C234.112 31.1411 234.241 31.0719 234.307 31.0718C234.325 31.0717 234.538 31.1403 234.946 31.2776L234.945 30.5756C234.807 30.5039 234.618 30.4172 234.378 30.3156C234.029 30.1663 233.738 30.0918 233.504 30.0923C233.45 30.0924 233.378 30.0955 233.288 30.1016C233.204 30.1078 233.123 30.117 233.045 30.1291L232.919 30.1473L234.016 29.3173L234.295 29.4248C234.481 29.4965 234.712 29.562 234.988 29.6215C235.235 29.6811 235.487 29.7106 235.745 29.7101L235.817 29.71C235.829 29.71 235.836 30.337 235.838 31.591L235.832 33.04L236.363 33.39L236.363 33.399C236.363 33.411 236.348 33.432 236.319 33.4621L236.049 33.6966C235.935 33.7868 235.797 33.874 235.635 33.9583L235.59 33.9854C235.555 34.0035 235.525 34.0125 235.501 34.0126C235.495 34.0126 235.308 33.8929 234.942 33.6536L234.816 33.7708C234.642 33.9092 234.505 34.0114 234.403 34.0776C234.271 34.1678 234.184 34.213 234.142 34.2131ZM234.41 33.2046L234.428 33.1866C234.488 33.1204 234.554 33.0603 234.626 33.0062L234.671 32.9701L234.949 32.7806L234.948 32.2136L233.859 31.8286L233.861 32.9896C234.053 33.0372 234.236 33.1089 234.41 33.2046ZM238.364 34.3583C238.118 34.1968 237.86 34.0562 237.589 33.9367C237.385 33.8471 237.175 33.8025 236.959 33.8029C236.881 33.803 236.803 33.8092 236.725 33.8213C236.761 33.8033 236.788 33.7852 236.806 33.7672C236.83 33.7431 236.95 33.6529 237.166 33.4965L237.48 33.2799C237.486 33.2799 237.51 33.2649 237.552 33.2348C237.6 33.1987 237.696 33.1805 237.84 33.1803C238.194 33.1796 238.59 33.3199 239.029 33.6011L239.026 32.0531C238.93 31.9333 238.804 31.8705 238.648 31.8648L238.549 31.865C238.429 31.8652 238.315 31.8804 238.207 31.9106C237.961 31.983 237.724 32.0825 237.496 32.2089L237.334 32.2992C237.328 32.3052 237.316 32.3142 237.298 32.3263C237.28 32.3323 237.262 32.3383 237.244 32.3444C237.226 32.3504 237.211 32.3534 237.199 32.3535L237.181 32.3535L237.178 30.3195C237.178 30.2835 237.205 30.2474 237.259 30.2113C237.33 30.1392 237.438 30.055 237.582 29.9587L237.825 29.8053C237.963 29.733 238.041 29.6969 238.059 29.6969L238.535 29.336C238.661 29.2398 238.739 29.1916 238.769 29.1916L238.778 29.1915C239.216 29.5087 239.706 29.6908 240.246 29.7378C240.228 29.7379 240.186 29.7709 240.12 29.8371L239.455 30.3063C239.401 30.3424 239.368 30.3605 239.356 30.3605C238.888 30.3193 238.455 30.1731 238.059 29.9219L238.062 31.7039L238.098 31.6858C238.38 31.5233 238.674 31.3937 238.98 31.2972C239.111 31.2549 239.255 31.2337 239.411 31.2334L239.591 31.233C239.693 31.2329 239.799 31.2987 239.907 31.4305L239.91 33.0865L240.144 33.032C240.162 33.032 240.171 33.035 240.171 33.041C240.171 33.053 240.165 33.065 240.153 33.077C240.141 33.089 240.129 33.1011 240.117 33.1131C240.111 33.1251 240.105 33.1341 240.099 33.1401C239.973 33.2603 239.775 33.4137 239.506 33.6002C239.5 33.6002 239.482 33.6093 239.452 33.6273C239.428 33.6454 239.395 33.6664 239.353 33.6905C239.317 33.7086 239.266 33.7416 239.2 33.7898C239.134 33.8319 239.074 33.871 239.02 33.9071C238.966 33.9372 238.921 33.9673 238.885 33.9974C238.85 34.0274 238.826 34.0455 238.814 34.0515C238.802 34.0575 238.778 34.0725 238.742 34.0966C238.712 34.1267 238.67 34.1627 238.616 34.2048C238.472 34.3071 238.388 34.3583 238.364 34.3583ZM241.637 34.1543C241.625 34.1543 241.544 34.1155 241.394 34.0377L241.169 33.9211L240.728 33.706C240.728 33.7 240.746 33.6789 240.782 33.6429C240.817 33.6068 240.859 33.5677 240.907 33.5256C240.961 33.4775 241.009 33.4354 241.051 33.3994C241.099 33.3633 241.126 33.3422 241.132 33.3362C241.144 33.3302 241.156 33.3242 241.168 33.3181L241.162 30.1592L240.721 29.944C240.721 29.938 240.739 29.9169 240.775 29.8809C240.852 29.8027 240.945 29.7216 241.053 29.6374C241.095 29.6013 241.119 29.5802 241.125 29.5742C241.137 29.5682 241.2 29.5231 241.314 29.4389C241.428 29.3547 241.515 29.3125 241.575 29.3124C241.587 29.3124 241.668 29.3512 241.818 29.4289L242.043 29.5365L242.484 29.7607C242.484 29.7667 242.466 29.7848 242.43 29.8148C242.323 29.917 242.233 29.9982 242.161 30.0583L242.044 30.1485L242.05 33.2985L242.491 33.5227C242.491 33.5287 242.473 33.5467 242.437 33.5768C242.258 33.7451 242.123 33.8594 242.033 33.9196L241.889 34.0278C241.781 34.112 241.697 34.1542 241.637 34.1543ZM241.718 28.8891C241.388 28.8717 241.082 28.7703 240.799 28.5848L240.853 28.5397C240.883 28.5217 240.907 28.5036 240.925 28.4856L241.231 28.26C241.249 28.248 241.318 28.1969 241.437 28.1066C241.563 28.0104 241.641 27.9623 241.671 27.9622L241.68 27.9622C241.962 28.1477 242.269 28.2491 242.599 28.2665C242.593 28.2725 242.581 28.2815 242.563 28.2936C242.545 28.3056 242.518 28.3297 242.482 28.3657L241.808 28.844C241.766 28.874 241.736 28.8891 241.718 28.8891ZM244.538 34.3469C244.291 34.1854 244.033 34.0449 243.763 33.9254C243.559 33.8357 243.349 33.7911 243.133 33.7915C243.055 33.7917 242.977 33.7978 242.899 33.81C242.935 33.7919 242.962 33.7738 242.979 33.7558C243.003 33.7318 243.123 33.6415 243.339 33.4852L243.654 33.2686C243.66 33.2686 243.684 33.2535 243.726 33.2234C243.773 33.1873 243.869 33.1692 244.013 33.1689C244.367 33.1683 244.764 33.3085 245.202 33.5897L245.199 32.0417C245.103 31.9219 244.977 31.8591 244.821 31.8534L244.722 31.8536C244.602 31.8538 244.488 31.869 244.38 31.8992C244.134 31.9717 243.897 32.0711 243.67 32.1975L243.508 32.2878C243.502 32.2938 243.49 32.3029 243.472 32.3149C243.454 32.3209 243.436 32.327 243.418 32.333C243.4 32.339 243.385 32.3421 243.373 32.3421L243.355 32.3421L243.351 30.3081C243.351 30.2721 243.378 30.2361 243.432 30.2C243.504 30.1278 243.612 30.0436 243.755 29.9474L243.998 29.7939C244.136 29.7217 244.214 29.6855 244.232 29.6855L244.708 29.3246C244.834 29.2284 244.912 29.1802 244.942 29.1802L244.951 29.1802C245.39 29.4974 245.879 29.6795 246.419 29.7265C246.401 29.7265 246.359 29.7596 246.293 29.8257L245.628 30.2949C245.574 30.331 245.541 30.3491 245.529 30.3491C245.061 30.308 244.629 30.1618 244.232 29.9105L244.236 31.6925L244.272 31.6744C244.553 31.5119 244.847 31.3824 245.153 31.2858C245.285 31.2436 245.429 31.2223 245.585 31.222L245.765 31.2217C245.867 31.2215 245.972 31.2873 246.08 31.4191L246.083 33.0751L246.317 33.0207C246.335 33.0206 246.344 33.0236 246.344 33.0296C246.344 33.0416 246.338 33.0536 246.326 33.0656C246.314 33.0777 246.302 33.0897 246.29 33.1017C246.284 33.1137 246.278 33.1227 246.272 33.1287C246.147 33.249 245.949 33.4023 245.679 33.5888C245.673 33.5889 245.655 33.5979 245.625 33.6159C245.601 33.634 245.568 33.655 245.526 33.6791C245.49 33.6972 245.439 33.7303 245.374 33.7784C245.308 33.8205 245.248 33.8596 245.194 33.8957C245.14 33.9258 245.095 33.9559 245.059 33.986C245.023 34.0161 244.999 34.0341 244.987 34.0401C244.975 34.0461 244.951 34.0612 244.915 34.0852C244.885 34.1153 244.843 34.1514 244.789 34.1935C244.645 34.2957 244.562 34.3469 244.538 34.3469ZM250.241 34.3454L250.214 34.3365C249.884 34.0971 249.551 33.9267 249.214 33.8253L248.864 34.114L248.72 34.2132C248.594 34.3035 248.507 34.3486 248.459 34.3487L248.423 34.3398L248.297 34.259C247.853 33.9418 247.462 33.7836 247.126 33.7842C247.06 33.7843 246.994 33.7904 246.928 33.8025L246.91 33.8026C246.904 33.8026 246.901 33.7996 246.901 33.7936C246.901 33.7876 246.904 33.7786 246.91 33.7666C246.922 33.7546 246.931 33.7485 246.937 33.7485C246.943 33.7425 246.946 33.7365 246.946 33.7305C247.006 33.6644 247.072 33.6073 247.144 33.5591C247.162 33.5471 247.18 33.5351 247.198 33.523C247.222 33.505 247.246 33.484 247.27 33.4599C247.3 33.4359 247.33 33.4148 247.36 33.3967L247.354 30.1478L246.912 29.9326C246.912 29.9266 246.93 29.9055 246.966 29.8695C247.068 29.7673 247.203 29.653 247.37 29.5267L247.514 29.4185C247.628 29.3402 247.712 29.3011 247.766 29.301C247.778 29.301 247.859 29.3398 248.009 29.4175C248.159 29.4893 248.306 29.564 248.451 29.6417L248.667 29.7493C248.667 29.7673 248.607 29.8244 248.487 29.9207L248.236 30.1371L248.241 33.1881C248.499 33.2536 248.748 33.3612 248.989 33.5107C249.013 33.4927 249.037 33.4747 249.061 33.4566C249.085 33.4326 249.112 33.4115 249.142 33.3935L249.136 30.1445C249.135 30.1085 249.162 30.0724 249.216 30.0363C249.288 29.9642 249.396 29.88 249.54 29.7837L249.792 29.6303C249.929 29.558 250.004 29.5219 250.016 29.5218L250.023 33.1848C250.323 33.2623 250.606 33.3908 250.87 33.5703L250.864 30.1413L250.431 29.9261C250.431 29.9141 250.446 29.8931 250.476 29.863C250.512 29.8269 250.557 29.7879 250.611 29.7458C250.665 29.6977 250.713 29.6556 250.755 29.6195C250.797 29.5834 250.823 29.5624 250.835 29.5563C250.847 29.5503 250.862 29.5383 250.88 29.5203C250.922 29.4902 250.97 29.4571 251.024 29.421C251.084 29.3789 251.135 29.3488 251.177 29.3307C251.219 29.3066 251.252 29.2946 251.276 29.2945C251.288 29.2945 251.369 29.3334 251.519 29.4111C251.669 29.4828 251.744 29.5187 251.744 29.5187C251.75 29.5187 251.825 29.5575 251.97 29.6353L252.186 29.7429C252.186 29.7549 252.168 29.7759 252.132 29.806C252.096 29.836 252.054 29.8721 252.006 29.9142L251.755 30.1306C251.758 32.1946 251.757 33.2297 251.751 33.2357L252.382 33.7115L252.382 33.7205C252.382 33.7325 252.367 33.7535 252.337 33.7836C252.217 33.8918 252.131 33.967 252.077 34.0091C252.023 34.0452 251.99 34.0692 251.978 34.0812C251.876 34.1534 251.768 34.2196 251.654 34.2798L251.609 34.3069C251.567 34.325 251.537 34.3341 251.519 34.3341C251.513 34.3341 251.312 34.1875 250.915 33.8942L250.646 34.1107C250.604 34.1408 250.553 34.1739 250.493 34.21C250.439 34.2521 250.388 34.2852 250.34 34.3093C250.298 34.3333 250.265 34.3454 250.241 34.3454ZM254.322 34.1759L254.295 34.167C254.072 33.9994 253.838 33.8528 253.592 33.7273C253.351 33.6017 253.09 33.5392 252.808 33.5397C252.79 33.5397 252.781 33.5368 252.781 33.5308C252.781 33.5248 252.784 33.5188 252.79 33.5127C252.79 33.5067 252.799 33.4917 252.817 33.4677C252.877 33.4016 252.946 33.3415 253.024 33.2873L253.159 33.1881L253.157 31.9911C253.156 31.9671 253.165 31.9461 253.183 31.928C253.225 31.8859 253.249 31.8649 253.255 31.8649C253.393 31.7326 253.519 31.6364 253.633 31.5762L253.768 31.5039C253.857 31.4258 253.95 31.3536 254.046 31.2874C254.058 31.2814 254.076 31.2664 254.1 31.2423C254.292 31.104 254.421 31.0347 254.487 31.0346C254.505 31.0346 254.718 31.1032 255.126 31.2404L255.125 30.5384C254.987 30.4667 254.798 30.38 254.557 30.2785C254.209 30.1291 253.918 30.0547 253.684 30.0551C253.63 30.0552 253.558 30.0583 253.468 30.0645C253.384 30.0706 253.303 30.0798 253.225 30.0919L253.099 30.1102L254.196 29.2802L254.475 29.3876C254.661 29.4593 254.892 29.5249 255.168 29.5844C255.414 29.6439 255.666 29.6734 255.924 29.673L255.996 29.6728C256.008 29.6728 256.015 30.2998 256.018 31.5538L256.011 33.0028L256.543 33.3528L256.543 33.3618C256.543 33.3738 256.528 33.3949 256.498 33.4249L256.229 33.6594C256.115 33.7496 255.977 33.8369 255.815 33.9212L255.77 33.9483C255.734 33.9663 255.704 33.9754 255.68 33.9754C255.674 33.9754 255.488 33.8558 255.122 33.6165L254.996 33.7337C254.822 33.872 254.684 33.9743 254.582 34.0405C254.45 34.1307 254.364 34.1759 254.322 34.1759ZM254.59 33.1674L254.608 33.1494C254.668 33.0833 254.733 33.0232 254.805 32.969L254.85 32.933L255.129 32.7434L255.128 32.1764L254.038 31.7914L254.04 32.9524C254.232 33.0001 254.416 33.0718 254.59 33.1674Z" fill="black"/>
<path d="M196.581 21.98L196.081 21.14V9.18L196.581 8.28V21.98ZM198.881 24.32H198.861C197.795 23.5333 196.601 23.14 195.281 23.14H195.141C195.181 23.14 195.255 23.0867 195.361 22.98L196.121 22.44C196.348 22.2667 196.581 22.1067 196.821 21.96C196.821 21.9467 196.828 21.9333 196.841 21.92C196.855 21.92 196.875 21.9067 196.901 21.88C196.941 21.8667 196.975 21.8467 197.001 21.82V7.58L195.001 7.04C195.001 7.02667 195.021 6.99333 195.061 6.94C195.115 6.88667 195.155 6.84667 195.181 6.82C195.208 6.78 195.228 6.76 195.241 6.76C195.455 6.57333 195.675 6.4 195.901 6.24L196.041 6.12C196.468 5.81333 196.768 5.66 196.941 5.66C196.995 5.66 198.108 5.96 200.281 6.56L203.601 7.46L203.581 7.48V12.08C203.581 12.1467 203.508 12.24 203.361 12.36L202.581 12.96C201.955 13.44 201.341 13.92 200.741 14.4C200.141 14.88 199.548 15.3467 198.961 15.8V22.02C199.561 22.2067 200.135 22.5 200.681 22.9C200.655 22.9 200.555 22.9867 200.381 23.16C200.301 23.24 200.221 23.3133 200.141 23.38C200.075 23.4467 200.015 23.5067 199.961 23.56C199.921 23.6267 199.741 23.7667 199.421 23.98C199.288 24.0733 199.168 24.1533 199.061 24.22C198.968 24.2867 198.908 24.32 198.881 24.32ZM198.961 14.48L201.621 12.38V8.84L198.961 8.12V14.48ZM207.917 22.12L207.417 21.28V10.2L207.917 9.32V22.12ZM211.077 24.32H211.057C209.99 23.5333 208.797 23.14 207.477 23.14H207.337C207.35 23.14 207.377 23.12 207.417 23.08L207.617 22.92C208.084 22.5867 208.317 22.4133 208.317 22.4C208.33 22.4 208.344 22.4 208.357 22.4V8.78H206.577C205.83 8.9 205.164 9.23333 204.577 9.78L204.257 10.08H204.177L204.957 8.44C205.144 8.05333 205.31 7.76 205.457 7.56C205.724 7.02667 205.95 6.76 206.137 6.76H212.977C213.31 6.73333 213.624 6.65333 213.917 6.52C214.45 6.26667 214.884 5.97333 215.217 5.64L215.397 5.46H215.477L214.677 7.14L214.637 7.22C214.464 7.56667 214.317 7.82 214.197 7.98C213.93 8.51333 213.704 8.78 213.517 8.78H210.317V21.82C210.89 21.9 211.437 22.0733 211.957 22.34C212.117 22.3933 212.297 22.42 212.497 22.42C212.684 22.42 212.87 22.4133 213.057 22.4C213.244 22.3867 213.397 22.3667 213.517 22.34L213.697 22.32C212.604 23.2 212.044 23.6467 212.017 23.66C211.99 23.6867 211.737 23.88 211.257 24.24C211.164 24.2933 211.104 24.32 211.077 24.32ZM219.694 19.98L219.174 19.12V9.9L219.694 9V19.98ZM216.614 24.64C216.548 24.64 216.408 24.56 216.194 24.4C215.994 24.24 215.861 24.1333 215.794 24.08C215.741 24.0267 215.281 23.66 214.414 22.98L214.794 22.96C215.048 22.9467 215.348 22.9 215.694 22.82C216.041 22.7533 216.361 22.6267 216.654 22.44L220.134 20.22V8.62H217.494C217.108 8.67333 216.754 8.79333 216.434 8.98C216.114 9.16667 215.854 9.35333 215.654 9.54L215.354 9.82H215.294L216.014 8.3C216.121 8.06 216.248 7.82667 216.394 7.6L216.454 7.48C216.721 6.98667 216.934 6.74 217.094 6.74H222.034C222.341 6.71333 222.628 6.64 222.894 6.52C223.334 6.32 223.734 6.04667 224.094 5.7L224.274 5.54H224.354L223.634 7.04C223.634 7.05333 223.628 7.06 223.614 7.06L223.574 7.18L223.234 7.74L223.174 7.88C222.908 8.37333 222.694 8.62 222.534 8.62H222.094V20.88C222.094 20.9467 222.021 21.04 221.874 21.16C221.554 21.44 221.261 21.66 220.994 21.82C220.634 22.0333 220.074 22.3867 219.314 22.88C218.728 23.2533 218.201 23.6 217.734 23.92C217.054 24.4 216.681 24.64 216.614 24.64ZM226.954 24.48L224.514 23.2H225.054C225.454 23.2 225.821 23.16 226.154 23.08C226.741 22.92 227.034 22.64 227.034 22.24V7.9C226.874 7.83333 226.714 7.75333 226.554 7.66C226.314 7.59333 226.067 7.56 225.814 7.56C225.521 7.56 225.227 7.58667 224.934 7.64L226.394 6.36L226.574 6.22C227.067 5.82 227.361 5.6 227.454 5.56C228.587 6.44 229.847 6.89333 231.234 6.92C231.221 6.92 231.201 6.93333 231.174 6.96C231.161 6.97333 231.147 6.98667 231.134 7C230.614 7.41333 230.114 7.78667 229.634 8.12C229.527 8.2 229.461 8.24667 229.434 8.26C229.421 8.27333 229.407 8.28667 229.394 8.3C229.381 8.31333 229.247 8.32 228.994 8.32V13.04L232.314 9.9C231.941 9.59333 231.581 9.26667 231.234 8.92C231.234 8.88 231.361 8.7 231.614 8.38C231.774 8.15333 231.887 8.00667 231.954 7.94L232.674 7L234.234 8.56C234.234 8.58667 234.194 8.65333 234.114 8.76C234.047 8.85333 233.961 8.96667 233.854 9.1C233.761 9.23333 233.681 9.33333 233.614 9.4C233.561 9.46667 233.527 9.51333 233.514 9.54C233.501 9.55333 233.461 9.6 233.394 9.68C233.341 9.76 233.274 9.85333 233.194 9.96C233.127 10.0533 233.074 10.1333 233.034 10.2L232.954 10.32L229.614 13.46H233.574L233.534 13.5L233.594 13.48V19.88L234.554 20.38C234.554 20.42 234.421 20.5467 234.154 20.76C233.861 21.0133 233.694 21.1533 233.654 21.18C233.614 21.22 233.474 21.32 233.234 21.48C232.954 21.68 232.767 21.78 232.674 21.78L231.614 21.26L230.654 20.76C230.654 20.7333 230.787 20.6 231.054 20.36C231.174 20.2667 231.281 20.18 231.374 20.1C231.481 20.0067 231.561 19.9467 231.614 19.92V14.98H228.994V22.58C228.994 22.9933 228.901 23.32 228.714 23.56C228.381 23.9867 227.794 24.2933 226.954 24.48ZM226.614 22.24L226.114 21.4V9.18L226.614 8.28V22.24ZM236.731 20.92L236.211 20.08V8.72L236.731 7.84V20.92ZM239.031 24.32H239.011C237.945 23.5333 236.751 23.14 235.431 23.14H235.291C235.318 23.14 235.385 23.0867 235.491 22.98L235.571 22.92C236.305 22.4 236.771 22.08 236.971 21.96C236.971 21.9467 236.978 21.9333 236.991 21.92C237.005 21.92 237.025 21.9067 237.051 21.88C237.078 21.8667 237.105 21.8467 237.131 21.82V7.7L235.311 6.66L236.971 5.64C237.051 5.58667 237.131 5.56 237.211 5.56C237.291 5.56 237.365 5.58667 237.431 5.64L238.671 6.42L239.091 6.12C239.491 5.8 239.785 5.64 239.971 5.64L243.971 7.1L243.951 7.12V19.88L244.931 20.38C244.931 20.3933 244.891 20.44 244.811 20.52C244.731 20.5867 244.631 20.6733 244.511 20.78C244.405 20.8733 244.298 20.96 244.191 21.04C244.098 21.12 244.038 21.1667 244.011 21.18C243.998 21.2067 243.965 21.2333 243.911 21.26C243.818 21.3267 243.711 21.4 243.591 21.48C243.471 21.5733 243.358 21.6467 243.251 21.7C243.158 21.7533 243.085 21.78 243.031 21.78L242.951 21.76L241.991 21.26L241.011 20.76L241.131 20.64C241.211 20.56 241.305 20.4733 241.411 20.38C241.531 20.2733 241.638 20.18 241.731 20.1C241.838 20.02 241.898 19.9733 241.911 19.96C241.938 19.9467 241.965 19.9333 241.991 19.92V8.48L239.111 7.42V22.02C239.391 22.1 239.658 22.2067 239.911 22.34C240.071 22.3933 240.251 22.42 240.451 22.42C240.638 22.42 240.825 22.4133 241.011 22.4C241.198 22.3867 241.351 22.3667 241.471 22.34L241.651 22.32L239.891 23.74L239.211 24.24C239.118 24.2933 239.058 24.32 239.031 24.32Z" fill="black"/>
</svg>
