<svg width="440" height="160" viewBox="0 0 440 160" fill="none" xmlns="http://www.w3.org/2000/svg">
<path d="M166 133.098L220.5 159L274 133.098V67.3624V1H166V67.3624V133.098Z" fill="#F0DAA9" stroke="black"/>
<path d="M220.5 154L170 130.419V83.3737V39H271V130.419L220.5 154Z" fill="black" stroke="#1E1E1E"/>
<path d="M218.904 88.8941H173V43H218.904V88.8941Z" fill="#891F21" stroke="black"/>
<path d="M267.755 88.8941H221.85V43H267.755V88.8941Z" fill="#891F21" stroke="black"/>
<path d="M268 92.2842H221.85V148.87L268 128.53V92.2842Z" fill="#891F21" stroke="black"/>
<path d="M173 92H219.15V148.585L173 128.246V92Z" fill="#891F21" stroke="black"/>
<g opacity="0.8">
<path fill-rule="evenodd" clip-rule="evenodd" d="M205.268 51H206.025C206.125 51.4844 205.668 51.5182 205.639 51.9012H204.883C204.783 51.4168 205.24 51.383 205.268 51Z" fill="black"/>
<path fill-rule="evenodd" clip-rule="evenodd" d="M169.695 52.4985C170.694 52.7126 170.495 53.8616 171.594 53.9968C171.537 54.346 170.909 54.2446 170.452 54.3009C169.681 54.3798 169.695 55.1008 169.31 55.4951C168.596 55.3148 168.468 55.1458 168.939 54.5938C169.139 54.346 169.31 53.2082 169.695 52.4985Z" fill="black"/>
<path fill-rule="evenodd" clip-rule="evenodd" d="M177.259 52.8025C176.959 54.6162 179.001 53.0053 177.259 52.8025V52.8025Z" fill="black"/>
<path fill-rule="evenodd" clip-rule="evenodd" d="M179.915 56.0808C180.457 56.1484 180.043 56.9708 180.671 56.982C180.4 57.5115 179.986 57.0271 179.529 56.982C179.43 56.4976 179.886 56.4638 179.915 56.0808Z" fill="black"/>
<path fill-rule="evenodd" clip-rule="evenodd" d="M169.31 56.9822C169.781 57.1174 170.081 57.3652 170.067 57.8834C169.596 57.7482 169.296 57.5004 169.31 56.9822Z" fill="black"/>
<path fill-rule="evenodd" clip-rule="evenodd" d="M181.045 57.2749C182.172 58.086 181.887 59.9898 182.558 61.1614C181.958 61.1839 181.116 61.0149 181.045 61.4655C179.988 61.3078 179.917 60.3277 179.531 59.6744C179.446 59.5279 179.046 59.4265 179.16 59.0773C179.203 58.9421 179.96 59.1674 179.917 58.7732C179.845 58.1874 179.489 58.0747 178.775 57.8719C179.489 56.8581 180.103 58.3789 181.045 58.1761C180.588 57.7818 180.902 57.703 181.045 57.2749Z" fill="black"/>
<path fill-rule="evenodd" clip-rule="evenodd" d="M191.265 59.0662C192.036 59.483 190.894 60.0913 191.636 60.8573C190.851 60.7334 190.637 61.0601 190.123 61.1615C190.094 62.1303 189.638 62.7724 188.61 62.9526C188.282 61.9951 189.209 62.0289 189.366 61.4543C189.409 60.9136 188.91 60.8235 188.995 60.2603C189.823 60.5531 190.066 60.0462 190.509 59.6632C190.751 59.4492 191.137 59.3703 191.265 59.0662Z" fill="black"/>
<path fill-rule="evenodd" clip-rule="evenodd" d="M198.074 60.5642C197.246 61.1838 198.402 61.533 197.703 62.0624C197.403 61.9047 197.089 61.747 196.561 61.7583C196.39 60.8233 196.889 60.429 198.074 60.5642Z" fill="black"/>
<path fill-rule="evenodd" clip-rule="evenodd" d="M195.432 61.1611H196.189V61.7582H195.432V61.1611Z" fill="black"/>
<path fill-rule="evenodd" clip-rule="evenodd" d="M181.044 65.0479C181.372 64.9915 181.401 65.1605 181.43 65.352C181.915 66.3659 183.785 66.287 183.699 67.7402C183.014 67.774 182.9 67.3797 182.186 67.436C181.415 67.9317 180.673 68.4386 180.673 69.5314C179.417 69.5314 179.231 68.6865 179.16 67.7402C179.303 67.8979 181.244 66.9967 180.302 66.242C179.46 65.5773 181.058 66.1856 181.058 65.0479H181.044Z" fill="black"/>
<path fill-rule="evenodd" clip-rule="evenodd" d="M167.797 65.3406C168.283 65.7574 169.439 65.6335 170.452 65.6447C170.624 66.2869 169.91 66.208 169.31 66.2418C169.082 67.1993 170.024 67.1655 169.31 67.74C168.725 67.312 167.84 67.1092 167.041 66.8388C166.755 65.9151 168.083 66.2643 167.797 65.3406Z" fill="black"/>
<path fill-rule="evenodd" clip-rule="evenodd" d="M196.561 65.6449C197.375 65.5097 197.275 66.073 197.318 66.5461C197.018 66.4898 196.946 66.242 196.561 66.242V65.6449Z" fill="black"/>
<path fill-rule="evenodd" clip-rule="evenodd" d="M198.844 70.1285C198.986 70.6354 198.544 70.6918 198.087 70.7256C198.001 71.255 198.473 72.2238 197.331 71.9196C196.874 70.5566 197.259 69.4526 198.844 70.1285Z" fill="black"/>
<path fill-rule="evenodd" clip-rule="evenodd" d="M170.065 70.4214C170.736 70.489 170.921 70.9396 170.821 71.6155C169.422 71.5817 169.865 71.1761 170.065 70.4214Z" fill="black"/>
<path fill-rule="evenodd" clip-rule="evenodd" d="M203.754 74.0034C203.354 75.7382 205.395 74.1273 203.754 74.0034V74.0034Z" fill="black"/>
<path fill-rule="evenodd" clip-rule="evenodd" d="M188.995 77.5857C188.595 79.3205 190.636 77.7096 188.995 77.5857V77.5857Z" fill="black"/>
<path fill-rule="evenodd" clip-rule="evenodd" d="M199.972 78.1941C201.257 78.2728 202.142 78.6673 203.755 78.4982C203.898 79.8161 202.028 79.5345 201.1 79.9965C200.743 80.2104 200.529 80.5371 200.343 80.8978C199.815 80.8751 200.129 80.3117 199.958 79.9965C199.544 79.2416 198.773 78.9602 199.958 78.2053L199.972 78.1941Z" fill="black"/>
<path fill-rule="evenodd" clip-rule="evenodd" d="M204.898 78.1941H205.654V78.7911H204.898V78.1941Z" fill="black"/>
<path fill-rule="evenodd" clip-rule="evenodd" d="M188.625 79.0842C189.581 79.1178 190.095 79.5235 190.138 80.2781C188.982 80.0642 188.753 80.5825 187.868 80.5825C188.025 80.008 188.953 80.0418 188.625 79.0842Z" fill="black"/>
<path fill-rule="evenodd" clip-rule="evenodd" d="M174.235 79.9856C175.291 80.2446 175.491 81.191 175.748 82.0808H173.478C173.792 81.4388 174.463 81.067 174.235 79.9856Z" fill="black"/>
<path fill-rule="evenodd" clip-rule="evenodd" d="M173.478 82.9707C174.32 83.0947 173.777 84.5591 173.478 84.7619C172.635 84.6381 173.178 83.1737 173.478 82.9707Z" fill="black"/>
<path fill-rule="evenodd" clip-rule="evenodd" d="M183.698 62.9524C183.256 62.9073 183.027 63.02 182.942 63.2566C181.9 63.6959 183.97 61.8034 183.327 61.7583C183.841 61.7808 183.641 62.5581 183.698 62.9524Z" fill="black"/>
<path fill-rule="evenodd" clip-rule="evenodd" d="M172.721 63.5494C174.034 61.9047 174.577 66.0164 174.991 64.1464C175.833 64.2704 175.148 65.6221 175.362 66.2417C174.477 66.3431 173.592 66.4332 173.849 67.4358C173.52 67.4922 173.492 67.3232 173.478 67.1317H172.721C173.349 66.636 174.249 66.3544 174.234 65.3405C174.092 64.4506 173.578 63.8648 172.721 63.5494Z" fill="black"/>
<path fill-rule="evenodd" clip-rule="evenodd" d="M185.211 63.2565C185.639 64.1915 184.611 63.9775 184.454 64.4507C184.169 64.2704 183.755 63.2002 185.211 63.2565Z" fill="black"/>
<path fill-rule="evenodd" clip-rule="evenodd" d="M196.945 72.8094C196.831 72.2799 198.415 72.7868 198.072 73.4064C197.23 73.5754 197.53 72.8319 196.945 72.8094Z" fill="black"/>
<path fill-rule="evenodd" clip-rule="evenodd" d="M199.215 73.7108C200.228 73.508 199.943 74.3303 200.357 74.6119C200.428 75.2653 200.043 75.5582 199.215 75.5131V77.6084C197.245 77.7774 195.846 77.4733 196.188 75.8173C197.445 75.5019 197.487 75.9074 198.844 75.5131C199.486 74.9949 198.787 74.7359 199.215 73.722V73.7108Z" fill="black"/>
<path fill-rule="evenodd" clip-rule="evenodd" d="M187.095 76.0988C187.252 77.2253 186.296 77.4618 185.582 77.8899C185.582 78.2505 185.111 78.0251 185.211 77.8899C185.282 77.766 185.924 77.6871 185.967 77.5858C186.081 77.3492 185.81 76.9099 185.967 76.6846C185.996 76.6508 186.324 76.7296 186.353 76.6846C186.567 76.2903 186.381 76.0312 187.109 76.0875L187.095 76.0988Z" fill="black"/>
</g>
<g opacity="0.8">
<path fill-rule="evenodd" clip-rule="evenodd" d="M230.268 38H231.025C231.125 38.4844 230.668 38.5182 230.639 38.9012H229.883C229.783 38.4168 230.24 38.383 230.268 38Z" fill="black"/>
<path fill-rule="evenodd" clip-rule="evenodd" d="M194.695 39.4985C195.694 39.7126 195.495 40.8616 196.594 40.9968C196.537 41.346 195.909 41.2446 195.452 41.3009C194.681 41.3798 194.695 42.1008 194.31 42.4951C193.596 42.3148 193.468 42.1458 193.939 41.5938C194.139 41.346 194.31 40.2082 194.695 39.4985Z" fill="black"/>
<path fill-rule="evenodd" clip-rule="evenodd" d="M202.259 39.8025C201.959 41.6162 204.001 40.0053 202.259 39.8025V39.8025Z" fill="black"/>
<path fill-rule="evenodd" clip-rule="evenodd" d="M204.915 43.0808C205.457 43.1484 205.043 43.9708 205.671 43.982C205.4 44.5115 204.986 44.0271 204.529 43.982C204.43 43.4976 204.886 43.4638 204.915 43.0808Z" fill="black"/>
<path fill-rule="evenodd" clip-rule="evenodd" d="M194.31 43.9822C194.781 44.1174 195.081 44.3652 195.067 44.8834C194.596 44.7482 194.296 44.5004 194.31 43.9822Z" fill="black"/>
<path fill-rule="evenodd" clip-rule="evenodd" d="M206.045 44.2749C207.172 45.086 206.887 46.9898 207.558 48.1614C206.958 48.1839 206.116 48.0149 206.045 48.4655C204.988 48.3078 204.917 47.3277 204.531 46.6744C204.446 46.5279 204.046 46.4265 204.16 46.0773C204.203 45.9421 204.96 46.1674 204.917 45.7732C204.845 45.1874 204.489 45.0747 203.775 44.8719C204.489 43.8581 205.103 45.3789 206.045 45.1761C205.588 44.7818 205.902 44.703 206.045 44.2749Z" fill="black"/>
<path fill-rule="evenodd" clip-rule="evenodd" d="M216.265 46.0662C217.036 46.483 215.894 47.0913 216.636 47.8573C215.851 47.7334 215.637 48.0601 215.123 48.1615C215.094 49.1303 214.638 49.7724 213.61 49.9526C213.282 48.9951 214.209 49.0289 214.366 48.4543C214.409 47.9136 213.91 47.8235 213.995 47.2603C214.823 47.5531 215.066 47.0462 215.509 46.6632C215.751 46.4492 216.137 46.3703 216.265 46.0662Z" fill="black"/>
<path fill-rule="evenodd" clip-rule="evenodd" d="M223.074 47.5642C222.246 48.1838 223.402 48.533 222.703 49.0624C222.403 48.9047 222.089 48.747 221.561 48.7583C221.39 47.8233 221.889 47.429 223.074 47.5642Z" fill="black"/>
<path fill-rule="evenodd" clip-rule="evenodd" d="M220.432 48.1611H221.189V48.7582H220.432V48.1611Z" fill="black"/>
<path fill-rule="evenodd" clip-rule="evenodd" d="M206.044 52.0479C206.372 51.9915 206.401 52.1605 206.43 52.352C206.915 53.3659 208.785 53.287 208.699 54.7402C208.014 54.774 207.9 54.3797 207.186 54.436C206.415 54.9317 205.673 55.4386 205.673 56.5314C204.417 56.5314 204.231 55.6865 204.16 54.7402C204.303 54.8979 206.244 53.9967 205.302 53.242C204.46 52.5773 206.058 53.1856 206.058 52.0479H206.044Z" fill="black"/>
<path fill-rule="evenodd" clip-rule="evenodd" d="M192.797 52.3406C193.283 52.7574 194.439 52.6335 195.452 52.6447C195.624 53.2869 194.91 53.208 194.31 53.2418C194.082 54.1993 195.024 54.1655 194.31 54.74C193.725 54.312 192.84 54.1092 192.041 53.8388C191.755 52.9151 193.083 53.2643 192.797 52.3406Z" fill="black"/>
<path fill-rule="evenodd" clip-rule="evenodd" d="M221.561 52.6449C222.375 52.5097 222.275 53.073 222.318 53.5461C222.018 53.4898 221.946 53.242 221.561 53.242V52.6449Z" fill="black"/>
<path fill-rule="evenodd" clip-rule="evenodd" d="M223.844 57.1285C223.986 57.6354 223.544 57.6918 223.087 57.7256C223.001 58.255 223.473 59.2238 222.331 58.9196C221.874 57.5566 222.259 56.4526 223.844 57.1285Z" fill="black"/>
<path fill-rule="evenodd" clip-rule="evenodd" d="M195.065 57.4214C195.736 57.489 195.921 57.9396 195.821 58.6155C194.422 58.5817 194.865 58.1761 195.065 57.4214Z" fill="black"/>
<path fill-rule="evenodd" clip-rule="evenodd" d="M228.754 61.0034C228.354 62.7382 230.395 61.1273 228.754 61.0034V61.0034Z" fill="black"/>
<path fill-rule="evenodd" clip-rule="evenodd" d="M213.995 64.5857C213.595 66.3205 215.636 64.7096 213.995 64.5857V64.5857Z" fill="black"/>
<path fill-rule="evenodd" clip-rule="evenodd" d="M224.972 65.1941C226.257 65.2728 227.142 65.6673 228.755 65.4982C228.898 66.8161 227.028 66.5345 226.1 66.9965C225.743 67.2104 225.529 67.5371 225.343 67.8978C224.815 67.8751 225.129 67.3117 224.958 66.9965C224.544 66.2416 223.773 65.9602 224.958 65.2053L224.972 65.1941Z" fill="black"/>
<path fill-rule="evenodd" clip-rule="evenodd" d="M229.898 65.1941H230.654V65.7911H229.898V65.1941Z" fill="black"/>
<path fill-rule="evenodd" clip-rule="evenodd" d="M213.625 66.0842C214.581 66.1178 215.095 66.5235 215.138 67.2781C213.982 67.0642 213.753 67.5825 212.868 67.5825C213.025 67.008 213.953 67.0418 213.625 66.0842Z" fill="black"/>
<path fill-rule="evenodd" clip-rule="evenodd" d="M199.235 66.9856C200.291 67.2446 200.491 68.191 200.748 69.0808H198.478C198.792 68.4388 199.463 68.067 199.235 66.9856Z" fill="black"/>
<path fill-rule="evenodd" clip-rule="evenodd" d="M198.478 69.9707C199.32 70.0947 198.777 71.5591 198.478 71.7619C197.635 71.6381 198.178 70.1737 198.478 69.9707Z" fill="black"/>
<path fill-rule="evenodd" clip-rule="evenodd" d="M208.698 49.9524C208.256 49.9073 208.027 50.02 207.942 50.2566C206.9 50.6959 208.97 48.8034 208.327 48.7583C208.841 48.7808 208.641 49.5581 208.698 49.9524Z" fill="black"/>
<path fill-rule="evenodd" clip-rule="evenodd" d="M197.721 50.5494C199.034 48.9047 199.577 53.0164 199.991 51.1464C200.833 51.2704 200.148 52.6221 200.362 53.2417C199.477 53.3431 198.592 53.4332 198.849 54.4358C198.52 54.4922 198.492 54.3232 198.478 54.1317H197.721C198.349 53.636 199.249 53.3544 199.234 52.3405C199.092 51.4506 198.578 50.8648 197.721 50.5494Z" fill="black"/>
<path fill-rule="evenodd" clip-rule="evenodd" d="M210.211 50.2565C210.639 51.1915 209.611 50.9775 209.454 51.4507C209.169 51.2704 208.755 50.2002 210.211 50.2565Z" fill="black"/>
<path fill-rule="evenodd" clip-rule="evenodd" d="M221.945 59.8094C221.831 59.2799 223.415 59.7868 223.072 60.4064C222.23 60.5754 222.53 59.8319 221.945 59.8094Z" fill="black"/>
<path fill-rule="evenodd" clip-rule="evenodd" d="M224.215 60.7108C225.228 60.508 224.943 61.3303 225.357 61.6119C225.428 62.2653 225.043 62.5582 224.215 62.5131V64.6084C222.245 64.7774 220.846 64.4733 221.188 62.8173C222.445 62.5019 222.487 62.9074 223.844 62.5131C224.486 61.9949 223.787 61.7359 224.215 60.722V60.7108Z" fill="black"/>
<path fill-rule="evenodd" clip-rule="evenodd" d="M212.095 63.0988C212.252 64.2253 211.296 64.4618 210.582 64.8899C210.582 65.2505 210.111 65.0251 210.211 64.8899C210.282 64.766 210.924 64.6871 210.967 64.5858C211.081 64.3492 210.81 63.9099 210.967 63.6846C210.996 63.6508 211.324 63.7296 211.353 63.6846C211.567 63.2903 211.381 63.0312 212.109 63.0875L212.095 63.0988Z" fill="black"/>
</g>
<g opacity="0.8">
<path fill-rule="evenodd" clip-rule="evenodd" d="M253.268 114H254.025C254.125 114.484 253.668 114.518 253.639 114.901H252.883C252.783 114.417 253.24 114.383 253.268 114Z" fill="black"/>
<path fill-rule="evenodd" clip-rule="evenodd" d="M217.695 115.499C218.694 115.713 218.495 116.862 219.594 116.997C219.537 117.346 218.909 117.245 218.452 117.301C217.681 117.38 217.695 118.101 217.31 118.495C216.596 118.315 216.468 118.146 216.939 117.594C217.139 117.346 217.31 116.208 217.695 115.499Z" fill="black"/>
<path fill-rule="evenodd" clip-rule="evenodd" d="M225.259 115.802C224.959 117.616 227.001 116.005 225.259 115.802V115.802Z" fill="black"/>
<path fill-rule="evenodd" clip-rule="evenodd" d="M227.915 119.081C228.457 119.148 228.043 119.971 228.671 119.982C228.4 120.511 227.986 120.027 227.529 119.982C227.43 119.498 227.886 119.464 227.915 119.081Z" fill="black"/>
<path fill-rule="evenodd" clip-rule="evenodd" d="M217.31 119.982C217.781 120.117 218.081 120.365 218.067 120.883C217.596 120.748 217.296 120.5 217.31 119.982Z" fill="black"/>
<path fill-rule="evenodd" clip-rule="evenodd" d="M229.045 120.275C230.172 121.086 229.887 122.99 230.558 124.161C229.958 124.184 229.116 124.015 229.045 124.465C227.988 124.308 227.917 123.328 227.531 122.674C227.446 122.528 227.046 122.427 227.16 122.077C227.203 121.942 227.96 122.167 227.917 121.773C227.845 121.187 227.489 121.075 226.775 120.872C227.489 119.858 228.103 121.379 229.045 121.176C228.588 120.782 228.902 120.703 229.045 120.275Z" fill="black"/>
<path fill-rule="evenodd" clip-rule="evenodd" d="M239.265 122.066C240.036 122.483 238.894 123.091 239.636 123.857C238.851 123.733 238.637 124.06 238.123 124.161C238.094 125.13 237.638 125.772 236.61 125.953C236.282 124.995 237.209 125.029 237.366 124.454C237.409 123.914 236.91 123.823 236.995 123.26C237.823 123.553 238.066 123.046 238.509 122.663C238.751 122.449 239.137 122.37 239.265 122.066Z" fill="black"/>
<path fill-rule="evenodd" clip-rule="evenodd" d="M246.074 123.564C245.246 124.184 246.402 124.533 245.703 125.062C245.403 124.905 245.089 124.747 244.561 124.758C244.39 123.823 244.889 123.429 246.074 123.564Z" fill="black"/>
<path fill-rule="evenodd" clip-rule="evenodd" d="M243.432 124.161H244.189V124.758H243.432V124.161Z" fill="black"/>
<path fill-rule="evenodd" clip-rule="evenodd" d="M229.044 128.048C229.372 127.992 229.401 128.161 229.43 128.352C229.915 129.366 231.785 129.287 231.699 130.74C231.014 130.774 230.9 130.38 230.186 130.436C229.415 130.932 228.673 131.439 228.673 132.531C227.417 132.531 227.231 131.686 227.16 130.74C227.303 130.898 229.244 129.997 228.302 129.242C227.46 128.577 229.058 129.186 229.058 128.048H229.044Z" fill="black"/>
<path fill-rule="evenodd" clip-rule="evenodd" d="M215.797 128.341C216.283 128.757 217.439 128.633 218.452 128.645C218.624 129.287 217.91 129.208 217.31 129.242C217.082 130.199 218.024 130.166 217.31 130.74C216.725 130.312 215.84 130.109 215.041 129.839C214.755 128.915 216.083 129.264 215.797 128.341Z" fill="black"/>
<path fill-rule="evenodd" clip-rule="evenodd" d="M244.561 128.645C245.375 128.51 245.275 129.073 245.318 129.546C245.018 129.49 244.946 129.242 244.561 129.242V128.645Z" fill="black"/>
<path fill-rule="evenodd" clip-rule="evenodd" d="M246.844 133.129C246.986 133.635 246.544 133.692 246.087 133.726C246.001 134.255 246.473 135.224 245.331 134.92C244.874 133.557 245.259 132.453 246.844 133.129Z" fill="black"/>
<path fill-rule="evenodd" clip-rule="evenodd" d="M218.065 133.421C218.736 133.489 218.921 133.94 218.821 134.615C217.422 134.582 217.865 134.176 218.065 133.421Z" fill="black"/>
<path fill-rule="evenodd" clip-rule="evenodd" d="M251.754 137.003C251.354 138.738 253.395 137.127 251.754 137.003V137.003Z" fill="black"/>
<path fill-rule="evenodd" clip-rule="evenodd" d="M236.995 140.586C236.595 142.321 238.636 140.71 236.995 140.586V140.586Z" fill="black"/>
<path fill-rule="evenodd" clip-rule="evenodd" d="M247.972 141.194C249.257 141.273 250.142 141.667 251.755 141.498C251.898 142.816 250.028 142.534 249.1 142.996C248.743 143.21 248.529 143.537 248.343 143.898C247.815 143.875 248.129 143.312 247.958 142.996C247.544 142.242 246.773 141.96 247.958 141.205L247.972 141.194Z" fill="black"/>
<path fill-rule="evenodd" clip-rule="evenodd" d="M252.898 141.194H253.654V141.791H252.898V141.194Z" fill="black"/>
<path fill-rule="evenodd" clip-rule="evenodd" d="M236.625 142.084C237.581 142.118 238.095 142.524 238.138 143.278C236.982 143.064 236.753 143.583 235.868 143.583C236.025 143.008 236.953 143.042 236.625 142.084Z" fill="black"/>
<path fill-rule="evenodd" clip-rule="evenodd" d="M222.235 142.986C223.291 143.245 223.491 144.191 223.748 145.081H221.478C221.792 144.439 222.463 144.067 222.235 142.986Z" fill="black"/>
<path fill-rule="evenodd" clip-rule="evenodd" d="M221.478 145.971C222.32 146.095 221.777 147.559 221.478 147.762C220.635 147.638 221.178 146.174 221.478 145.971Z" fill="black"/>
<path fill-rule="evenodd" clip-rule="evenodd" d="M231.698 125.952C231.256 125.907 231.027 126.02 230.942 126.257C229.9 126.696 231.97 124.803 231.327 124.758C231.841 124.781 231.641 125.558 231.698 125.952Z" fill="black"/>
<path fill-rule="evenodd" clip-rule="evenodd" d="M220.721 126.549C222.034 124.905 222.577 129.016 222.991 127.146C223.833 127.27 223.148 128.622 223.362 129.242C222.477 129.343 221.592 129.433 221.849 130.436C221.52 130.492 221.492 130.323 221.478 130.132H220.721C221.349 129.636 222.249 129.354 222.234 128.341C222.092 127.451 221.578 126.865 220.721 126.549Z" fill="black"/>
<path fill-rule="evenodd" clip-rule="evenodd" d="M233.211 126.257C233.639 127.192 232.611 126.978 232.454 127.451C232.169 127.27 231.755 126.2 233.211 126.257Z" fill="black"/>
<path fill-rule="evenodd" clip-rule="evenodd" d="M244.945 135.809C244.831 135.28 246.415 135.787 246.072 136.406C245.23 136.575 245.53 135.832 244.945 135.809Z" fill="black"/>
<path fill-rule="evenodd" clip-rule="evenodd" d="M247.215 136.711C248.228 136.508 247.943 137.33 248.357 137.612C248.428 138.265 248.043 138.558 247.215 138.513V140.608C245.245 140.777 243.846 140.473 244.188 138.817C245.445 138.502 245.487 138.907 246.844 138.513C247.486 137.995 246.787 137.736 247.215 136.722V136.711Z" fill="black"/>
<path fill-rule="evenodd" clip-rule="evenodd" d="M235.095 139.099C235.252 140.225 234.296 140.462 233.582 140.89C233.582 141.25 233.111 141.025 233.211 140.89C233.282 140.766 233.924 140.687 233.967 140.586C234.081 140.349 233.81 139.91 233.967 139.685C233.996 139.651 234.324 139.73 234.353 139.685C234.567 139.29 234.381 139.031 235.109 139.088L235.095 139.099Z" fill="black"/>
</g>
<g filter="url(#filter0_d_229_305)">
<rect x="186.283" y="75.5132" width="71.2169" height="40.9873" fill="#F0DAA9" stroke="black"/>
<path d="M255.187 56.5519L256.655 66.56L186.037 74.7395L184.569 64.7314L255.187 56.5519Z" fill="#F0DAA9" stroke="black"/>
<path d="M214.813 103.025V88.1965L229.267 95.6096L214.813 103.025Z" fill="#F0DAA9" stroke="black"/>
</g>
<path d="M193.435 97.6446L193.499 97.7571L193.617 97.8102L199.652 100.552L194.731 100.553L194.209 100.553L194.346 101.058L195.578 105.614L190.742 102.004L190.661 101.944L190.562 101.93L183.374 100.871L187.028 100.056L187.878 99.8661L187.18 99.3459L182.732 96.0257L189.367 97.122L189.367 96.6508L189.366 90.508L193.435 97.6446Z" fill="#FD883B" stroke="black" stroke-width="0.8"/>
<path d="M207.102 127.54L207.143 127.952L207.554 127.896L214.166 126.986L209.026 130.143L208.786 130.291L208.844 130.567L209.8 135.119L207.079 132.08L206.806 131.776L206.507 132.056L202.38 135.929L204.267 131.411L204.444 130.99L204.003 130.87L197.83 129.209L203.995 127.675L204.191 127.627L204.269 127.44L206.542 121.92L207.102 127.54Z" fill="#FD883B" stroke="black" stroke-width="0.8"/>
<path d="M188.917 35.5979C188.905 35.5979 188.791 35.5201 188.574 35.3645C188.298 35.161 188.01 34.9845 187.709 34.8351C187.481 34.7215 187.244 34.665 186.998 34.6654C186.92 34.6656 186.839 34.6717 186.755 34.6839C186.737 34.6839 186.728 34.6809 186.728 34.6749L186.764 34.6118C186.824 34.5457 186.893 34.4856 186.971 34.4315C186.983 34.4194 186.998 34.4104 187.016 34.4044C187.081 34.3383 187.171 34.2691 187.285 34.1969L187.274 28.1309C187.178 28.1011 187.073 28.0863 186.959 28.0865C186.827 28.0867 186.695 28.099 186.563 28.1232C187.006 27.7324 187.231 27.534 187.237 27.528C187.249 27.5159 187.27 27.5009 187.3 27.4828C187.522 27.3024 187.653 27.2032 187.695 27.1851C188.206 27.5802 188.773 27.7831 189.397 27.794L189.02 28.0827C188.912 28.1669 188.798 28.2511 188.678 28.3353C188.631 28.3714 188.601 28.3924 188.589 28.3985C188.583 28.4045 188.574 28.4105 188.562 28.4165C188.556 28.4225 188.52 28.4256 188.454 28.4257C188.358 28.4259 188.262 28.4201 188.166 28.4082C188.173 32.1762 188.173 34.0632 188.167 34.0693C188.473 34.1467 188.764 34.2782 189.041 34.4636L189.05 34.4726C189.266 34.5742 189.512 34.6248 189.788 34.6243C189.908 34.624 190.025 34.6118 190.139 34.5876L190.301 34.5513L189.753 35.0023C189.723 35.0384 189.681 35.0805 189.627 35.1286C189.489 35.2428 189.402 35.309 189.366 35.327C189.336 35.3571 189.273 35.4022 189.178 35.4624C189.046 35.5526 188.959 35.5978 188.917 35.5979ZM187.105 34.0982L186.87 33.7206L186.861 28.6626L187.094 28.2662L187.105 34.0982ZM190.297 34.2543C190.285 34.2544 190.203 34.2155 190.053 34.1378L189.828 34.0212L189.387 33.806C189.387 33.8 189.405 33.779 189.441 33.7429C189.477 33.7068 189.518 33.6678 189.566 33.6257C189.62 33.5776 189.668 33.5355 189.71 33.4994C189.758 33.4633 189.785 33.4423 189.791 33.4363C189.803 33.4302 189.815 33.4242 189.827 33.4182L189.821 30.2592L189.38 30.044C189.38 30.038 189.398 30.017 189.434 29.9809C189.512 29.9028 189.604 29.8216 189.712 29.7374C189.754 29.7013 189.778 29.6803 189.784 29.6743C189.796 29.6682 189.859 29.6231 189.973 29.5389C190.087 29.4547 190.174 29.4126 190.234 29.4124C190.246 29.4124 190.327 29.4513 190.477 29.529L190.702 29.6366L191.143 29.8608C191.143 29.8668 191.126 29.8848 191.09 29.9149C190.982 30.0171 190.892 30.0982 190.82 30.1584L190.703 30.2486L190.709 33.3986L191.15 33.6228C191.15 33.6288 191.132 33.6468 191.096 33.6769C190.917 33.8452 190.782 33.9594 190.692 34.0196L190.548 34.1279C190.44 34.2121 190.357 34.2542 190.297 34.2543ZM190.377 28.9892C190.047 28.9718 189.741 28.8703 189.458 28.6849L189.512 28.6398C189.542 28.6217 189.566 28.6037 189.584 28.5856L189.89 28.3601C189.908 28.348 189.977 28.2969 190.096 28.2067C190.222 28.1105 190.3 28.0623 190.33 28.0623L190.339 28.0622C190.621 28.2477 190.928 28.3492 191.258 28.3666C191.252 28.3726 191.24 28.3816 191.222 28.3936C191.204 28.4057 191.177 28.4297 191.141 28.4658L190.467 28.944C190.425 28.9741 190.395 28.9891 190.377 28.9892ZM193.541 35.7874C193.529 35.7874 193.52 35.7844 193.514 35.7784C193.268 35.5449 192.961 35.4284 192.595 35.4291C192.379 35.4295 192.167 35.4629 191.957 35.5293C191.945 35.5293 191.939 35.5263 191.939 35.5203C191.939 35.5203 191.939 35.5173 191.939 35.5113L191.939 35.5023C191.939 35.4963 191.942 35.4873 191.948 35.4753C191.96 35.4693 191.966 35.4633 191.966 35.4573L191.975 35.4572C192.028 35.3911 192.094 35.331 192.172 35.2769L192.271 35.2047C192.571 34.9401 192.945 34.8075 193.395 34.8066C193.563 34.8063 193.731 34.827 193.899 34.8687L193.897 33.7797L193.673 33.9601C193.631 33.9902 193.58 34.0263 193.52 34.0684C193.466 34.1105 193.415 34.1406 193.367 34.1587C193.325 34.1828 193.292 34.1948 193.268 34.1949L193.232 34.1859C192.692 33.8209 192.232 33.6388 191.854 33.6395C191.782 33.6396 191.707 33.6457 191.629 33.6579C191.611 33.6579 191.602 33.6549 191.602 33.6489C191.602 33.6369 191.608 33.6279 191.62 33.6219C191.626 33.6099 191.632 33.5979 191.638 33.5859C191.71 33.5017 191.794 33.4266 191.89 33.3604C191.986 33.2942 192.039 33.2551 192.051 33.2431L192.046 30.4081C192.046 30.3721 192.073 30.3361 192.127 30.3L192.154 30.2819C192.304 30.1496 192.445 30.0474 192.576 29.9751C192.75 29.8728 192.864 29.8096 192.918 29.7855C192.96 29.7554 193.002 29.7223 193.044 29.6863C193.092 29.6442 193.134 29.6081 193.17 29.578L193.278 29.4878C193.355 29.4277 193.46 29.3615 193.592 29.2893C193.622 29.2772 193.649 29.2712 193.673 29.2711L193.709 29.28C194.19 29.5972 194.718 29.7792 195.294 29.8261C195.312 29.8261 195.321 29.8291 195.321 29.8351C195.321 29.8471 195.306 29.8681 195.276 29.8982C195.222 29.9643 195.157 30.0214 195.079 30.0695L195.034 30.1056C194.95 30.1718 194.863 30.2319 194.773 30.2861L194.782 34.9031C194.782 34.9211 194.755 34.9571 194.701 35.0112C194.587 35.1254 194.407 35.2518 194.161 35.3902C194.119 35.4263 194.081 35.4534 194.045 35.4714C194.015 35.4955 193.994 35.5135 193.982 35.5256C193.97 35.5376 193.913 35.5767 193.811 35.6429C193.679 35.7391 193.589 35.7873 193.541 35.7874ZM193.897 33.4287L193.891 30.3597C193.549 30.2763 193.231 30.1449 192.936 29.9655L192.942 33.0345C193.278 33.1058 193.596 33.2373 193.897 33.4287ZM197.134 34.2867L197.107 34.2778C196.885 34.1102 196.651 33.9636 196.404 33.8381C196.164 33.7125 195.903 33.65 195.621 33.6505C195.603 33.6506 195.594 33.6476 195.594 33.6416C195.594 33.6356 195.597 33.6296 195.603 33.6236C195.603 33.6176 195.612 33.6025 195.63 33.5785C195.69 33.5124 195.759 33.4523 195.837 33.3981L195.971 33.2989L195.969 32.1019C195.969 32.0779 195.978 32.0569 195.996 32.0388C196.038 31.9968 196.062 31.9757 196.068 31.9757C196.206 31.8435 196.331 31.7472 196.445 31.687L196.58 31.6148C196.67 31.5366 196.763 31.4644 196.859 31.3982C196.871 31.3922 196.889 31.3772 196.913 31.3531C197.104 31.2148 197.233 31.1456 197.299 31.1454C197.317 31.1454 197.53 31.214 197.939 31.3513L197.937 30.6493C197.799 30.5775 197.61 30.4909 197.37 30.3893C197.022 30.2399 196.731 30.1655 196.497 30.1659C196.443 30.166 196.371 30.1691 196.281 30.1753C196.197 30.1815 196.116 30.1906 196.038 30.2028L195.912 30.221L197.008 29.391L197.287 29.4985C197.473 29.5701 197.705 29.6357 197.981 29.6952C198.227 29.7547 198.479 29.7843 198.737 29.7838L198.809 29.7837C198.821 29.7836 198.828 30.4106 198.83 31.6646L198.824 33.1136L199.356 33.4637L199.356 33.4727C199.356 33.4847 199.341 33.5057 199.311 33.5357L199.041 33.7702C198.927 33.8604 198.79 33.9477 198.628 34.032L198.583 34.0591C198.547 34.0771 198.517 34.0862 198.493 34.0862C198.487 34.0863 198.301 33.9666 197.934 33.7273L197.808 33.8445C197.635 33.9828 197.497 34.0851 197.395 34.1513C197.263 34.2415 197.176 34.2867 197.134 34.2867ZM197.402 33.2782L197.42 33.2602C197.48 33.1941 197.546 33.134 197.618 33.0799L197.663 33.0438L197.942 32.8543L197.94 32.2873L196.851 31.9023L196.853 33.0633C197.045 33.1109 197.228 33.1826 197.402 33.2782ZM204.579 35.596L204.57 35.5961C204.312 35.4105 204.032 35.273 203.732 35.1836L203.723 35.1836L203.723 35.1746C203.471 35.1031 203.216 35.0675 202.958 35.068L202.895 35.0681C202.907 35.0681 202.937 35.0441 202.985 34.996L203.641 34.5358C203.641 34.5298 203.647 34.5238 203.659 34.5177C203.677 34.5117 203.698 34.4967 203.722 34.4726L203.71 28.1096C203.71 28.0916 203.716 28.0766 203.728 28.0646L202.98 27.634L203.718 27.1916C203.754 27.1735 203.786 27.1645 203.816 27.1644C203.852 27.1644 203.886 27.1733 203.916 27.1912L204.474 27.5412C204.51 27.5232 204.552 27.4961 204.6 27.46C204.648 27.4239 204.678 27.4028 204.69 27.3968C204.702 27.3908 204.72 27.3788 204.744 27.3607C204.786 27.3246 204.837 27.2856 204.897 27.2434C205.034 27.1412 205.115 27.09 205.139 27.09C205.482 27.3774 205.812 27.6078 206.131 27.7812C206.359 27.9067 206.605 27.9693 206.869 27.9688L207.004 27.9596C206.992 27.9596 206.974 27.9716 206.95 27.9957C206.932 28.0137 206.803 28.1099 206.564 28.2844L206.249 28.501L206.195 28.5461C206.153 28.5761 206.081 28.5913 205.979 28.5914C205.739 28.5919 205.505 28.5353 205.277 28.4217C205.049 28.3022 204.82 28.1526 204.592 27.973L204.597 30.502L206.253 30.4989L206.181 30.6071C206.073 30.7633 206.001 30.8624 205.965 30.9045C205.935 30.9465 205.909 30.9886 205.885 31.0306C205.813 31.1388 205.765 31.1928 205.741 31.1929L204.598 31.195L204.604 34.561C204.73 34.5968 204.853 34.6445 204.973 34.7043C205.045 34.7282 205.123 34.74 205.207 34.7399C205.297 34.7397 205.381 34.7366 205.459 34.7304C205.543 34.7243 205.612 34.7151 205.666 34.703L205.747 34.6939C205.262 35.0908 205.016 35.2922 205.01 35.2982C205.004 35.3043 204.942 35.3524 204.822 35.4426C204.678 35.5449 204.597 35.596 204.579 35.596ZM203.532 34.068L203.307 33.6904L203.297 28.5784L203.521 28.182L203.532 34.068ZM208.094 34.2216C208.082 34.2216 208.001 34.1827 207.851 34.105L207.626 33.9884L207.185 33.7732C207.185 33.7672 207.202 33.7462 207.238 33.7101C207.274 33.6741 207.316 33.635 207.364 33.5929C207.418 33.5448 207.466 33.5027 207.508 33.4666C207.556 33.4306 207.583 33.4095 207.589 33.4035C207.601 33.3975 207.613 33.3915 207.625 33.3854L207.619 30.2264L207.178 30.0112C207.178 30.0052 207.196 29.9842 207.231 29.9481C207.309 29.87 207.402 29.7888 207.51 29.7046C207.552 29.6686 207.576 29.6475 207.582 29.6415C207.594 29.6355 207.657 29.5904 207.771 29.5062C207.885 29.4219 207.971 29.3798 208.031 29.3797C208.043 29.3797 208.125 29.4185 208.275 29.4962L208.5 29.6038L208.941 29.828C208.941 29.834 208.923 29.852 208.887 29.8821C208.78 29.9843 208.69 30.0655 208.618 30.1256L208.501 30.2158L208.507 33.3658L208.948 33.59C208.948 33.596 208.93 33.614 208.894 33.6441C208.715 33.8124 208.58 33.9267 208.49 33.9868L208.346 34.0951C208.238 34.1793 208.154 34.2215 208.094 34.2216ZM208.175 28.9564C207.845 28.939 207.538 28.8376 207.256 28.6521L207.31 28.607C207.34 28.5889 207.364 28.5709 207.382 28.5529L207.688 28.3273C207.705 28.3153 207.774 28.2641 207.894 28.1739C208.02 28.0777 208.098 28.0295 208.128 28.0295L208.137 28.0295C208.419 28.215 208.725 28.3164 209.056 28.3338C209.05 28.3398 209.038 28.3488 209.02 28.3609C209.002 28.3729 208.975 28.3969 208.939 28.433L208.265 28.9112C208.223 28.9413 208.193 28.9564 208.175 28.9564ZM210.688 34.3068C210.508 34.1871 210.319 34.0855 210.121 34.0018C209.929 33.9182 209.76 33.8525 209.616 33.8048L209.4 33.7332L209.895 33.4082L209.886 28.6473C209.886 28.6233 209.895 28.6022 209.913 28.5842C209.955 28.5421 209.979 28.5211 209.985 28.5211C210.08 28.4309 210.182 28.3497 210.29 28.2775L210.38 28.2233C210.62 28.0909 210.749 28.0247 210.767 28.0246L210.777 33.4336L210.795 33.4336C210.939 33.4873 211.083 33.5141 211.227 33.5138C211.365 33.5135 211.482 33.5013 211.578 33.4772L211.722 33.4499L210.688 34.3068ZM216.612 34.2959C216.432 34.1762 216.243 34.0746 216.044 33.9909C215.846 33.9073 215.678 33.8416 215.54 33.7939L215.324 33.7223L215.836 33.3793L215.831 30.4003C215.603 30.3227 215.386 30.2151 215.182 30.0775L215.137 30.1136L215.142 32.6156C215.142 32.6576 215.112 32.6936 215.052 32.7238C214.92 32.856 214.732 32.9883 214.486 33.1208C214.348 33.199 214.27 33.2382 214.252 33.2382L214.247 30.3312C214.025 30.2536 213.823 30.14 213.643 29.9903L213.382 30.2068L213.388 33.3568L213.83 33.581C213.83 33.587 213.812 33.605 213.776 33.6351C213.596 33.8034 213.461 33.9177 213.371 33.9778L213.228 34.0861C213.12 34.1703 213.036 34.2125 212.976 34.2126C212.964 34.2126 212.883 34.1737 212.733 34.096L212.507 33.9794L212.066 33.7643C212.066 33.7583 212.084 33.7372 212.12 33.7012C212.156 33.6651 212.198 33.626 212.246 33.5839C212.3 33.5358 212.347 33.4937 212.389 33.4577C212.437 33.4216 212.464 33.4005 212.47 33.3945C212.482 33.3885 212.494 33.3825 212.506 33.3764L212.5 30.2174L212.059 30.0023C212.059 29.9963 212.077 29.9752 212.113 29.9392C212.191 29.861 212.284 29.7798 212.391 29.6956C212.433 29.6596 212.457 29.6385 212.463 29.6325C212.475 29.6265 212.538 29.5814 212.652 29.4972C212.766 29.413 212.853 29.3708 212.913 29.3707C212.925 29.3707 213.006 29.4095 213.156 29.4872L213.381 29.5948L213.616 29.7114C213.675 29.6633 213.732 29.6182 213.786 29.5761C213.846 29.534 213.879 29.5099 213.885 29.5039C213.897 29.4919 213.966 29.4437 214.092 29.3595C214.218 29.2753 214.302 29.2331 214.344 29.2331C214.356 29.233 214.365 29.236 214.371 29.242C214.569 29.4276 214.791 29.5712 215.037 29.6728C215.145 29.5766 215.229 29.5134 215.289 29.4833C215.307 29.4653 215.367 29.4202 215.469 29.348C215.601 29.2577 215.688 29.2126 215.73 29.2125C215.748 29.2125 215.76 29.2154 215.766 29.2214C216.036 29.4669 216.342 29.6494 216.685 29.7687L216.721 29.7597L216.721 29.7777C216.859 29.8254 217.003 29.8582 217.153 29.8759C217.165 29.8759 217.171 29.8788 217.171 29.8848C217.171 29.9028 217.165 29.9179 217.153 29.9299C217.141 29.9359 217.135 29.9419 217.135 29.9479C217.063 30.032 216.925 30.1403 216.722 30.2727L216.727 33.4317C216.871 33.4794 217.013 33.5031 217.151 33.5029C217.289 33.5026 217.405 33.4904 217.501 33.4662L217.645 33.439L216.612 34.2959ZM222.844 35.5624L222.835 35.5624C222.354 35.2093 221.817 35.0333 221.223 35.0344L221.16 35.0345C221.172 35.0345 221.201 35.0104 221.249 34.9623L221.285 34.9353C221.615 34.7007 221.825 34.5563 221.915 34.5021C221.915 34.4961 221.918 34.4901 221.924 34.4841C221.93 34.4841 221.939 34.4781 221.95 34.4661C221.962 34.46 221.974 34.451 221.986 34.439L221.975 28.085L221.155 27.6185L221.901 27.1581C221.937 27.1341 221.973 27.122 222.009 27.1219C222.045 27.1219 222.078 27.1338 222.108 27.1578L222.676 27.5077L222.685 27.5077C222.715 27.4836 222.742 27.4626 222.766 27.4445C222.79 27.4205 222.858 27.3664 222.972 27.2822C223.092 27.1919 223.182 27.1468 223.242 27.1467C223.26 27.1466 223.638 27.3199 224.377 27.6666C224.413 27.6305 224.452 27.5944 224.494 27.5584C224.542 27.5223 224.581 27.4892 224.611 27.4591C224.682 27.399 224.772 27.3328 224.88 27.2606C224.988 27.1824 225.066 27.1433 225.114 27.1432C225.126 27.1432 225.363 27.2538 225.826 27.4749L226.519 27.8066L226.53 33.5576L226.962 33.7818C226.962 33.7998 226.902 33.8569 226.783 33.9532L226.639 34.0794C226.537 34.1696 226.393 34.2719 226.207 34.3862C226.171 34.4043 226.141 34.4133 226.117 34.4134C226.105 34.4134 226.024 34.3746 225.874 34.2968L225.649 34.1802L225.208 33.9561L225.261 33.902C225.297 33.8659 225.339 33.8268 225.387 33.7847C225.441 33.7366 225.489 33.6945 225.531 33.6585C225.579 33.6224 225.606 33.6013 225.612 33.5953C225.624 33.5893 225.636 33.5833 225.648 33.5772L225.638 28.4293L224.702 27.981L224.709 32.121C224.709 32.145 224.7 32.166 224.682 32.184C224.664 32.2021 224.646 32.2201 224.628 32.2381C224.557 32.3103 224.449 32.3945 224.305 32.4907L224.053 32.6352C223.993 32.6713 223.942 32.6984 223.9 32.7165C223.858 32.7345 223.834 32.7436 223.828 32.7436L223.82 28.4326L222.866 27.9934L222.878 34.5273C223.004 34.5631 223.124 34.6109 223.238 34.6707C223.31 34.6946 223.391 34.7064 223.481 34.7062C223.565 34.7061 223.649 34.7029 223.733 34.6968C223.817 34.6906 223.886 34.6815 223.94 34.6694L224.021 34.6602L223.23 35.3007L222.924 35.5263C222.882 35.5503 222.856 35.5624 222.844 35.5624ZM221.806 34.0343L221.571 33.6568L221.562 28.5448L221.795 28.1483L221.806 34.0343ZM228.956 34.2282L228.929 34.2192C228.706 34.0516 228.472 33.905 228.226 33.7795C227.986 33.6539 227.725 33.5914 227.443 33.5919C227.425 33.592 227.416 33.589 227.416 33.583C227.416 33.577 227.419 33.571 227.425 33.565C227.425 33.559 227.434 33.544 227.451 33.5199C227.511 33.4538 227.58 33.3937 227.658 33.3395L227.793 33.2403L227.791 32.0433C227.791 32.0193 227.8 31.9983 227.818 31.9802C227.86 31.9382 227.884 31.9171 227.89 31.9171C228.027 31.7849 228.153 31.6886 228.267 31.6284L228.402 31.5562C228.492 31.478 228.585 31.4058 228.68 31.3397C228.692 31.3336 228.71 31.3186 228.734 31.2946C228.926 31.1562 229.055 31.087 229.121 31.0868C229.139 31.0868 229.352 31.1554 229.76 31.2927L229.759 30.5907C229.621 30.5189 229.432 30.4323 229.192 30.3307C228.843 30.1814 228.552 30.1069 228.318 30.1073C228.264 30.1074 228.192 30.1106 228.102 30.1167C228.018 30.1229 227.937 30.132 227.859 30.1442L227.733 30.1624L228.83 29.3324L229.109 29.4399C229.295 29.5115 229.526 29.5771 229.802 29.6366C230.048 29.6961 230.3 29.7257 230.558 29.7252L230.63 29.7251C230.642 29.725 230.65 30.352 230.652 31.606L230.646 33.055L231.177 33.4051L231.177 33.4141C231.177 33.4261 231.162 33.4471 231.132 33.4771L230.863 33.7116C230.749 33.8019 230.611 33.8891 230.449 33.9734L230.404 34.0005C230.368 34.0186 230.338 34.0276 230.314 34.0277C230.308 34.0277 230.122 33.908 229.756 33.6687L229.63 33.7859C229.456 33.9242 229.318 34.0265 229.217 34.0927C229.085 34.1829 228.998 34.2281 228.956 34.2282ZM229.224 33.2197L229.242 33.2016C229.302 33.1355 229.368 33.0754 229.44 33.0213L229.484 32.9852L229.763 32.7957L229.762 32.2287L228.672 31.8437L228.675 33.0047C228.867 33.0523 229.05 33.124 229.224 33.2197ZM234.844 35.1443C234.658 35.1207 234.463 35.037 234.259 34.8934C234.055 34.7558 233.952 34.621 233.952 34.489L233.945 30.286C233.698 30.2144 233.464 30.1128 233.242 29.9813L232.909 30.2159L232.915 33.3209L233.348 33.5451C233.348 33.5631 233.288 33.6202 233.168 33.7164C233.114 33.7645 233.063 33.8096 233.015 33.8517C232.967 33.8878 232.925 33.9208 232.889 33.9509C232.853 33.975 232.808 34.0081 232.754 34.0502C232.641 34.1344 232.557 34.1765 232.503 34.1766C232.491 34.1766 232.407 34.1378 232.25 34.0601C232.1 33.9824 231.953 33.9076 231.809 33.8359L231.593 33.7283C231.593 33.7043 231.653 33.6412 231.773 33.539C231.826 33.4969 231.874 33.4578 231.916 33.4217C231.964 33.3796 232 33.3525 232.024 33.3405L232.015 28.6065C232.015 28.5825 232.024 28.5615 232.042 28.5435C232.084 28.5014 232.111 28.4803 232.123 28.4803C232.219 28.3901 232.318 28.309 232.42 28.2368C232.432 28.2307 232.462 28.2157 232.51 28.1916C232.558 28.1615 232.612 28.1314 232.671 28.1013C232.737 28.0652 232.788 28.0381 232.824 28.02C232.866 27.9959 232.893 27.9839 232.905 27.9839L232.909 29.8829L233.008 29.8017L233.026 29.8017C233.044 29.7716 233.082 29.7296 233.142 29.6754C233.298 29.5492 233.391 29.477 233.421 29.4589C233.427 29.4529 233.49 29.4078 233.61 29.3236C233.736 29.2333 233.822 29.1882 233.87 29.1881L233.898 29.197C234.306 29.5143 234.768 29.6994 235.285 29.7525C235.297 29.7525 235.306 29.7555 235.312 29.7614C235.312 29.7674 235.309 29.7765 235.303 29.7885C235.297 29.7945 235.291 29.8005 235.285 29.8065C235.279 29.8125 235.273 29.8185 235.267 29.8245C235.207 29.8906 235.141 29.9478 235.069 29.9959L234.835 30.1673L234.842 34.0103C234.843 34.3403 234.987 34.5111 235.275 34.5225L235.392 34.5223L235.626 34.5129L234.844 35.1443ZM237.142 34.2131L237.115 34.2041C236.893 34.0365 236.658 33.89 236.412 33.7644C236.172 33.6389 235.911 33.5764 235.629 33.5769C235.611 33.5769 235.602 33.5739 235.602 33.5679C235.602 33.5619 235.605 33.5559 235.611 33.5499C235.611 33.5439 235.62 33.5289 235.638 33.5049C235.697 33.4387 235.766 33.3786 235.844 33.3245L235.979 33.2252L235.977 32.0282C235.977 32.0042 235.986 31.9832 236.004 31.9652C236.046 31.9231 236.07 31.9021 236.076 31.902C236.213 31.7698 236.339 31.6736 236.453 31.6133L236.588 31.5411C236.678 31.4629 236.771 31.3908 236.867 31.3246C236.879 31.3186 236.897 31.3035 236.92 31.2795C237.112 31.1411 237.241 31.0719 237.307 31.0718C237.325 31.0717 237.538 31.1403 237.946 31.2776L237.945 30.5756C237.807 30.5039 237.618 30.4172 237.378 30.3156C237.029 30.1663 236.738 30.0918 236.504 30.0923C236.45 30.0924 236.378 30.0955 236.288 30.1016C236.204 30.1078 236.123 30.117 236.045 30.1291L235.919 30.1473L237.016 29.3173L237.295 29.4248C237.481 29.4965 237.712 29.562 237.988 29.6215C238.235 29.6811 238.487 29.7106 238.745 29.7101L238.817 29.71C238.829 29.71 238.836 30.337 238.838 31.591L238.832 33.04L239.363 33.39L239.363 33.399C239.363 33.411 239.348 33.432 239.319 33.4621L239.049 33.6966C238.935 33.7868 238.797 33.874 238.635 33.9583L238.59 33.9854C238.555 34.0035 238.525 34.0125 238.501 34.0126C238.495 34.0126 238.308 33.8929 237.942 33.6536L237.816 33.7708C237.642 33.9092 237.505 34.0114 237.403 34.0776C237.271 34.1678 237.184 34.213 237.142 34.2131ZM237.41 33.2046L237.428 33.1866C237.488 33.1204 237.554 33.0603 237.626 33.0062L237.671 32.9701L237.949 32.7806L237.948 32.2136L236.859 31.8286L236.861 32.9896C237.053 33.0372 237.236 33.1089 237.41 33.2046ZM241.364 34.3583C241.118 34.1968 240.86 34.0562 240.589 33.9367C240.385 33.8471 240.175 33.8025 239.959 33.8029C239.881 33.803 239.803 33.8092 239.725 33.8213C239.761 33.8033 239.788 33.7852 239.806 33.7672C239.83 33.7431 239.95 33.6529 240.166 33.4965L240.48 33.2799C240.486 33.2799 240.51 33.2649 240.552 33.2348C240.6 33.1987 240.696 33.1805 240.84 33.1803C241.194 33.1796 241.59 33.3199 242.029 33.6011L242.026 32.0531C241.93 31.9333 241.804 31.8705 241.648 31.8648L241.549 31.865C241.429 31.8652 241.315 31.8804 241.207 31.9106C240.961 31.983 240.724 32.0825 240.496 32.2089L240.334 32.2992C240.328 32.3052 240.316 32.3142 240.298 32.3263C240.28 32.3323 240.262 32.3383 240.244 32.3444C240.226 32.3504 240.211 32.3534 240.199 32.3535L240.181 32.3535L240.178 30.3195C240.178 30.2835 240.205 30.2474 240.259 30.2113C240.33 30.1392 240.438 30.055 240.582 29.9587L240.825 29.8053C240.963 29.733 241.041 29.6969 241.059 29.6969L241.535 29.336C241.661 29.2398 241.739 29.1916 241.769 29.1916L241.778 29.1915C242.216 29.5087 242.706 29.6908 243.246 29.7378C243.228 29.7379 243.186 29.7709 243.12 29.8371L242.455 30.3063C242.401 30.3424 242.368 30.3605 242.356 30.3605C241.888 30.3193 241.455 30.1731 241.059 29.9219L241.062 31.7039L241.098 31.6858C241.38 31.5233 241.674 31.3937 241.98 31.2972C242.111 31.2549 242.255 31.2337 242.411 31.2334L242.591 31.233C242.693 31.2329 242.799 31.2987 242.907 31.4305L242.91 33.0865L243.144 33.032C243.162 33.032 243.171 33.035 243.171 33.041C243.171 33.053 243.165 33.065 243.153 33.077C243.141 33.089 243.129 33.1011 243.117 33.1131C243.111 33.1251 243.105 33.1341 243.099 33.1401C242.973 33.2603 242.775 33.4137 242.506 33.6002C242.5 33.6002 242.482 33.6093 242.452 33.6273C242.428 33.6454 242.395 33.6664 242.353 33.6905C242.317 33.7086 242.266 33.7416 242.2 33.7898C242.134 33.8319 242.074 33.871 242.02 33.9071C241.966 33.9372 241.921 33.9673 241.885 33.9974C241.85 34.0274 241.826 34.0455 241.814 34.0515C241.802 34.0575 241.778 34.0725 241.742 34.0966C241.712 34.1267 241.67 34.1627 241.616 34.2048C241.472 34.3071 241.388 34.3583 241.364 34.3583ZM244.637 34.1543C244.625 34.1543 244.544 34.1155 244.394 34.0377L244.169 33.9211L243.728 33.706C243.728 33.7 243.746 33.6789 243.782 33.6429C243.817 33.6068 243.859 33.5677 243.907 33.5256C243.961 33.4775 244.009 33.4354 244.051 33.3994C244.099 33.3633 244.126 33.3422 244.132 33.3362C244.144 33.3302 244.156 33.3242 244.168 33.3181L244.162 30.1592L243.721 29.944C243.721 29.938 243.739 29.9169 243.775 29.8809C243.852 29.8027 243.945 29.7216 244.053 29.6374C244.095 29.6013 244.119 29.5802 244.125 29.5742C244.137 29.5682 244.2 29.5231 244.314 29.4389C244.428 29.3547 244.515 29.3125 244.575 29.3124C244.587 29.3124 244.668 29.3512 244.818 29.4289L245.043 29.5365L245.484 29.7607C245.484 29.7667 245.466 29.7848 245.43 29.8148C245.323 29.917 245.233 29.9982 245.161 30.0583L245.044 30.1485L245.05 33.2985L245.491 33.5227C245.491 33.5287 245.473 33.5467 245.437 33.5768C245.258 33.7451 245.123 33.8594 245.033 33.9196L244.889 34.0278C244.781 34.112 244.697 34.1542 244.637 34.1543ZM244.718 28.8891C244.388 28.8717 244.082 28.7703 243.799 28.5848L243.853 28.5397C243.883 28.5217 243.907 28.5036 243.925 28.4856L244.231 28.26C244.249 28.248 244.318 28.1969 244.437 28.1066C244.563 28.0104 244.641 27.9623 244.671 27.9622L244.68 27.9622C244.962 28.1477 245.269 28.2491 245.599 28.2665C245.593 28.2725 245.581 28.2815 245.563 28.2936C245.545 28.3056 245.518 28.3297 245.482 28.3657L244.808 28.844C244.766 28.874 244.736 28.8891 244.718 28.8891ZM247.538 34.3469C247.291 34.1854 247.033 34.0449 246.763 33.9254C246.559 33.8357 246.349 33.7911 246.133 33.7915C246.055 33.7917 245.977 33.7978 245.899 33.81C245.935 33.7919 245.962 33.7738 245.979 33.7558C246.003 33.7318 246.123 33.6415 246.339 33.4852L246.654 33.2686C246.66 33.2686 246.684 33.2535 246.726 33.2234C246.773 33.1873 246.869 33.1692 247.013 33.1689C247.367 33.1683 247.764 33.3085 248.202 33.5897L248.199 32.0417C248.103 31.9219 247.977 31.8591 247.821 31.8534L247.722 31.8536C247.602 31.8538 247.488 31.869 247.38 31.8992C247.134 31.9717 246.897 32.0711 246.67 32.1975L246.508 32.2878C246.502 32.2938 246.49 32.3029 246.472 32.3149C246.454 32.3209 246.436 32.327 246.418 32.333C246.4 32.339 246.385 32.3421 246.373 32.3421L246.355 32.3421L246.351 30.3081C246.351 30.2721 246.378 30.2361 246.432 30.2C246.504 30.1278 246.612 30.0436 246.755 29.9474L246.998 29.7939C247.136 29.7217 247.214 29.6855 247.232 29.6855L247.708 29.3246C247.834 29.2284 247.912 29.1802 247.942 29.1802L247.951 29.1802C248.39 29.4974 248.879 29.6795 249.419 29.7265C249.401 29.7265 249.359 29.7596 249.293 29.8257L248.628 30.2949C248.574 30.331 248.541 30.3491 248.529 30.3491C248.061 30.308 247.629 30.1618 247.232 29.9105L247.236 31.6925L247.272 31.6744C247.553 31.5119 247.847 31.3824 248.153 31.2858C248.285 31.2436 248.429 31.2223 248.585 31.222L248.765 31.2217C248.867 31.2215 248.972 31.2873 249.08 31.4191L249.083 33.0751L249.317 33.0207C249.335 33.0206 249.344 33.0236 249.344 33.0296C249.344 33.0416 249.338 33.0536 249.326 33.0656C249.314 33.0777 249.302 33.0897 249.29 33.1017C249.284 33.1137 249.278 33.1227 249.272 33.1287C249.147 33.249 248.949 33.4023 248.679 33.5888C248.673 33.5889 248.655 33.5979 248.625 33.6159C248.601 33.634 248.568 33.655 248.526 33.6791C248.49 33.6972 248.439 33.7303 248.374 33.7784C248.308 33.8205 248.248 33.8596 248.194 33.8957C248.14 33.9258 248.095 33.9559 248.059 33.986C248.023 34.0161 247.999 34.0341 247.987 34.0401C247.975 34.0461 247.951 34.0612 247.915 34.0852C247.885 34.1153 247.843 34.1514 247.789 34.1935C247.645 34.2957 247.562 34.3469 247.538 34.3469ZM253.241 34.3454L253.214 34.3365C252.884 34.0971 252.551 33.9267 252.214 33.8253L251.864 34.114L251.72 34.2132C251.594 34.3035 251.507 34.3486 251.459 34.3487L251.423 34.3398L251.297 34.259C250.853 33.9418 250.462 33.7836 250.126 33.7842C250.06 33.7843 249.994 33.7904 249.928 33.8025L249.91 33.8026C249.904 33.8026 249.901 33.7996 249.901 33.7936C249.901 33.7876 249.904 33.7786 249.91 33.7666C249.922 33.7546 249.931 33.7485 249.937 33.7485C249.943 33.7425 249.946 33.7365 249.946 33.7305C250.006 33.6644 250.072 33.6073 250.144 33.5591C250.162 33.5471 250.18 33.5351 250.198 33.523C250.222 33.505 250.246 33.484 250.27 33.4599C250.3 33.4359 250.33 33.4148 250.36 33.3967L250.354 30.1478L249.912 29.9326C249.912 29.9266 249.93 29.9055 249.966 29.8695C250.068 29.7673 250.203 29.653 250.37 29.5267L250.514 29.4185C250.628 29.3402 250.712 29.3011 250.766 29.301C250.778 29.301 250.859 29.3398 251.009 29.4175C251.159 29.4893 251.306 29.564 251.451 29.6417L251.667 29.7493C251.667 29.7673 251.607 29.8244 251.487 29.9207L251.236 30.1371L251.241 33.1881C251.499 33.2536 251.748 33.3612 251.989 33.5107C252.013 33.4927 252.037 33.4747 252.061 33.4566C252.085 33.4326 252.112 33.4115 252.142 33.3935L252.136 30.1445C252.135 30.1085 252.162 30.0724 252.216 30.0363C252.288 29.9642 252.396 29.88 252.54 29.7837L252.792 29.6303C252.929 29.558 253.004 29.5219 253.016 29.5218L253.023 33.1848C253.323 33.2623 253.606 33.3908 253.87 33.5703L253.864 30.1413L253.431 29.9261C253.431 29.9141 253.446 29.8931 253.476 29.863C253.512 29.8269 253.557 29.7879 253.611 29.7458C253.665 29.6977 253.713 29.6556 253.755 29.6195C253.797 29.5834 253.823 29.5624 253.835 29.5563C253.847 29.5503 253.862 29.5383 253.88 29.5203C253.922 29.4902 253.97 29.4571 254.024 29.421C254.084 29.3789 254.135 29.3488 254.177 29.3307C254.219 29.3066 254.252 29.2946 254.276 29.2945C254.288 29.2945 254.369 29.3334 254.519 29.4111C254.669 29.4828 254.744 29.5187 254.744 29.5187C254.75 29.5187 254.825 29.5575 254.97 29.6353L255.186 29.7429C255.186 29.7549 255.168 29.7759 255.132 29.806C255.096 29.836 255.054 29.8721 255.006 29.9142L254.755 30.1306C254.758 32.1946 254.757 33.2297 254.751 33.2357L255.382 33.7115L255.382 33.7205C255.382 33.7325 255.367 33.7535 255.337 33.7836C255.217 33.8918 255.131 33.967 255.077 34.0091C255.023 34.0452 254.99 34.0692 254.978 34.0812C254.876 34.1534 254.768 34.2196 254.654 34.2798L254.609 34.3069C254.567 34.325 254.537 34.3341 254.519 34.3341C254.513 34.3341 254.312 34.1875 253.915 33.8942L253.646 34.1107C253.604 34.1408 253.553 34.1739 253.493 34.21C253.439 34.2521 253.388 34.2852 253.34 34.3093C253.298 34.3333 253.265 34.3454 253.241 34.3454ZM257.322 34.1759L257.295 34.167C257.072 33.9994 256.838 33.8528 256.592 33.7273C256.351 33.6017 256.09 33.5392 255.808 33.5397C255.79 33.5397 255.781 33.5368 255.781 33.5308C255.781 33.5248 255.784 33.5188 255.79 33.5127C255.79 33.5067 255.799 33.4917 255.817 33.4677C255.877 33.4016 255.946 33.3415 256.024 33.2873L256.159 33.1881L256.157 31.9911C256.156 31.9671 256.165 31.9461 256.183 31.928C256.225 31.8859 256.249 31.8649 256.255 31.8649C256.393 31.7326 256.519 31.6364 256.633 31.5762L256.768 31.5039C256.857 31.4258 256.95 31.3536 257.046 31.2874C257.058 31.2814 257.076 31.2664 257.1 31.2423C257.292 31.104 257.421 31.0347 257.487 31.0346C257.505 31.0346 257.718 31.1032 258.126 31.2404L258.125 30.5384C257.987 30.4667 257.798 30.38 257.557 30.2785C257.209 30.1291 256.918 30.0547 256.684 30.0551C256.63 30.0552 256.558 30.0583 256.468 30.0645C256.384 30.0706 256.303 30.0798 256.225 30.0919L256.099 30.1102L257.196 29.2802L257.475 29.3876C257.661 29.4593 257.892 29.5249 258.168 29.5844C258.414 29.6439 258.666 29.6734 258.924 29.673L258.996 29.6728C259.008 29.6728 259.015 30.2998 259.018 31.5538L259.011 33.0028L259.543 33.3528L259.543 33.3618C259.543 33.3738 259.528 33.3949 259.498 33.4249L259.229 33.6594C259.115 33.7496 258.977 33.8369 258.815 33.9212L258.77 33.9483C258.734 33.9663 258.704 33.9754 258.68 33.9754C258.674 33.9754 258.488 33.8558 258.122 33.6165L257.996 33.7337C257.822 33.872 257.684 33.9743 257.582 34.0405C257.45 34.1307 257.364 34.1759 257.322 34.1759ZM257.59 33.1674L257.608 33.1494C257.668 33.0833 257.733 33.0232 257.805 32.969L257.85 32.933L258.129 32.7434L258.128 32.1764L257.038 31.7914L257.04 32.9524C257.232 33.0001 257.416 33.0718 257.59 33.1674Z" fill="black"/>
<path d="M173.908 20.88L173.408 20.06V10.06L173.908 9.2V20.88ZM176.588 25.76L176.548 25.74C175.068 22.6867 174.328 21.1467 174.328 21.12V8.92L173.768 8.66C173.541 8.59333 173.301 8.56 173.048 8.56C172.741 8.56 172.441 8.58667 172.148 8.64C173.148 7.77333 173.654 7.33333 173.668 7.32C173.694 7.29333 173.741 7.26 173.808 7.22C174.301 6.82 174.594 6.6 174.688 6.56C175.821 7.44 177.081 7.89333 178.468 7.92C178.454 7.92 178.421 7.94667 178.368 8L176.868 9.12C176.761 9.2 176.694 9.24667 176.668 9.26C176.654 9.27333 176.634 9.28667 176.608 9.3C176.594 9.31333 176.488 9.32 176.288 9.32V19.78L178.108 23.54L179.508 21.58V8.92L178.548 8.42C178.548 8.39333 178.581 8.34667 178.648 8.28C179.034 7.92 179.334 7.67333 179.548 7.54L179.868 7.3C180.134 7.11333 180.321 7.02 180.428 7.02C180.454 7.02 180.634 7.10667 180.968 7.28L181.468 7.54L182.448 8.04L182.328 8.16C182.248 8.24 182.148 8.33333 182.028 8.44C181.921 8.53333 181.814 8.62 181.708 8.7C181.614 8.78 181.554 8.82667 181.528 8.84C181.514 8.85333 181.494 8.86667 181.468 8.88V20.24V20.3L178.508 24.42C178.428 24.5267 178.094 24.7933 177.508 25.22C177.014 25.58 176.708 25.76 176.588 25.76ZM185.063 22.56L184.563 21.72V10.28L185.063 9.4V22.56ZM187.483 25.32H187.463C186.396 24.5333 185.203 24.14 183.883 24.14H183.743C183.756 24.14 183.783 24.12 183.823 24.08L184.023 23.92L184.703 23.44C185.17 23.1067 185.416 22.94 185.443 22.94C185.456 22.9133 185.483 22.8867 185.523 22.86C185.523 13.54 185.53 8.86667 185.543 8.84L185.143 8.66C184.89 8.59333 184.63 8.56 184.363 8.56C184.043 8.56 183.73 8.58667 183.423 8.64C184.49 7.77333 185.03 7.33333 185.043 7.32C185.056 7.29333 185.103 7.26 185.183 7.22C185.703 6.82 186.01 6.6 186.103 6.56C187.303 7.44 188.643 7.89333 190.123 7.92C190.11 7.92 190.09 7.93333 190.063 7.96C190.05 7.97333 190.03 7.98667 190.003 8C189.47 8.4 188.943 8.77333 188.423 9.12L188.403 9.14C188.336 9.19333 188.283 9.23333 188.243 9.26C188.203 9.27333 188.176 9.28667 188.163 9.3C188.15 9.31333 188.136 9.32 188.123 9.32L187.483 9.3V23C187.79 23.0933 188.083 23.2067 188.363 23.34C188.523 23.3933 188.703 23.42 188.903 23.42C189.09 23.42 189.276 23.4133 189.463 23.4C189.65 23.3867 189.803 23.3667 189.923 23.34L190.103 23.32C189.01 24.2 188.45 24.6467 188.423 24.66C188.396 24.6867 188.143 24.88 187.663 25.24C187.57 25.2933 187.51 25.32 187.483 25.32ZM192.234 22.98L191.734 22.14V10.18L192.234 9.28V22.98ZM192.654 25.62H192.614C192.507 25.62 192.34 25.5333 192.114 25.36L191.794 25.1L191.134 24.54C191.054 24.46 190.954 24.38 190.834 24.3C190.66 24.1933 190.534 24.0867 190.454 23.98H190.434L190.374 23.88C190.374 23.8667 190.387 23.86 190.414 23.86C190.6 23.8867 190.78 23.9 190.954 23.9C191.567 23.9 192.14 23.7067 192.674 23.32V8.58C191.327 8.23333 190.654 8.05333 190.654 8.04C190.654 8.02667 190.674 7.99333 190.714 7.94C190.767 7.88667 190.807 7.84667 190.834 7.82C190.86 7.78 190.88 7.76 190.894 7.76C191.107 7.57333 191.327 7.4 191.554 7.24L191.694 7.12C192.12 6.81333 192.42 6.66 192.594 6.66C192.62 6.66 193.754 6.96667 195.994 7.58L199.354 8.48V21.08C199.354 21.12 199.334 21.16 199.294 21.2C199 21.4933 198.674 21.7533 198.314 21.98C198.167 22.0733 197.954 22.1867 197.674 22.32C196.82 22.8667 195.987 23.4133 195.174 23.96C194.36 24.5067 193.52 25.06 192.654 25.62ZM194.654 22.14L197.394 20.4V9.86C196.474 9.62 195.56 9.37333 194.654 9.12V22.14ZM206.436 25.26C206.396 25.26 206.136 25.0933 205.656 24.76C205.176 24.4267 204.689 24.12 204.196 23.84C203.703 23.56 203.189 23.36 202.656 23.24L202.596 23.26V23.24C202.383 23.2 202.169 23.18 201.956 23.18C201.783 23.18 201.603 23.1933 201.416 23.22C201.376 23.22 201.356 23.2133 201.356 23.2C201.356 23.1867 201.376 23.16 201.416 23.12L201.456 23.06C201.629 22.8467 201.809 22.6933 201.996 22.6L202.176 22.44C202.309 22.3333 202.449 22.2333 202.596 22.14V8.7L202.616 8.64L200.836 7.62L202.476 6.64C202.556 6.6 202.629 6.58 202.696 6.58C202.776 6.58 202.849 6.6 202.916 6.64L204.236 7.46C204.423 7.38 204.569 7.28667 204.676 7.18L205.116 6.84C205.409 6.62667 205.589 6.52 205.656 6.52C205.669 6.52 205.843 6.64667 206.176 6.9C206.723 7.32667 207.296 7.70667 207.896 8.04C208.429 8.33333 208.996 8.48 209.596 8.48L209.896 8.46C209.829 8.46 209.763 8.50667 209.696 8.6L209.616 8.66L208.056 9.76C208.003 9.8 207.956 9.82667 207.916 9.84L207.596 9.86C206.703 9.86 205.696 9.42 204.576 8.54V14H208.336C208.296 14.0667 208.269 14.1067 208.256 14.12C208.243 14.1333 208.223 14.16 208.196 14.2C208.183 14.24 208.043 14.4333 207.776 14.78C207.749 14.8067 207.656 14.94 207.496 15.18C207.349 15.42 207.249 15.54 207.196 15.54H204.576V21.86C205.256 22.02 205.903 22.2933 206.516 22.68C207.063 22.96 207.689 23.1 208.396 23.1C208.676 23.1 208.949 23.0733 209.216 23.02L209.596 22.94L208.036 24.16C207.689 24.4667 207.483 24.6333 207.416 24.66C207.363 24.7133 207.209 24.8267 206.956 25C206.716 25.1733 206.543 25.26 206.436 25.26ZM202.196 21.92L201.696 21.08V9.72L202.196 8.84V21.92ZM216.247 25.26C216.207 25.26 216.027 25.1533 215.707 24.94C214.96 24.4467 214.167 24.0067 213.327 23.62C212.673 23.3267 212.013 23.18 211.347 23.18C211.147 23.18 210.94 23.1933 210.727 23.22C210.687 23.22 210.667 23.2133 210.667 23.2C210.667 23.1733 210.693 23.1333 210.747 23.08C210.747 23.0667 210.753 23.06 210.767 23.06C210.94 22.8467 211.12 22.6933 211.307 22.6C211.453 22.4533 211.653 22.3 211.907 22.14V8.62C211.907 8.55333 211.973 8.46 212.107 8.34C212.253 8.22 212.487 8.04667 212.807 7.82L213.047 7.68C213.447 7.46667 213.7 7.32667 213.807 7.26C213.913 7.19333 213.973 7.15333 213.987 7.14C214.013 7.11333 214.047 7.08667 214.087 7.06C214.18 6.98 214.293 6.89333 214.427 6.8C214.68 6.62667 214.867 6.54 214.987 6.54C215.04 6.54 215.32 6.71333 215.827 7.06C216.44 7.5 217.073 7.87333 217.727 8.18C218.207 8.40667 218.72 8.52 219.267 8.52C219.48 8.52 219.693 8.50667 219.907 8.48C219.947 8.48 219.967 8.48667 219.967 8.5L219.887 8.64H219.867C219.747 8.78667 219.6 8.92 219.427 9.04C219.307 9.12 219.2 9.2 219.107 9.28C219.027 9.34667 218.933 9.41333 218.827 9.48V22.84L219.747 22.7L217.707 24.28C217.453 24.4933 217.293 24.62 217.227 24.66C217.213 24.6867 217.073 24.7933 216.807 24.98C216.54 25.1667 216.353 25.26 216.247 25.26ZM216.867 22.84V9.88C216.32 9.78667 215.8 9.60667 215.307 9.34C214.827 9.07333 214.353 8.78 213.887 8.46C213.887 17.3533 213.88 21.8067 213.867 21.82C214.627 21.9667 215.36 22.2267 216.067 22.6C216.293 22.72 216.56 22.8 216.867 22.84ZM211.507 21.92L211.007 21.08V9.72L211.507 8.84V21.92ZM221.979 21.92L221.479 21.08V9.72L221.979 8.84V21.92ZM226.019 25.26C225.979 25.26 225.719 25.0867 225.239 24.74C223.866 23.7 222.699 23.18 221.739 23.18C221.566 23.18 221.386 23.1933 221.199 23.22C221.159 23.22 221.139 23.2133 221.139 23.2C221.139 23.1733 221.166 23.1333 221.219 23.08C221.219 23.0667 221.226 23.06 221.239 23.06C221.413 22.8467 221.593 22.6933 221.779 22.6L221.959 22.44L222.379 22.14V8.62C222.379 8.55333 222.446 8.46 222.579 8.34C222.726 8.22 222.959 8.04667 223.279 7.82L223.899 7.48C224.033 7.4 224.146 7.34 224.239 7.3L224.819 6.86C225.126 6.63333 225.306 6.52 225.359 6.52C226.226 7.24 226.939 7.76667 227.499 8.1C228.006 8.39333 228.546 8.54 229.119 8.54L229.399 8.52C229.373 8.52 229.339 8.54 229.299 8.58C229.273 8.60667 229.239 8.64 229.199 8.68C229.173 8.70667 229.146 8.72667 229.119 8.74L227.739 9.7C227.673 9.76667 227.573 9.83333 227.439 9.9L227.139 9.92C226.286 9.92 225.359 9.50667 224.359 8.68V21.86C225.026 22.0333 225.666 22.3267 226.279 22.74L226.319 22.76C226.573 22.88 226.846 22.9667 227.139 23.02V15.54H225.359C225.373 15.54 225.386 15.5333 225.399 15.52C225.413 15.4933 225.426 15.4667 225.439 15.44C225.466 15.4133 225.486 15.3867 225.499 15.36C225.513 15.3333 225.526 15.32 225.539 15.32L225.939 14.78L226.199 14.36C226.373 14.12 226.479 14 226.519 14H230.159L230.139 14.02C230.113 14.0467 230.093 14.08 230.079 14.12C230.066 14.1467 230.046 14.1733 230.019 14.2C230.006 14.2133 229.999 14.2267 229.999 14.24C229.866 14.4267 229.726 14.6067 229.579 14.78L229.099 15.48C229.099 20.4267 229.093 22.9133 229.079 22.94C229.066 22.98 229.033 23.02 228.979 23.06C228.939 23.1 228.899 23.1333 228.859 23.16C228.473 23.4933 228.226 23.68 228.119 23.72L227.859 23.94C227.753 24.0733 227.539 24.26 227.219 24.5C226.899 24.7533 226.693 24.9133 226.599 24.98C226.346 25.1667 226.153 25.26 226.019 25.26ZM232.386 22.98L231.886 22.14V10.18L232.386 9.28V22.98ZM234.686 25.32H234.666C233.6 24.5333 232.406 24.14 231.086 24.14H230.946C230.986 24.14 231.06 24.0867 231.166 23.98L231.926 23.44C232.153 23.2667 232.386 23.1067 232.626 22.96C232.626 22.9467 232.633 22.9333 232.646 22.92C232.66 22.92 232.68 22.9067 232.706 22.88C232.746 22.8667 232.78 22.8467 232.806 22.82V8.58L230.806 8.04C230.806 8.02667 230.826 7.99333 230.866 7.94C230.92 7.88667 230.96 7.84667 230.986 7.82C231.013 7.78 231.033 7.76 231.046 7.76C231.26 7.57333 231.48 7.4 231.706 7.24L231.846 7.12C232.273 6.81333 232.573 6.66 232.746 6.66C232.8 6.66 233.913 6.96 236.086 7.56L239.406 8.46L239.386 8.48V10.86C239.386 10.9267 239.313 11.02 239.166 11.14L238.386 11.74C237.746 12.22 237.113 12.7133 236.486 13.22L235.826 13.74C237.213 13.8067 238.493 14.2333 239.666 15.02V20.88L240.646 21.38C240.646 21.3933 240.606 21.4333 240.526 21.5C240.286 21.7267 240.086 21.9067 239.926 22.04C239.82 22.12 239.753 22.1667 239.726 22.18C239.713 22.2067 239.573 22.3133 239.306 22.5C239.04 22.6867 238.853 22.78 238.746 22.78C238.72 22.78 238.54 22.6933 238.206 22.52C237.873 22.3467 237.546 22.1733 237.226 22L236.746 21.76C236.746 21.72 236.88 21.5867 237.146 21.36C237.266 21.2667 237.373 21.18 237.466 21.1C237.573 21.0067 237.653 20.9467 237.706 20.92V16.4C236.8 15.7867 235.82 15.3933 234.766 15.22V23.02C235.366 23.2067 235.94 23.5 236.486 23.9C236.46 23.9 236.36 23.9867 236.186 24.16C236.106 24.24 236.026 24.3133 235.946 24.38C235.88 24.4467 235.82 24.5067 235.766 24.56C235.726 24.6267 235.546 24.7667 235.226 24.98C235.093 25.0733 234.973 25.1533 234.866 25.22C234.773 25.2867 234.713 25.32 234.686 25.32ZM234.766 13.82L235.586 13.16C236.2 12.6667 236.813 12.1867 237.426 11.72V9.84L234.766 9.12V13.82ZM243.599 25.48L241.159 24.2H241.719C242.106 24.2 242.466 24.16 242.799 24.08C243.386 23.92 243.679 23.64 243.679 23.24V8.84C243.453 8.73333 243.219 8.63333 242.979 8.54C242.726 8.47333 242.473 8.44 242.219 8.44C241.859 8.44 241.493 8.50667 241.119 8.64C241.093 8.64 241.079 8.64 241.079 8.64C241.079 8.62667 241.079 8.61333 241.079 8.6V8.58C241.079 8.56667 241.093 8.55333 241.119 8.54C241.133 8.51333 241.139 8.49333 241.139 8.48H241.159C241.333 8.26667 241.513 8.11333 241.699 8.02L241.839 7.9C242.093 7.7 242.359 7.52667 242.639 7.38L242.919 7.16C243.066 7.05333 243.219 6.95333 243.379 6.86C243.539 6.75333 243.699 6.7 243.859 6.7L244.939 7.16C245.046 7.18667 245.146 7.22667 245.239 7.28C246.906 8.02667 248.553 8.82 250.179 9.66H250.199L250.179 9.68V20.88L251.159 21.38C251.159 21.3933 251.119 21.44 251.039 21.52C250.959 21.5867 250.859 21.6733 250.739 21.78C250.633 21.8733 250.526 21.96 250.419 22.04C250.326 22.12 250.266 22.1667 250.239 22.18C250.226 22.2067 250.186 22.24 250.119 22.28C250.053 22.3333 249.953 22.4 249.819 22.48C249.699 22.5733 249.586 22.6467 249.479 22.7C249.386 22.7533 249.313 22.78 249.259 22.78C249.233 22.78 249.053 22.6933 248.719 22.52C248.386 22.3467 248.059 22.1733 247.739 22L247.259 21.76C247.259 21.7467 247.293 21.7067 247.359 21.64C247.439 21.56 247.533 21.4733 247.639 21.38C247.759 21.2733 247.866 21.18 247.959 21.1C248.066 21.02 248.126 20.9733 248.139 20.96C248.166 20.9467 248.193 20.9333 248.219 20.92V15.64H245.659V23.58C245.659 23.9933 245.559 24.32 245.359 24.56C245.173 24.8133 244.919 25.0067 244.599 25.14C244.293 25.2867 243.959 25.4 243.599 25.48ZM248.219 14.6V11.04L245.659 9.76V14.6H248.219ZM243.259 23.24L242.759 22.4V10.18L243.259 9.28V23.24ZM255.569 25.32H255.549C254.975 24.9067 254.355 24.6 253.689 24.4H253.669V24.38C253.109 24.22 252.542 24.14 251.969 24.14H251.829C251.855 24.14 251.922 24.0867 252.029 23.98L253.489 22.96C253.489 22.9467 253.502 22.9333 253.529 22.92C253.569 22.9067 253.615 22.8733 253.669 22.82V8.68C253.669 8.64 253.682 8.60667 253.709 8.58L252.049 7.62L253.689 6.64C253.769 6.6 253.842 6.58 253.909 6.58C253.989 6.58 254.062 6.6 254.129 6.64L255.369 7.42C255.449 7.38 255.542 7.32 255.649 7.24C255.755 7.16 255.822 7.11333 255.849 7.1C255.875 7.08667 255.915 7.06 255.969 7.02C256.062 6.94 256.175 6.85333 256.309 6.76C256.615 6.53333 256.795 6.42 256.849 6.42C257.609 7.06 258.342 7.57333 259.049 7.96C259.555 8.24 260.102 8.38 260.689 8.38L260.989 8.36C260.962 8.36 260.922 8.38667 260.869 8.44C260.829 8.48 260.542 8.69333 260.009 9.08L259.309 9.56L259.189 9.66C259.095 9.72667 258.935 9.76 258.709 9.76C258.175 9.76 257.655 9.63333 257.149 9.38C256.642 9.11333 256.135 8.78 255.629 8.38V14H259.309L259.149 14.24C258.909 14.5867 258.749 14.8067 258.669 14.9C258.602 14.9933 258.542 15.0867 258.489 15.18C258.329 15.42 258.222 15.54 258.169 15.54H255.629V23.02C255.909 23.1 256.182 23.2067 256.449 23.34C256.609 23.3933 256.782 23.42 256.969 23.42C257.169 23.42 257.355 23.4133 257.529 23.4C257.715 23.3867 257.869 23.3667 257.989 23.34L258.169 23.32C257.089 24.2 256.542 24.6467 256.529 24.66C256.515 24.6733 256.375 24.78 256.109 24.98C255.789 25.2067 255.609 25.32 255.569 25.32ZM253.249 21.92L252.749 21.08V9.72L253.249 8.84V21.92ZM263.121 22.56L262.621 21.72V10.28L263.121 9.4V22.56ZM265.541 25.32H265.521C264.455 24.5333 263.261 24.14 261.941 24.14H261.801C261.815 24.14 261.841 24.12 261.881 24.08L262.081 23.92L262.761 23.44C263.228 23.1067 263.475 22.94 263.501 22.94C263.515 22.9133 263.541 22.8867 263.581 22.86C263.581 13.54 263.588 8.86667 263.601 8.84L263.201 8.66C262.948 8.59333 262.688 8.56 262.421 8.56C262.101 8.56 261.788 8.58667 261.481 8.64C262.548 7.77333 263.088 7.33333 263.101 7.32C263.115 7.29333 263.161 7.26 263.241 7.22C263.761 6.82 264.068 6.6 264.161 6.56C265.361 7.44 266.701 7.89333 268.181 7.92C268.168 7.92 268.148 7.93333 268.121 7.96C268.108 7.97333 268.088 7.98667 268.061 8C267.528 8.4 267.001 8.77333 266.481 9.12L266.461 9.14C266.395 9.19333 266.341 9.23333 266.301 9.26C266.261 9.27333 266.235 9.28667 266.221 9.3C266.208 9.31333 266.195 9.32 266.181 9.32L265.541 9.3V23C265.848 23.0933 266.141 23.2067 266.421 23.34C266.581 23.3933 266.761 23.42 266.961 23.42C267.148 23.42 267.335 23.4133 267.521 23.4C267.708 23.3867 267.861 23.3667 267.981 23.34L268.161 23.32C267.068 24.2 266.508 24.6467 266.481 24.66C266.455 24.6867 266.201 24.88 265.721 25.24C265.628 25.2933 265.568 25.32 265.541 25.32Z" fill="black"/>
<defs>
<filter id="filter0_d_229_305" x="180" y="55.9998" width="82" height="69.0007" filterUnits="userSpaceOnUse" color-interpolation-filters="sRGB">
<feFlood flood-opacity="0" result="BackgroundImageFix"/>
<feColorMatrix in="SourceAlpha" type="matrix" values="0 0 0 0 0 0 0 0 0 0 0 0 0 0 0 0 0 0 127 0" result="hardAlpha"/>
<feOffset dy="4"/>
<feGaussianBlur stdDeviation="2"/>
<feComposite in2="hardAlpha" operator="out"/>
<feColorMatrix type="matrix" values="0 0 0 0 0 0 0 0 0 0 0 0 0 0 0 0 0 0 0.5 0"/>
<feBlend mode="normal" in2="BackgroundImageFix" result="effect1_dropShadow_229_305"/>
<feBlend mode="normal" in="SourceGraphic" in2="effect1_dropShadow_229_305" result="shape"/>
</filter>
</defs>
</svg>
